<svg width="23" height="26" viewBox="0 0 23 26" fill="none" xmlns="http://www.w3.org/2000/svg">
<g clip-path="url(#clip0_203_1343)">
<path d="M16.5181 16.5951L13.0655 13.136L1.64062 24.7387C1.74984 24.6974 1.8557 24.6478 1.95727 24.5902L16.5181 16.5951Z" fill="white"/>
<path d="M0.00850522 1.93999C0.0144238 3.35531 0.107148 22.2236 0.116026 23.4133C0.0902982 23.661 0.125802 23.9112 0.219399 24.1418C0.312996 24.3724 0.4618 24.5764 0.652648 24.7356L12.5668 12.637L0.600367 0.643433C0.393848 0.785424 0.229684 0.981073 0.125431 1.20945C0.0211803 1.43783 -0.0192362 1.69035 0.00850522 1.93999Z" fill="white"/>
<path d="M17.159 8.98145L13.5615 12.6345L17.1629 16.2421L22.1129 13.5234C22.7048 13.1957 23.3341 12.3604 22.1129 11.6923L17.159 8.98145Z" fill="white"/>
<path d="M1.95723 0.659347C1.79912 0.5753 1.62689 0.521278 1.44922 0.5L13.0626 12.1343L16.5151 8.62869L1.95723 0.659347Z" fill="white"/>
</g>
<defs>
<clipPath id="clip0_203_1343">
<rect width="23" height="25" fill="white" transform="translate(0 0.5)"/>
</clipPath>
</defs>
</svg>
