<svg width="181" height="30" viewBox="0 0 181 30" fill="none" xmlns="http://www.w3.org/2000/svg">
<g clip-path="url(#clip0_2_1081)">
<path d="M40.7517 12.0431C40.7517 10.143 41.176 8.44587 42.0245 6.95164C42.8916 5.43896 44.063 4.26755 45.5387 3.43742C47.033 2.58884 48.7025 2.16455 50.5472 2.16455C52.7055 2.16455 54.5964 2.71797 56.2198 3.82481C57.8431 4.93166 58.9776 6.46278 59.6233 8.4182H55.1683C54.7255 7.49584 54.0983 6.80406 53.2866 6.34288C52.4934 5.88169 51.571 5.6511 50.5195 5.6511C49.3942 5.6511 48.3889 5.91859 47.5034 6.45356C46.6364 6.97009 45.9538 7.70798 45.4557 8.66724C44.9761 9.6265 44.7363 10.7518 44.7363 12.0431C44.7363 13.3159 44.9761 14.4412 45.4557 15.4189C45.9538 16.3782 46.6364 17.1253 47.5034 17.6603C48.3889 18.1768 49.3942 18.4351 50.5195 18.4351C51.571 18.4351 52.4934 18.2045 53.2866 17.7433C54.0983 17.2637 54.7255 16.5627 55.1683 15.6403H59.6233C58.9776 17.6142 57.8431 19.1545 56.2198 20.2614C54.6148 21.3498 52.724 21.894 50.5472 21.894C48.7025 21.894 47.033 21.4789 45.5387 20.6488C44.063 19.8002 42.8916 18.6288 42.0245 17.1345C41.176 15.6403 40.7517 13.9432 40.7517 12.0431Z" fill="white"/>
<path d="M69.7392 21.9773C68.2634 21.9773 66.9352 21.6544 65.7546 21.0088C64.5739 20.3447 63.6424 19.4131 62.9598 18.214C62.2957 17.0149 61.9636 15.6314 61.9636 14.0634C61.9636 12.4953 62.3049 11.1118 62.9875 9.91267C63.6885 8.71359 64.6385 7.79122 65.8376 7.14557C67.0367 6.48146 68.3741 6.14941 69.8499 6.14941C71.3257 6.14941 72.6631 6.48146 73.8622 7.14557C75.0613 7.79122 76.0021 8.71359 76.6846 9.91267C77.3856 11.1118 77.7361 12.4953 77.7361 14.0634C77.7361 15.6314 77.3764 17.0149 76.657 18.214C75.956 19.4131 74.9967 20.3447 73.7792 21.0088C72.5801 21.6544 71.2334 21.9773 69.7392 21.9773ZM69.7392 18.6014C70.4402 18.6014 71.0951 18.4354 71.7038 18.1033C72.3311 17.7528 72.8291 17.2363 73.1981 16.5538C73.567 15.8712 73.7515 15.0411 73.7515 14.0634C73.7515 12.606 73.3641 11.49 72.5893 10.7152C71.833 9.92189 70.9014 9.52527 69.7945 9.52527C68.6877 9.52527 67.7561 9.92189 66.9998 10.7152C66.2619 11.49 65.8929 12.606 65.8929 14.0634C65.8929 15.5207 66.2527 16.646 66.9721 17.4392C67.71 18.214 68.6324 18.6014 69.7392 18.6014Z" fill="white"/>
<path d="M99.6153 6.17676C101.497 6.17676 103.01 6.75785 104.153 7.92003C105.315 9.06377 105.897 10.6686 105.897 12.7348V21.7278H102.023V13.2605C102.023 12.0614 101.718 11.1483 101.109 10.5211C100.501 9.87545 99.6706 9.55262 98.6191 9.55262C97.5676 9.55262 96.7282 9.87545 96.101 10.5211C95.4923 11.1483 95.1879 12.0614 95.1879 13.2605V21.7278H91.314V13.2605C91.314 12.0614 91.0096 11.1483 90.4008 10.5211C89.7921 9.87545 88.9619 9.55262 87.9104 9.55262C86.8405 9.55262 85.9919 9.87545 85.3647 10.5211C84.7559 11.1483 84.4515 12.0614 84.4515 13.2605V21.7278H80.5776V6.39813H84.4515V8.25209C84.9496 7.60643 85.5861 7.09913 86.3608 6.73018C87.1541 6.36123 88.0211 6.17676 88.9619 6.17676C90.161 6.17676 91.2309 6.43502 92.1718 6.95155C93.1126 7.44963 93.8412 8.16907 94.3578 9.10989C94.8558 8.22442 95.5753 7.51419 96.5161 6.97922C97.4754 6.44425 98.5084 6.17676 99.6153 6.17676Z" fill="white"/>
<path d="M113.447 8.61213C113.945 7.91113 114.627 7.33004 115.494 6.86886C116.38 6.38923 117.385 6.14941 118.51 6.14941C119.82 6.14941 121.001 6.47224 122.052 7.1179C123.122 7.76355 123.962 8.68592 124.57 9.885C125.198 11.0657 125.511 12.44 125.511 14.008C125.511 15.576 125.198 16.9688 124.57 18.1863C123.962 19.3854 123.122 20.317 122.052 20.9811C121.001 21.6452 119.82 21.9773 118.51 21.9773C117.385 21.9773 116.389 21.7467 115.522 21.2855C114.673 20.8243 113.982 20.2432 113.447 19.5422V29.0334H109.573V6.39845H113.447V8.61213ZM121.554 14.008C121.554 13.0857 121.361 12.2924 120.973 11.6283C120.604 10.9458 120.106 10.4292 119.479 10.0787C118.87 9.72819 118.206 9.55294 117.487 9.55294C116.786 9.55294 116.122 9.73742 115.494 10.1064C114.886 10.4569 114.387 10.9734 114 11.656C113.631 12.3385 113.447 13.141 113.447 14.0634C113.447 14.9857 113.631 15.7882 114 16.4707C114.387 17.1533 114.886 17.679 115.494 18.048C116.122 18.3985 116.786 18.5737 117.487 18.5737C118.206 18.5737 118.87 18.3893 119.479 18.0203C120.106 17.6514 120.604 17.1256 120.973 16.4431C121.361 15.7605 121.554 14.9488 121.554 14.008Z" fill="white"/>
<path d="M127.33 14.008C127.33 12.4584 127.635 11.0841 128.243 9.885C128.87 8.68592 129.71 7.76355 130.761 7.1179C131.831 6.47224 133.021 6.14941 134.331 6.14941C135.475 6.14941 136.471 6.38 137.319 6.84118C138.186 7.30237 138.878 7.88346 139.395 8.58446V6.39845H143.296V21.7282H139.395V19.4869C138.897 20.2063 138.205 20.8059 137.319 21.2855C136.452 21.7467 135.447 21.9773 134.303 21.9773C133.012 21.9773 131.831 21.6452 130.761 20.9811C129.71 20.317 128.87 19.3854 128.243 18.1863C127.635 16.9688 127.33 15.576 127.33 14.008ZM139.395 14.0634C139.395 13.1225 139.21 12.3201 138.841 11.656C138.472 10.9734 137.974 10.4569 137.347 10.1064C136.72 9.73742 136.047 9.55294 135.327 9.55294C134.608 9.55294 133.944 9.72819 133.335 10.0787C132.726 10.4292 132.228 10.9458 131.841 11.6283C131.472 12.2924 131.287 13.0857 131.287 14.008C131.287 14.9304 131.472 15.7421 131.841 16.4431C132.228 17.1256 132.726 17.6514 133.335 18.0203C133.962 18.3893 134.626 18.5737 135.327 18.5737C136.047 18.5737 136.72 18.3985 137.347 18.048C137.974 17.679 138.472 17.1625 138.841 16.4984C139.21 15.8159 139.395 15.0042 139.395 14.0634Z" fill="white"/>
<path d="M155.575 6.17676C157.401 6.17676 158.877 6.75785 160.002 7.92003C161.128 9.06377 161.69 10.6686 161.69 12.7348V21.7278H157.816V13.2605C157.816 12.043 157.512 11.1114 156.903 10.4658C156.294 9.80166 155.464 9.46961 154.413 9.46961C153.343 9.46961 152.494 9.80166 151.867 10.4658C151.258 11.1114 150.954 12.043 150.954 13.2605V21.7278H147.08V6.39813H150.954V8.30743C151.47 7.64332 152.125 7.1268 152.918 6.75785C153.73 6.37046 154.616 6.17676 155.575 6.17676Z" fill="white"/>
<path d="M180.04 6.39844L170.549 28.9779H166.426L169.746 21.3407L163.603 6.39844H167.948L171.904 17.1071L175.917 6.39844H180.04Z" fill="white"/>
<path d="M11.7063 28.8286C5.79153 28.8286 1.01562 24.016 1.01562 18.1379C1.01562 12.2599 5.79153 7.44727 11.7063 7.44727C17.5843 7.44727 22.397 12.2232 22.397 18.1379C22.3602 24.016 17.5843 28.8286 11.7063 28.8286Z" fill="#0328EE"/>
<path d="M27.5084 0.614746H13.428C12.4771 0.614746 11.7063 1.38559 11.7063 2.33648V16.4169C11.7063 17.3678 12.4771 18.1386 13.428 18.1386H27.5084C28.4593 18.1386 29.2302 17.3678 29.2302 16.4169V2.33648C29.2302 1.38559 28.4593 0.614746 27.5084 0.614746Z" fill="white"/>
</g>
<defs>
<clipPath id="clip0_2_1081">
<rect width="180" height="29" fill="white" transform="translate(0.203125 0.53125)"/>
</clipPath>
</defs>
</svg>
