<svg width="176" height="30" viewBox="0 0 176 30" fill="none" xmlns="http://www.w3.org/2000/svg">
<g clip-path="url(#clip0_2_1054)">
<path d="M60.506 15.896C59.243 17.9449 57.4467 19.1237 55.1172 19.1237C51.7493 19.1237 49.2794 16.4012 49.2794 12.8929C49.2794 9.38458 51.637 6.69021 55.1734 6.69021C57.4187 6.69021 59.4394 7.95319 60.4498 9.86171L63.7055 7.2796C62.0496 4.33263 59.0465 2.56445 55.2295 2.56445C49.111 2.56445 44.8169 7.1112 44.8169 12.8929C44.8169 18.6746 49.1952 23.2494 55.1734 23.2494C58.9343 23.2494 62.0777 21.2567 63.7897 18.422L60.506 15.896Z" fill="white"/>
<path d="M72.7051 8.17773C68.2145 8.17773 64.9868 11.4335 64.9868 15.6996C64.9868 19.9376 68.2145 23.2494 72.7051 23.2494C77.1957 23.2494 80.4233 19.9376 80.4233 15.6996C80.4233 11.4335 77.1957 8.17773 72.7051 8.17773ZM72.7051 11.9667C74.6417 11.9667 76.1011 13.4543 76.1011 15.6996C76.1011 17.9449 74.6417 19.4605 72.7051 19.4605C70.7685 19.4605 69.3091 17.9449 69.3091 15.6996C69.3091 13.4543 70.7685 11.9667 72.7051 11.9667Z" fill="white"/>
<path d="M83.2119 8.51452V22.9126H87.478V15.4189C87.478 13.5385 88.4603 11.9387 90.2565 11.9387C91.8283 11.9387 92.8386 12.921 92.8386 14.8014V22.9126H97.1047V15.4189C97.1047 13.5385 98.0871 11.9387 99.8833 11.9387C101.455 11.9387 102.437 12.921 102.437 14.8014V22.9126H106.703V14.1559C106.703 10.423 104.598 8.17773 101.146 8.17773C98.7045 8.17773 97.3293 9.24425 96.2908 10.7037C95.3085 9.10392 93.7368 8.17773 91.5195 8.17773C89.6391 8.17773 88.2358 8.90745 87.3096 10.3669V8.51452H83.2119Z" fill="white"/>
<path d="M117.896 11.9387C119.72 11.9387 121.236 13.4262 121.236 15.7557C121.236 18.001 119.72 19.4885 117.896 19.4885C115.988 19.4885 114.5 18.0291 114.5 15.7557C114.5 13.3981 115.988 11.9387 117.896 11.9387ZM114.304 8.51452H110.346V28.5259H114.612V21.3409C115.51 22.6881 117.223 23.2494 118.766 23.2494C122.695 23.2494 125.53 19.9937 125.53 15.6996C125.53 11.2651 122.471 8.17773 118.794 8.17773C117.391 8.17773 115.426 8.76712 114.304 10.5072V8.51452Z" fill="white"/>
<path d="M135.792 13.9594L131.863 14.7172C128.831 15.3628 127.176 16.8222 127.176 18.9553C127.176 21.4532 129.14 23.2494 131.947 23.2494C133.855 23.2494 135.259 22.4074 135.932 21.1444V22.9126H139.89V13.8472C139.89 10.3388 137.504 8.17773 133.49 8.17773C130.796 8.17773 128.635 9.30038 127.316 10.9002L129.533 13.5946C130.403 12.6123 131.638 11.8545 133.238 11.8545C134.697 11.8545 135.792 12.4158 135.792 13.8472V13.9594ZM132.901 20.0779C131.891 20.0779 131.245 19.5166 131.245 18.7027C131.245 17.9168 131.807 17.4116 132.957 17.2151L135.82 16.6538V17.0748C135.82 18.7869 134.669 20.0779 132.901 20.0779Z" fill="white"/>
<path d="M143.483 8.51452V22.9126H147.749V15.4189C147.749 13.5385 148.732 11.9387 150.584 11.9387C152.156 11.9387 153.166 12.921 153.166 14.8014V22.9126H157.432V14.1559C157.432 10.423 155.299 8.17773 151.847 8.17773C149.91 8.17773 148.507 8.90745 147.581 10.3669V8.51452H143.483Z" fill="white"/>
<path d="M164.398 22.3795L164.23 22.8566C163.612 24.9054 162.574 25.2703 161.451 25.2703C160.974 25.2703 160.244 25.2142 159.486 24.7932V28.3295C160.132 28.6383 161.058 28.8628 162.068 28.8628C164.791 28.8628 166.531 27.5717 167.962 24.0915L174.249 8.51465H169.899L166.531 17.945L163.191 8.51465H158.729L164.398 22.3795Z" fill="white"/>
<path d="M19.4129 0.614746H14.9339C14.4661 0.614746 14.0869 0.993959 14.0869 1.46174V25.3089C14.0869 25.7767 14.4661 26.1559 14.9339 26.1559H19.4129C19.8807 26.1559 20.2599 25.7767 20.2599 25.3089V1.46174C20.2599 0.993959 19.8807 0.614746 19.4129 0.614746Z" fill="white"/>
<path d="M28.5421 26.1556C31.4401 26.1556 33.7894 23.8063 33.7894 20.9084C33.7894 18.0104 31.4401 15.6611 28.5421 15.6611C25.6442 15.6611 23.2949 18.0104 23.2949 20.9084C23.2949 23.8063 25.6442 26.1556 28.5421 26.1556Z" fill="#0328EE"/>
<path d="M28.5421 11.1092C31.4401 11.1092 33.7894 8.75997 33.7894 5.86199C33.7894 2.96402 31.4401 0.614746 28.5421 0.614746C25.6442 0.614746 23.2949 2.96402 23.2949 5.86199C23.2949 8.75997 25.6442 11.1092 28.5421 11.1092Z" fill="#0328EE"/>
<path d="M5.80486 26.1556C8.70284 26.1556 11.0521 23.8063 11.0521 20.9084C11.0521 18.0104 8.70284 15.6611 5.80486 15.6611C2.90688 15.6611 0.557617 18.0104 0.557617 20.9084C0.557617 23.8063 2.90688 26.1556 5.80486 26.1556Z" fill="#0328EE"/>
</g>
<defs>
<clipPath id="clip0_2_1054">
<rect width="175" height="29" fill="white" transform="translate(0.203125 0.53125)"/>
</clipPath>
</defs>
</svg>
