<svg width="178" height="30" viewBox="0 0 178 30" fill="none" xmlns="http://www.w3.org/2000/svg">
<g clip-path="url(#clip0_2_1068)">
<path d="M22.3052 12.7751C18.5448 12.7751 15.4923 9.73424 15.4923 5.99702C15.4923 5.50955 15.5504 5.0453 15.6432 4.58105H6.59033C3.08523 4.58105 0.241699 7.41298 0.241699 10.8949V22.5592C0.241699 26.0527 3.08523 28.873 6.59033 28.873H18.3127C21.8294 28.873 24.6613 26.0411 24.6613 22.5592V12.3457C23.9417 12.6126 23.1409 12.7751 22.3052 12.7751Z" fill="#0328EE"/>
<path d="M24.6723 22.5592V12.3457C23.9411 12.6126 23.1402 12.7751 22.3162 12.7751C18.5557 12.7751 15.5033 9.73424 15.5033 5.99702C15.5033 5.50955 15.5613 5.0453 15.6542 4.58105H6.60131C3.11943 4.58105 0.299111 7.36656 0.252686 10.8253C8.6092 14.2723 17.1978 18.4622 24.6258 23.36C24.649 23.0931 24.6723 22.8261 24.6723 22.5592Z" fill="#0328EE"/>
<path d="M22.8267 10.4336C25.5542 10.4336 27.7594 8.24007 27.7594 5.5242C27.7594 2.81994 25.5542 0.614746 22.8267 0.614746C20.0992 0.614746 17.894 2.80833 17.894 5.5242C17.894 8.22846 20.0992 10.4336 22.8267 10.4336Z" fill="white"/>
<path d="M52.712 16.6791C52.5179 17.5041 52.1903 18.3049 51.7292 19.0815C51.2682 19.8338 50.6979 20.5132 50.0184 21.1199C49.3389 21.7023 48.5624 22.1755 47.6888 22.5395C46.8152 22.8793 45.8809 23.0491 44.886 23.0491C43.7454 23.0491 42.6655 22.8307 41.6463 22.3939C40.6514 21.9328 39.7656 21.314 38.9891 20.5375C38.2368 19.761 37.6302 18.8631 37.1691 17.8439C36.7323 16.8004 36.5139 15.6841 36.5139 14.495C36.5139 13.306 36.7323 12.2018 37.1691 11.1826C37.6302 10.1391 38.2368 9.22908 38.9891 8.45254C39.7656 7.676 40.6514 7.06933 41.6463 6.63252C42.6655 6.17145 43.7454 5.94092 44.886 5.94092C45.8809 5.94092 46.8152 6.12292 47.6888 6.48692C48.5624 6.82666 49.3389 7.29986 50.0184 7.90654C50.6979 8.48894 51.2682 9.16842 51.7292 9.94496C52.1903 10.6973 52.5179 11.4859 52.712 12.311H48.526C48.3319 11.8742 48.0649 11.4859 47.7252 11.1462C47.434 10.855 47.0579 10.5881 46.5968 10.3454C46.1357 10.0784 45.5654 9.94496 44.886 9.94496C43.6969 9.94496 42.7019 10.3575 41.9011 11.1826C41.1003 12.0077 40.6999 13.1118 40.6999 14.495C40.6999 15.8782 41.1003 16.9824 41.9011 17.8075C42.7019 18.6325 43.6969 19.0451 44.886 19.0451C45.5654 19.0451 46.1357 18.9237 46.5968 18.6811C47.0579 18.4384 47.434 18.1715 47.7252 17.8803C48.0649 17.5405 48.3319 17.1401 48.526 16.6791H52.712Z" fill="white"/>
<path d="M59.6279 14.495C59.6279 15.8782 60.0283 16.9824 60.8291 17.8075C61.6299 18.6325 62.6249 19.0451 63.814 19.0451C65.003 19.0451 65.998 18.6325 66.7988 17.8075C67.5996 16.9824 68 15.8782 68 14.495C68 13.1118 67.5996 12.0077 66.7988 11.1826C65.998 10.3575 65.003 9.94496 63.814 9.94496C62.6249 9.94496 61.6299 10.3575 60.8291 11.1826C60.0283 12.0077 59.6279 13.1118 59.6279 14.495ZM72.186 14.495C72.186 15.6841 71.9555 16.8004 71.4944 17.8439C71.0576 18.8631 70.451 19.761 69.6744 20.5375C68.9221 21.314 68.0364 21.9328 67.0172 22.3939C66.0222 22.8307 64.9545 23.0491 63.814 23.0491C62.6734 23.0491 61.5935 22.8307 60.5743 22.3939C59.5794 21.9328 58.6936 21.314 57.9171 20.5375C57.1648 19.761 56.5581 18.8631 56.0971 17.8439C55.6603 16.8004 55.4419 15.6841 55.4419 14.495C55.4419 13.306 55.6603 12.2018 56.0971 11.1826C56.5581 10.1391 57.1648 9.22908 57.9171 8.45254C58.6936 7.676 59.5794 7.06933 60.5743 6.63252C61.5935 6.17145 62.6734 5.94092 63.814 5.94092C64.9545 5.94092 66.0222 6.17145 67.0172 6.63252C68.0364 7.06933 68.9221 7.676 69.6744 8.45254C70.451 9.22908 71.0576 10.1391 71.4944 11.1826C71.9555 12.2018 72.186 13.306 72.186 14.495Z" fill="white"/>
<path d="M83.8173 5.94092C84.6666 5.94092 85.3946 6.06225 86.0013 6.30492C86.608 6.52332 87.1055 6.76599 87.4937 7.03293C87.9305 7.3484 88.2824 7.7124 88.5493 8.12494C88.9376 7.7124 89.3865 7.3484 89.8962 7.03293C90.333 6.76599 90.8547 6.52332 91.4614 6.30492C92.068 6.06225 92.7354 5.94092 93.4634 5.94092C95.2834 5.94092 96.7394 6.52332 97.8314 7.68813C98.9234 8.85295 99.4694 10.5759 99.4694 12.857V22.8671H95.2834V13.221C95.2834 12.2018 95.0043 11.401 94.4462 10.8186C93.9123 10.2362 93.2814 9.94496 92.5534 9.94496C91.8254 9.94496 91.1823 10.2362 90.6242 10.8186C90.0903 11.401 89.8234 12.2018 89.8234 13.221V22.8671H85.6373V13.221C85.6373 12.2018 85.3582 11.401 84.8001 10.8186C84.2662 10.2362 83.6353 9.94496 82.9073 9.94496C82.1793 9.94496 81.5362 10.2362 80.9781 10.8186C80.4442 11.401 80.1773 12.2018 80.1773 13.221V22.8671H75.9912V6.12292H79.0852L79.8133 7.76093C80.153 7.4212 80.5291 7.11786 80.9417 6.85092C81.2814 6.63252 81.6939 6.42625 82.1793 6.23212C82.6646 6.03798 83.2106 5.94092 83.8173 5.94092Z" fill="white"/>
<path d="M112.573 5.94092C113.617 5.94092 114.612 6.15932 115.558 6.59612C116.504 7.00866 117.329 7.6032 118.033 8.37974C118.761 9.13202 119.332 10.0299 119.744 11.0734C120.181 12.1169 120.399 13.2574 120.399 14.495C120.399 15.7326 120.181 16.8732 119.744 17.9167C119.332 18.9601 118.761 19.8702 118.033 20.6467C117.329 21.399 116.504 21.9935 115.558 22.4303C114.612 22.8429 113.617 23.0491 112.573 23.0491C111.869 23.0491 111.251 22.9642 110.717 22.7943C110.207 22.6245 109.758 22.4424 109.37 22.2483C108.933 22.0056 108.545 21.7266 108.205 21.4111V28.6912H104.019V6.12292H107.113L107.841 7.76093C108.205 7.4212 108.63 7.11786 109.115 6.85092C109.528 6.63252 110.025 6.42625 110.608 6.23212C111.19 6.03798 111.845 5.94092 112.573 5.94092ZM107.841 14.495C107.841 15.8782 108.242 16.9824 109.042 17.8075C109.843 18.6325 110.838 19.0451 112.027 19.0451C113.216 19.0451 114.211 18.6325 115.012 17.8075C115.813 16.9824 116.213 15.8782 116.213 14.495C116.213 13.1118 115.813 12.0077 115.012 11.1826C114.211 10.3575 113.216 9.94496 112.027 9.94496C110.838 9.94496 109.843 10.3575 109.042 11.1826C108.242 12.0077 107.841 13.1118 107.841 14.495Z" fill="white"/>
<path d="M131.143 5.94092C132.089 5.94092 132.963 6.11078 133.764 6.45052C134.565 6.76599 135.256 7.21493 135.839 7.79733C136.421 8.37974 136.87 9.07135 137.186 9.87216C137.525 10.673 137.695 11.5466 137.695 12.493V22.8671H134.601L133.873 21.2291C133.485 21.5688 133.06 21.8722 132.599 22.1391C132.187 22.3818 131.689 22.6002 131.107 22.7943C130.524 22.9642 129.869 23.0491 129.141 23.0491C127.321 23.0491 125.926 22.6123 124.955 21.7387C123.984 20.8408 123.499 19.7003 123.499 18.3171C123.499 17.492 123.657 16.7397 123.972 16.0602C124.312 15.3565 124.87 14.762 125.647 14.2766C126.423 13.767 127.442 13.3788 128.704 13.1118C129.99 12.8206 131.592 12.675 133.509 12.675C133.509 11.7529 133.254 11.037 132.745 10.5274C132.259 10.0178 131.604 9.76296 130.779 9.76296C130.221 9.76296 129.772 9.86002 129.432 10.0542C129.117 10.2483 128.862 10.4546 128.668 10.673C128.449 10.9399 128.304 11.2433 128.231 11.583H124.045C124.142 10.8065 124.36 10.0784 124.7 9.39895C125.064 8.71948 125.55 8.12494 126.156 7.61533C126.763 7.10573 127.479 6.70532 128.304 6.41412C129.153 6.09865 130.1 5.94092 131.143 5.94092ZM129.869 19.7731C130.961 19.7731 131.835 19.4576 132.49 18.8267C133.169 18.1715 133.509 17.3343 133.509 16.3151V15.587C132.271 15.587 131.277 15.6477 130.524 15.769C129.772 15.8661 129.177 16.0238 128.741 16.2423C128.328 16.4364 128.049 16.6791 127.903 16.9703C127.758 17.2615 127.685 17.5891 127.685 17.9531C127.685 18.4141 127.891 18.8388 128.304 19.2271C128.716 19.5911 129.238 19.7731 129.869 19.7731Z" fill="white"/>
<path d="M150.785 5.94092C151.78 5.94092 152.69 6.11078 153.515 6.45052C154.34 6.76599 155.044 7.2392 155.626 7.87014C156.233 8.47681 156.694 9.21695 157.009 10.0906C157.349 10.9642 157.519 11.947 157.519 13.039V22.8671H153.333V13.585C153.333 12.493 153.005 11.6194 152.35 10.9642C151.719 10.2847 150.894 9.94496 149.875 9.94496C148.856 9.94496 148.019 10.2847 147.363 10.9642C146.732 11.6194 146.417 12.493 146.417 13.585V22.8671H142.231V6.12292H145.325L146.053 7.76093C146.466 7.4212 146.914 7.11786 147.4 6.85092C147.812 6.63252 148.298 6.42625 148.856 6.23212C149.438 6.03798 150.081 5.94092 150.785 5.94092Z" fill="white"/>
<path d="M160.263 6.12256H164.631L168.817 17.0427L172.639 6.12256H177.008C175.818 9.18019 174.739 11.9466 173.768 14.4218C173.355 15.4896 172.943 16.5331 172.53 17.5523C172.142 18.5715 171.79 19.5058 171.475 20.3551C171.159 21.1802 170.892 21.8718 170.674 22.4299C170.455 22.9881 170.322 23.3157 170.273 23.4127C169.861 24.4077 169.448 25.2449 169.036 25.9243C168.648 26.6281 168.223 27.1984 167.762 27.6352C167.301 28.072 166.803 28.3874 166.269 28.5816C165.736 28.7757 165.129 28.8728 164.449 28.8728C164.255 28.8728 164.061 28.8606 163.867 28.8364C163.697 28.8364 163.552 28.8242 163.43 28.8C163.26 28.7757 163.115 28.7393 162.993 28.6908V25.2327C163.916 25.2327 164.619 25.0265 165.105 24.6139C165.614 24.2014 166.002 23.6797 166.269 23.0487L166.633 22.1387L160.263 6.12256Z" fill="white"/>
</g>
<defs>
<clipPath id="clip0_2_1068">
<rect width="177" height="29" fill="white" transform="translate(0.195312 0.53125)"/>
</clipPath>
</defs>
</svg>
