<svg width="938" height="915" viewBox="0 0 938 915" fill="none" xmlns="http://www.w3.org/2000/svg">
<path d="M573.441 558.672C576.186 560.047 583.759 567.539 590.232 570.78C596.706 574.02 606.214 578.811 623.178 594.394C640.142 609.979 658.395 626.422 662.316 633.374C666.237 640.325 665.562 649.296 661.981 656.321C658.395 663.341 647.44 671.157 644.106 673.932C640.773 676.707 637.867 676.945 634.019 675.943C630.172 674.941 466.974 601.485 400.949 563.749C334.927 526.013 371.53 520.257 384.869 517.641C398.208 515.024 339.116 454.945 351.06 431.219C363.005 407.495 415.447 404.56 427.463 410.27C439.479 415.98 543.613 530.473 552.431 539.834C561.249 549.191 570.695 557.297 573.441 558.672Z" fill="#ECEEEF"/>
<path d="M427.465 410.267C415.449 404.559 363.007 407.492 351.06 431.216C339.119 454.944 398.21 515.021 384.871 517.638L378.227 519.004C363.584 522.429 344.97 530.95 397.57 561.79L400.952 563.746C466.974 601.482 630.174 674.938 634.021 675.94C637.869 676.942 640.775 676.702 644.109 673.929L650.365 668.923C651.419 668.05 652.519 667.113 653.608 666.132C661.037 652.241 661.802 642.11 655.912 635.721C643.859 622.646 591.469 596.435 562.485 578.954L559.364 577.048C531.194 559.621 502.66 546.182 492.335 541.378C482.423 536.766 486.829 531.087 504.537 538.826C522.245 546.566 528.851 546.143 539.688 545.974C543.113 545.922 546.075 542.047 550.7 537.972L509.733 493.584C476.394 457.705 434.794 413.752 427.465 410.267Z" fill="#DADEE0"/>
<path d="M427.465 410.267C415.449 404.559 363.007 407.492 351.06 431.216C339.119 454.944 398.21 515.021 384.871 517.64L378.228 519.006C363.584 522.431 344.971 530.952 397.571 561.792L400.952 563.748C462.33 598.83 607.698 664.784 630.934 674.692C649.419 657.359 653.298 646.945 641.894 639.443C631.245 632.439 598.735 618.357 570.882 604.568C543.029 590.779 531.938 585.927 511.016 575.448C490.094 564.969 478.417 554.901 472.072 546.495C463.005 534.487 481.653 521.104 484.567 523.096C487.482 525.087 499.873 532.885 507.837 538.606C515.801 544.328 532.34 549.711 541.619 548.157C544.871 547.614 540.725 535.241 532.638 518.352L491.686 474.248C462.874 443.551 433.511 413.142 427.465 410.267Z" fill="#CDD1D2"/>
<path d="M477.155 505.052C469.332 500.573 431.907 503.862 427.261 512.629C422.615 521.395 390.539 554.05 406.366 565.864L410.909 569.091C411.399 569.429 411.914 569.783 412.455 570.154L420.082 574.262C488.304 610.61 609.858 665.708 630.932 674.695C633.421 672.362 635.644 670.154 637.602 668.062C638.867 662.819 634.653 655.921 615.391 645.951L606.814 641.686C565.272 621.308 475.736 579.084 464.818 569.776C453.366 560.014 460.585 546.359 455.093 539.357C449.602 532.355 454.941 529.445 463.228 529.865C471.513 530.286 480.023 519.447 480.88 519.224C481.736 518.999 483.592 520.085 484.915 521.008C488.15 523.264 494.792 528.445 501.002 533.392L505.095 536.153C509.045 538.746 512.457 540.74 514.362 541.253C521.082 543.057 484.977 509.529 477.155 505.052Z" fill="#BBC2C5"/>
<path d="M427.465 410.267C415.449 404.559 363.007 407.492 351.06 431.216C339.118 454.944 398.21 515.021 384.871 517.638L378.227 519.004C363.584 522.429 344.97 530.95 397.57 561.79L400.951 563.746C466.974 601.482 630.174 674.938 634.021 675.94C637.869 676.942 640.775 676.702 644.108 673.929L649.112 669.946C651.229 668.234 653.633 666.201 655.847 664.034L658.074 660.207C659.077 658.443 659.887 656.938 660.399 655.888C663.031 650.422 662.297 647.276 659.108 652.097L658.387 653.253C654.598 659.667 643.656 669.527 642.627 669.869C641.696 670.18 624.315 660.342 609.837 653.334L563.282 631.5C541.752 621.269 517.576 609.563 502.931 601.828L500.133 600.336C474.382 586.454 437.44 563.563 439.873 561.513L442.208 558.982C446.677 553.884 451.683 546.591 449.316 542.641L443.191 533.035C439.425 527.052 435.627 520.527 436.396 519C437.677 516.456 452.604 526.292 462.449 526.542C472.294 526.792 477.232 512.661 482.257 516.409C487.281 520.156 510.676 539.922 515.141 542.308C519.605 544.693 524.526 546.484 525.784 549.076C527.042 551.668 519.159 551.186 516.955 551.149C514.751 551.111 510.557 554.945 511.014 559.642C511.47 564.34 516.943 574.721 523.778 577.887C530.613 581.054 537.154 583.264 539.731 580.05C541.45 577.908 542.131 575.135 541.775 571.733L548.573 572.708C551.402 573.073 560.91 567.959 563.12 567.759C565.33 567.559 576.994 567.679 580.646 568.171C583.69 568.581 585.502 569.952 587.788 569.694L588.142 569.606C582.867 566.407 577.296 561.219 574.399 559.244L573.445 558.663C571.09 557.486 563.816 551.361 556.233 543.741L552.437 539.822C543.614 530.471 439.481 415.979 427.465 410.267Z" fill="#9998A7"/>
<path d="M390.86 453.367C385.142 453.092 377.475 444.392 379.69 438.657C381.904 432.922 399.702 429.168 404.991 429.447C410.28 429.726 414.341 431.922 408.48 438.786C402.62 445.65 396.579 453.642 390.86 453.367Z" fill="#A3857C"/>
<path d="M403.331 435.027C396.658 436.133 387.011 437.139 385.611 440.056C384.211 442.972 386.313 446.203 391.446 446.585C396.581 446.968 405.691 432.664 409.243 432.477C412.793 432.287 422.728 433.635 420.138 438.966C417.551 444.297 392.875 457.557 390.377 458.645C387.881 459.732 374.119 451.905 374.015 447.058C373.911 442.21 369.851 432.389 380.061 430.296C390.271 428.2 410.001 433.921 403.331 435.027Z" fill="#967D73"/>
<path d="M425.576 503.263C423.915 501.782 416.795 494.643 410.718 487.376C409.528 485.954 413.455 483.329 410.678 480.118C407.901 476.908 404.989 480.248 404.208 479.073C403.47 477.962 403.389 478.141 402.9 477.189C402.583 476.639 404.552 474.841 403.766 472.51C402.981 470.181 401.598 469.429 401.656 468.631C402.062 463.15 410.518 460.034 413.072 458.578C416.039 456.886 428.209 457.336 432.898 461.752C437.588 466.169 446.987 476.775 441.925 478.085C436.863 479.395 431.019 479.466 427.351 487.056C423.682 494.645 428.644 506.003 425.576 503.263Z" fill="#BBBCC1"/>
<path d="M337.877 348.488C354.466 357.764 367.513 371.751 352.485 382.951C342.464 390.417 328.969 398.996 311.999 408.687L237.789 344.702C237.944 343.667 238.075 343.079 238.181 342.938C246.87 331.428 252.589 324.509 256.214 319.77C259.905 314.943 266.524 307.129 276.069 296.327C283.281 309.256 291.21 319.072 299.856 325.782C312.822 335.846 321.286 339.211 337.877 348.488Z" fill="#65656E"/>
<path d="M273.384 318.128C273.648 321.301 275.584 325.559 282.117 331.794C288.65 338.031 315.178 349.825 323.977 359.245C332.777 368.666 333.219 375.592 329.373 378.453C325.527 381.313 296.716 352.674 288.748 343.969C280.779 335.263 277.367 331.702 273.14 330.65C268.915 329.598 261.578 332.54 263.647 329.053C265.719 325.565 273.119 314.955 273.384 318.128Z" fill="#737378"/>
<path d="M276.067 296.327L270.69 302.45C265.665 308.214 261.693 312.904 258.776 316.516L244.643 334.496C242.698 337.001 240.548 339.798 238.179 342.938L238.064 343.227L237.787 344.702L311.997 408.687C319.232 404.556 325.838 400.625 331.809 396.898C331.607 392.486 330.394 388.205 329.38 388.463C327.705 388.89 323.199 386.049 322.011 384.776L299.112 358.545C289.537 347.629 280.086 336.984 277.752 334.832C274.236 331.586 271.426 331.486 268.934 331.999L260.98 333.971C257.887 334.694 254.664 335.409 253.795 335.492C252.483 335.617 266.407 322.801 271.744 315.191L272.592 313.906C277.086 306.562 279.713 312.614 281.365 316.037C283.017 319.46 310.064 343.871 329.059 355.887C343.781 365.199 342.121 382.326 340.131 391.571C344.729 388.536 348.835 385.674 352.481 382.957C367.511 371.757 354.464 357.771 337.873 348.494C321.284 339.217 312.818 335.853 299.852 325.788C291.21 319.074 283.281 309.256 276.067 296.327Z" fill="#504F51"/>
<path d="M411.147 561.778C427.74 560.897 442.433 553.529 445.883 547.729C449.333 541.929 449.623 534.294 444.806 529.282C439.99 524.269 394.804 474.769 387.773 465.101C380.744 455.432 372.874 443.956 375.209 437.062C377.544 430.169 389.135 429.529 398.852 429.754C408.568 429.979 422.624 428.713 429.178 429.375C435.732 430.038 427.974 385.9 426.124 375.19C424.276 364.48 423.476 357.678 402.833 348.949C382.192 340.22 360.489 338.191 348.891 334.194C337.296 330.194 319.569 323.363 320.54 314.311C321.511 305.261 322.53 290.922 320.363 280.342C318.197 269.761 314.374 266.4 310.666 264.344C306.958 262.288 304.778 262.061 304.022 262.905C303.266 263.748 302.076 264.382 302.064 265.207C302.051 266.032 302.781 268.432 302.383 269.829C301.985 271.227 291.814 281.675 287.752 285.391C283.69 289.106 273.813 294.924 272.617 296.02C271.421 297.116 268.507 300.059 269.486 301.082C270.465 302.105 272.865 302.603 273.54 304.438C274.215 306.274 273.957 316.538 279.169 324.933C284.381 333.327 320.961 349.814 329.042 354.076C337.123 358.336 345.066 366.428 343.091 375.673C341.117 384.919 322.367 388.685 312.33 391.477C302.293 394.268 257.391 415.419 256.687 421.14C255.982 426.861 314.203 490.875 337.023 510.149C359.843 529.423 394.554 562.661 411.147 561.778Z" fill="#BAB3DD"/>
<path d="M409.441 559.973C426.034 559.092 438.804 552.48 442.254 546.68C445.704 540.88 445.587 534.428 440.771 529.416C435.954 524.404 390.7 475.595 383.669 465.927C376.64 456.259 369.857 443.13 372.192 436.234C374.528 429.341 385.16 427.306 394.875 427.529C404.589 427.751 421.665 427.314 428.217 427.976C434.769 428.639 427.971 385.897 426.121 375.187C424.273 364.477 423.473 357.675 402.831 348.946C382.19 340.217 360.486 338.188 348.889 334.191C337.294 330.191 319.567 323.36 320.538 314.308C321.509 305.258 322.528 290.919 320.361 280.339C318.194 269.758 314.372 266.397 310.663 264.341C306.955 262.285 304.776 262.058 304.02 262.902C303.264 263.745 302.074 264.379 302.062 265.204C302.049 266.029 302.778 268.429 302.38 269.826C301.982 271.224 291.812 281.672 287.75 285.388C283.687 289.103 273.811 294.921 272.615 296.017C271.419 297.113 269.669 298.642 270.648 299.665C271.627 300.688 274.027 301.186 274.702 303.021C275.377 304.856 275.119 315.121 280.331 323.516C285.544 331.909 322.123 348.396 330.204 352.659C338.285 356.921 346.229 365.01 344.254 374.256C342.279 383.501 324.594 388.259 314.557 391.053C304.52 393.844 258.453 416.41 257.749 422.131C257.045 427.851 314.201 490.872 337.021 510.146C359.841 529.42 392.848 560.854 409.441 559.973Z" fill="#7756D3"/>
<path d="M429.917 537.809C428.892 548.157 413.395 548.796 406.222 551.99C402.449 553.671 396.468 554.227 391.25 553.515C398.285 557.706 404.572 560.231 409.443 559.973C426.036 559.092 438.806 552.48 442.256 546.68C445.706 540.88 445.589 534.428 440.773 529.416L424.125 511.502C419.303 506.263 413.943 500.409 408.722 494.655C421.499 512.827 430.579 531.112 429.917 537.809ZM273.94 410.212L276.892 406.75C270.902 413.681 265.317 420.424 260.14 426.98C270.777 442.742 313.784 489.697 334.71 508.15L337.023 510.15C349.831 520.968 365.847 535.616 380.367 546.23L379.163 542.165C374.35 525.133 363.505 480.447 355.809 466.32C349.81 455.31 324.034 435.778 278.477 407.725C276.911 408.558 275.398 409.391 273.94 410.212ZM403.61 349.279L404.103 350.086C413.401 365.593 404.943 372.358 398.362 377.828C390.573 384.305 390.083 403.029 364.276 409.537L361.634 410.483C342.327 416.362 361.457 441.594 381.64 463.023C375.413 453.767 370.088 442.457 372.196 436.232C374.365 429.83 383.688 427.618 392.787 427.514L400.801 427.593C410.457 427.626 422.861 427.432 428.223 427.974C434.29 428.589 428.911 391.988 426.613 378.061L425.592 372.122C423.946 363.243 421.507 356.994 403.61 349.279Z" fill="#7152CB"/>
<path d="M354.183 406.053C331.492 410.738 321.119 424.315 336.213 447.914C345.56 462.526 380.571 489.881 441.248 529.975L418.488 505.366C405.081 490.731 389.742 473.728 384.567 467.107L383.671 465.926C376.642 456.257 369.859 443.129 372.195 436.233C374.363 429.831 383.686 427.619 392.785 427.515L400.8 427.594C410.455 427.627 422.859 427.434 428.221 427.975C431.253 428.281 429.28 404.866 428.407 394.06C415.12 400.899 403.491 404.426 393.521 404.643C378.563 404.966 364.755 403.87 354.183 406.053ZM408.466 368.444L404.118 368.065C386.442 366.94 358.322 369.575 358.864 376.363C359.345 382.398 406.018 385.219 428.396 389.6L426.638 378.24L425.459 371.444C418.328 369.838 412.364 368.89 408.466 368.444Z" fill="#674DC5"/>
<path d="M313.192 266.06C306.251 274.995 301.68 281.778 299.483 286.411L295.579 295.858C291.385 306.483 286.883 320.68 293.227 327.811C301.383 336.98 320.23 342.411 334.523 349.394C348.816 356.377 361.234 365.36 372.359 365.635C383.481 365.912 393.116 364.822 402.339 365.195C407.149 365.389 415.307 370.11 426.809 379.355L425.582 372.087C423.919 363.099 421.413 356.804 402.835 348.948C382.194 340.219 360.491 338.19 348.893 334.192L342.7 331.959C331.908 327.853 319.734 321.853 320.542 314.31C321.513 305.26 322.532 290.921 320.365 280.34C318.74 272.403 316.184 268.53 313.442 266.222L313.192 266.06Z" fill="#DFA76D"/>
<path d="M318.473 273.727C313.905 272.8 310.59 273.777 309.076 277.32C299.395 299.963 299.222 312.096 307.238 326.298C314.809 339.712 336.121 343.407 355.537 350.682L358.941 352.005C379.206 360.202 399.972 359.548 406.478 362.284C410.42 363.942 416.38 368.796 424.355 376.846L426.809 379.356L425.582 372.087L424.975 369.185C423.163 361.682 419.349 355.932 402.835 348.949C382.194 340.22 360.491 338.191 348.893 334.193L342.7 331.96L338.616 330.333C329.069 326.331 319.836 320.91 320.542 314.313C321.513 305.263 322.532 290.924 320.365 280.343C320.005 278.579 319.596 277.016 319.153 275.627L318.473 273.727Z" fill="#F4C782"/>
<path d="M304.024 262.903C303.268 263.746 302.078 264.38 302.066 265.205C302.055 265.823 302.464 267.328 302.501 268.632L301.951 270.742L304.066 274.973C306.364 279.771 307.199 284.673 306.009 291.775C304.628 300.018 305.518 309.449 312.305 319.59C319.092 329.731 329.567 335.944 348.068 341.387C355.062 343.227 363.068 345.422 372.086 347.97C385.613 351.793 393.218 354.312 400.102 357.001C409.741 360.766 414.866 365.563 420.159 370.632C421.438 371.857 423.998 370.917 425.263 370.557L424.582 367.751C422.615 360.93 418.28 355.478 402.833 348.947C382.192 340.218 360.489 338.189 348.891 334.192L342.698 331.958C331.906 327.852 319.732 321.852 320.54 314.309C321.511 305.259 322.53 290.92 320.363 280.34C318.196 269.759 314.374 266.398 310.666 264.342C306.961 262.286 304.78 262.059 304.024 262.903Z" fill="#9F4C0B"/>
<path d="M304.024 262.903C303.268 263.746 302.078 264.38 302.066 265.205C302.055 265.823 302.464 267.328 302.501 268.632L302.385 269.827L304.499 274.059C306.797 278.856 308.345 283.383 307.441 289.873C306.28 298.216 306.339 309.522 314.313 319.665C321.79 329.173 330.336 334.812 348.837 340.256L369.93 346.129C383.456 349.951 394.593 353.33 401.479 356.02C411.118 359.784 416.018 364.301 421.311 369.369C422.59 370.594 423.996 370.915 425.261 370.557L424.58 367.751C422.613 360.93 418.278 355.478 402.831 348.947C382.19 340.218 360.486 338.189 348.889 334.192L342.696 331.958C331.904 327.852 319.73 321.852 320.538 314.309C321.509 305.259 322.528 290.92 320.361 280.34C318.194 269.759 314.372 266.398 310.663 264.342C306.962 262.286 304.78 262.059 304.024 262.903Z" fill="#FBD47F"/>
<path d="M304.024 262.902C303.268 263.746 302.078 264.379 302.066 265.204C302.056 265.823 302.464 267.327 302.501 268.631L302.385 269.827L304.499 274.058C306.797 278.855 308.345 283.382 307.441 289.872C306.28 298.215 306.339 309.521 314.313 319.664C321.79 329.172 330.336 334.812 348.837 340.255L369.93 346.128L378.573 348.609C388.196 351.419 396.125 353.927 401.479 356.019C411.118 359.783 416.018 364.3 421.311 369.368C421.792 369.831 422.292 370.164 422.797 370.381C420.749 366.494 416.886 360.673 409.585 356.919C398.812 351.38 375.738 344.224 359.155 340.468L355.453 339.663C338.792 336.216 326.182 329.335 319.322 323.204C312.461 317.073 308.955 304.017 308.814 298.146C308.67 292.276 313.426 284.816 309.645 276.143C306.701 269.393 305.991 264.987 307.203 262.775C305.547 262.264 304.503 262.371 304.024 262.902Z" fill="#F4AA5A"/>
<path d="M301.699 405.941L331.429 391.102C337.06 388.236 340.352 386.411 342.16 385.119C350.397 379.236 353.318 367.807 345.464 359.195C341.129 354.441 333.635 349.606 321.334 343.102L300.572 332.434L299.41 331.817C287.046 325.217 280.765 317.382 279.581 308.699L279.398 306.681C279.088 299.912 277.642 296.264 274.348 296.26C273.53 296.258 272.863 296.923 272.861 297.741C272.861 298.356 273.234 298.885 273.765 299.11L274.342 299.227C275.257 299.229 276.192 301.583 276.432 306.814C276.919 317.439 283.831 326.865 298.01 334.434L316.492 343.921C330.55 351.189 338.864 356.364 343.268 361.193C349.768 368.32 347.358 377.753 340.433 382.701C338.819 383.855 335.712 385.578 330.465 388.257L302.741 402.079L290.071 408.625C272.259 418.078 266.567 435.894 271.011 447.194C273.563 453.681 366.084 539.08 377.365 545.321C384.904 549.492 394.408 554.229 406.966 559.598L423.799 553.969C429.671 551.958 433.406 550.6 435.027 549.886C441.558 547.004 444.908 536.851 438.492 530.518L432.09 523.901C416.728 507.693 384.081 471.934 378.065 464.166C368.478 451.789 364.155 441.413 366.767 434.761C370.48 425.301 374.898 422.282 388.877 422.391L398.916 422.572C408.743 422.832 420.98 423.359 435.621 424.149C445.383 424.676 440.475 422.368 420.899 417.224C408.03 416.63 397.318 416.766 389.223 416.608C373.088 416.295 365.14 420.428 361.343 432.507C358.759 440.723 360.905 453.51 371.884 466.551L378.007 468.785C389.542 482.488 428.009 524.337 436.404 532.626C441.16 537.321 438.61 545.054 433.827 547.165L431.192 548.211C426.888 549.831 418.67 552.702 407.124 556.835L397.827 552.452C390.479 548.915 384.138 545.671 378.8 542.719C368.065 536.782 276.019 451.821 273.771 446.102C269.861 436.157 275.034 419.96 291.46 411.241L294.431 409.677C296.743 408.479 299.151 407.237 301.699 405.941Z" fill="#5A37B5"/>
<path d="M420.903 417.23C408.035 416.637 397.322 416.772 389.227 416.614C373.092 416.301 365.145 420.434 361.347 432.513C358.764 440.729 360.909 453.516 371.888 466.558L378.011 468.791L383.358 474.982C385 476.851 385.869 477.707 387.821 479.895C388.037 480.224 384.177 485.526 387.383 487.878C390.589 490.23 393.054 485.892 393.441 486.248C394.035 486.988 394.571 487.563 395.718 488.834C396.039 489.292 391.806 493.161 394.823 496.438C397.839 499.715 401.301 494.921 402.143 495.846C408.262 502.575 413.493 508.316 419.215 514.487C427.548 521.818 435.329 528.995 441.344 535.099C440.831 533.463 439.898 531.901 438.498 530.52L432.096 523.903L413.478 503.896C398.568 487.675 382.163 469.451 378.071 464.168C368.484 451.791 364.161 441.415 366.774 434.763C370.486 425.303 374.905 422.284 388.883 422.393L398.922 422.574L406.745 422.82C412.261 423.016 418.378 423.28 425.098 423.609L435.629 424.153C445.385 424.684 440.479 422.376 420.903 417.23Z" fill="#4A27A6"/>
<path d="M407.668 481.543L407.089 481.406C404.947 481.139 399.156 487.439 397.183 490.326C395.21 493.211 395.066 494.49 396.471 495.501C397.875 496.511 399.695 494.513 400.56 492.805C401.427 491.097 405.395 487.393 406.316 486.668C407.237 485.943 408.16 485.98 408.697 484.972C409.237 483.964 409.226 481.672 407.087 481.406L407.668 481.543ZM399.927 472.625L399.348 472.487C397.206 472.221 391.414 478.52 389.442 481.408C387.469 484.293 387.325 485.572 388.729 486.582C390.133 487.593 391.954 485.595 392.819 483.887C393.685 482.178 397.654 478.474 398.575 477.75C399.495 477.025 400.418 477.062 400.956 476.054C401.495 475.045 401.485 472.754 399.345 472.487L399.927 472.625Z" fill="#9053DC"/>
<path d="M407.878 481.632L407.087 481.403C406.043 481.274 404.131 482.705 402.218 484.541L404.341 488.457L405.847 487.059C406.043 486.889 406.201 486.753 406.316 486.664C407.237 485.939 408.16 485.976 408.697 484.968C409.082 484.247 409.187 482.872 408.437 482.049L407.878 481.632ZM400.501 472.12L399.712 471.875C398.849 471.768 397.335 472.825 395.706 474.314C396.552 475.445 397.404 476.668 398.264 477.981L398.574 477.747C399.495 477.022 400.733 476.758 401.272 475.749C401.658 475.029 401.789 473.495 401.054 472.581L400.501 472.12Z" fill="#8343D1"/>
<path d="M390.556 465.304C387.444 465.879 384.14 465.358 381.1 463.187C378.061 461.016 373.038 455.35 370.442 449.829C367.847 444.309 367.684 442.236 367.37 439.011C367.055 435.786 372.321 426.732 377.044 425.147C381.767 423.562 376.125 426.743 374.209 431.976C372.294 437.209 373.38 447.492 376.94 452.644C380.498 457.796 393.666 464.729 390.556 465.304Z" fill="#8A532D"/>
<path d="M386.19 465.211C383.877 464.709 378.453 460.149 374.773 454.814C371.094 449.479 368.099 441.177 368.12 438.431C368.14 435.685 372.392 425.625 380.036 424.028C387.679 422.43 413.272 423.69 417.849 424.252C420.899 424.627 423.149 424.921 424.599 425.132C413.774 430.786 407.71 433.794 406.41 434.156C404.458 434.702 398.643 434.96 393.906 435.26C389.169 435.56 382.513 434.51 381.019 437.698C379.525 440.885 380.586 442.233 381.471 444.02C382.357 445.808 385.798 451.066 388.231 452.124C390.665 453.185 393.958 451.953 396.775 449.654C399.591 447.354 402.572 442.977 406.851 441.169C409.703 439.962 411.928 438.812 413.522 437.719L430.359 425.817L445.196 448.245C435.394 450.318 429.173 451.318 426.534 451.247C422.576 451.141 420.315 450.631 418.686 451.074C417.057 451.518 410.855 452.439 410.099 453.653C409.343 454.868 408.683 456.374 407.697 457.01C406.712 457.645 399.814 461.42 395.562 463.72C391.315 466.02 388.502 465.713 386.19 465.211Z" fill="#C28D59"/>
<path d="M445.196 448.245L430.359 425.817L413.522 437.718C413.247 437.906 412.953 438.098 412.643 438.289C421.409 440.452 427.136 442.752 429.815 445.189C431.763 446.96 431.927 448.889 430.309 450.976C433.159 450.61 437.219 449.889 442.471 448.814L445.196 448.245ZM424.599 425.131L417.849 424.252C415.703 423.988 408.941 423.571 401.575 423.369C403.789 427.229 404.593 429.721 404.001 430.844C403.379 432.025 402.243 433.358 400.597 434.839L403.435 434.61C404.722 434.483 405.772 434.335 406.412 434.158L407.46 433.756C409.864 432.717 415.578 429.842 424.599 425.131Z" fill="#BD7E59"/>
<path d="M424.567 449.412C428.438 448.568 429.911 447.293 427.04 447.112C424.169 446.931 413.62 450.229 412.097 450.866C410.574 451.504 406.178 454.947 402.495 457.533L401.26 458.437C398.037 460.924 392.125 464.599 387.238 463.443C382.35 462.287 378.292 457.493 375.786 453.568C373.28 449.641 368.553 441.621 369.942 435.4C370.549 432.69 372.376 429.017 375.615 426.073C370.774 429.577 368.136 436.269 368.12 438.431C368.099 441.179 371.096 449.479 374.773 454.814C378.45 460.149 383.875 464.709 386.19 465.211C388.502 465.713 391.317 466.02 395.566 463.72L407.701 457.01C408.195 456.691 408.605 456.155 408.987 455.549L410.101 453.654C410.857 452.439 417.057 451.518 418.688 451.074C419.436 450.87 420.317 450.868 421.434 450.935L423.253 449.925C423.776 449.664 424.215 449.489 424.567 449.412Z" fill="#E1AE86"/>
<path d="M403.67 443.085C400.987 445.173 399.004 447.504 396.941 449.189C394.125 451.489 390.852 452.335 388.419 451.275C386.29 450.347 383.515 447.043 382.229 444.827L381.784 444.008C380.898 442.221 380.452 439.544 381.017 437.7C381.177 437.175 381.602 436.817 382.054 436.504C380.613 437.098 379.523 438.221 379.284 439.369C378.711 442.117 379.886 445.223 384.025 450.006C388.165 454.789 391.739 453.804 395.231 451.781C396.629 450.97 398.079 449.533 399.506 447.939L403.67 443.085ZM415.634 451.71L418.688 451.072C420.317 450.629 422.578 451.139 426.536 451.245C428.646 451.302 433.05 450.672 439.746 449.358L445.198 448.243L442.583 444.339L430.807 447.9C429.64 448.329 422.934 448.948 420.009 449.733C418.818 450.054 417.266 450.768 415.634 451.71Z" fill="#925728"/>
<path d="M435.178 300.248C436.917 299.379 440.438 300.127 443.302 302.7C446.167 305.272 460.822 334.244 463.193 337.277C463.762 338.19 464.143 338.984 464.337 339.661C465.899 340.238 467.116 341.738 467.987 344.16C469.293 347.796 480.469 367.932 482.121 372.809C483.773 377.686 491.067 392.602 491.565 393.985C492.063 395.369 505.148 421.432 507.833 428.553C510.516 435.673 510.674 438.971 511.799 441.886C512.924 444.8 516.864 451.317 518.145 453.821C519.424 456.323 525.059 458.818 525.974 461.135C526.888 463.451 528.728 465.178 530.872 468.076C533.015 470.974 539.817 482.892 541.892 487.04C543.967 491.188 547.483 500.348 550.723 506.841C553.96 513.335 555.358 513.695 557.902 519.966C560.445 526.239 562.818 533.447 563.249 535.565C563.681 537.684 567.024 542.415 568.891 546.004C570.758 549.594 571.018 553.192 574.568 555.96C578.118 558.729 580.022 563.004 574.341 563.002C568.66 563 536.328 550.665 527.39 545.646C518.453 540.625 508.883 530.243 501.592 525.449C494.3 520.655 481.992 511.05 475.209 504.706C468.426 498.363 451.575 477.057 443.329 465.037C435.084 453.016 427.126 438.627 426.432 436.582C425.97 435.219 427.299 431.392 430.417 425.101C421.384 423.761 416.584 422.795 416.022 422.203C415.178 421.316 396.873 390.296 395.537 387.269C394.202 384.242 394.315 378.767 403.6 373.078C412.885 367.389 432.371 346.789 434.75 334.117C437.13 321.443 432.019 308.797 431.851 306.985C431.684 305.172 433.438 301.114 435.178 300.248Z" fill="#A089E5"/>
<path d="M435.177 300.248C436.917 299.379 440.438 300.127 443.302 302.7C446.166 305.272 460.822 334.244 463.193 337.277C463.762 338.19 464.143 338.984 464.337 339.661C465.899 340.238 467.116 341.738 467.986 344.16C469.293 347.796 480.469 367.932 482.121 372.809C483.773 377.686 491.067 392.602 491.565 393.985C492.063 395.369 505.147 421.432 507.833 428.553C510.516 435.673 510.674 438.971 511.799 441.886C512.924 444.8 516.864 451.317 518.145 453.821C519.424 456.323 525.059 458.818 525.974 461.135C526.888 463.451 528.728 465.178 530.871 468.076C533.015 470.974 539.817 482.892 541.892 487.04C543.967 491.188 547.483 500.348 550.723 506.841C553.96 513.335 555.358 513.695 557.902 519.966C560.445 526.239 562.818 533.447 563.249 535.565C563.681 537.684 567.024 542.415 568.891 546.004C570.757 549.594 571.018 553.192 574.568 555.96C578.117 558.729 581.492 561.816 575.811 561.814C570.13 561.812 537.379 549.092 528.442 544.071C519.505 539.051 509.935 528.668 502.643 523.874C495.352 519.08 483.044 509.475 476.261 503.131C469.478 496.788 452.627 475.482 444.381 463.462C436.136 451.442 428.736 437.896 428.042 435.853C427.58 434.49 428.909 430.663 432.027 424.372C422.686 422.993 417.734 422.009 417.172 421.418C416.328 420.53 399.166 389.986 397.829 386.959C396.493 383.932 397.548 379.432 406.833 373.743C416.118 368.053 433.313 347.766 435.694 335.092C438.075 322.417 433.038 307.174 432.869 305.362C432.702 303.549 433.438 301.114 435.177 300.248Z" fill="#AA7EF7"/>
<path d="M435.684 335.148C433.415 347.033 418.193 365.562 408.66 372.512L406.835 373.743C397.55 379.432 396.496 383.932 397.831 386.959L398.741 388.763C402.599 396.088 416.418 420.624 417.174 421.418C417.736 422.01 422.688 422.993 432.029 424.372C428.911 430.661 427.582 434.488 428.044 435.853L428.607 437.134C430.6 441.261 437.169 452.944 444.383 463.464C452.629 475.484 469.48 496.79 476.263 503.133C483.046 509.477 495.354 519.083 502.645 523.876C509.937 528.67 519.507 539.055 528.444 544.073C533.5 546.915 546.183 552.221 557.27 556.294C556.252 553.158 557.183 549.055 554.075 546.915L552.439 545.921C538.55 538.517 540.173 516.335 530.571 504.904C520.97 493.473 515.741 484.174 514.264 477.568C512.787 470.962 514.443 465.999 510.991 453.981L498.398 436.859C489.596 424.73 483.848 416.364 481.159 411.762C475.44 401.985 468.811 372.882 462.582 372.32C456.354 371.757 449.175 369.193 447.637 362.764C447.01 360.145 444.839 354.964 441.912 348.519L435.684 335.148Z" fill="#8459EB"/>
<path d="M408.66 372.511L406.835 373.742C397.55 379.431 396.496 383.931 397.831 386.958L398.741 388.762L407.193 404.112C411.92 412.541 416.736 420.957 417.172 421.417C417.734 422.009 422.686 422.992 432.027 424.371C428.909 430.661 427.58 434.488 428.042 435.852L428.605 437.133L429.836 439.544C432.382 444.348 437.275 452.831 442.729 461.02L444.381 463.464C452.627 475.484 469.478 496.789 476.261 503.133C483.044 509.476 495.352 519.082 502.643 523.876C509.935 528.669 519.505 539.054 528.442 544.073C533.498 546.914 546.181 552.22 557.268 556.293C556.25 553.158 554.131 550.154 551.025 548.014L549.389 547.021C547.142 545.823 545.14 544.344 543.321 542.662L530.242 534.394C525.972 531.655 522.853 529.594 520.889 528.211C511.416 521.534 474.874 475.382 467.884 459.012C460.897 442.644 480.026 444.166 476.759 434.411C473.492 424.655 451.162 408.382 446.289 400.831L443.912 396.941C439.275 389.11 430.594 373.557 422.817 358.32C418.059 364.245 412.818 369.48 408.66 372.511Z" fill="#784DDE"/>
<path d="M538.481 494.391C537.277 495.591 536.282 497.874 535.496 501.243L535.05 503.393C533.911 509.549 531.713 517.505 531.367 521.021L531.325 522.021C531.44 524.746 530.69 527.438 530.003 528.556C529.315 529.677 528.576 535.412 528.294 537.454C528.107 538.814 527.965 540.523 527.865 542.577L528.846 538.264C529.115 536.964 529.328 535.8 529.482 534.771L529.671 533.331C529.88 531.421 529.996 530.917 530.342 530.542L531.648 529.381C532.961 528.036 533.907 527.556 533.752 528.459L533.086 530.508C532.313 533.035 531.253 537.225 531.915 536.45L532.725 535.323C533.438 534.252 534.492 532.538 535.89 530.183C537.465 527.838 538.248 526.271 538.242 525.486L537.744 519.655C537.459 515.492 537.342 510.14 538.408 507.082L541.713 497.783L538.481 494.391Z" fill="#4433A5"/>
<path d="M507.487 450.312C501.464 446.687 493.954 448.576 482.313 447.922C471.54 447.316 448.445 451.549 438.619 454.666C440.446 457.553 442.391 460.551 444.385 463.459C452.081 474.679 467.274 493.987 474.78 501.668L476.265 503.128C476.582 503.424 476.909 503.726 477.248 504.037C483.779 507.647 488.529 509.082 491.546 508.368C496.641 507.161 512.724 496.272 519.043 493.593C525.361 490.914 540.263 488.85 540.358 488.891L534.684 481.329C534.256 480.767 533.807 480.173 533.332 479.546L518.622 483.044C508.228 485.456 494.05 492.304 491.083 493.252C488.117 494.2 482.088 482.817 480.663 478.038C479.348 473.625 485.66 470.023 493.133 466.321L495.021 465.394C502.358 461.809 506.833 460.153 511.909 460.009L513.847 460.026C519.788 460.28 513.507 453.937 507.487 450.312Z" fill="#694ABE"/>
<path d="M561.943 532.311C559.137 532.673 555.27 532.448 555.452 533.259C555.635 534.067 555.862 535.211 556.229 535.982C556.595 536.752 562.066 539.088 565.187 540.465L565.849 540.767C564.589 538.661 563.482 536.721 563.247 535.563C563.114 534.907 562.791 533.757 562.337 532.298C562.191 532.284 562.066 532.296 561.943 532.311ZM488.488 466.77C486.473 465.784 481.732 465.295 479.559 465.309C477.386 465.322 477.311 466.161 477.303 467.632C477.294 469.105 479.438 469.59 480.173 469.736C480.909 469.882 485.565 470.545 486.442 470.859C487.319 471.174 488.521 472.595 488.227 472.751C487.933 472.907 486.581 472.649 485.336 473.072C484.09 473.494 484.956 476.255 485.546 476.811C486.136 477.367 491.05 477.48 493.346 477.676C495.641 477.871 495.804 479.321 494.437 479.011C493.071 478.701 492.139 480.253 491.833 480.698C491.525 481.144 491.771 483.521 492.904 483.688C494.037 483.857 501.51 485.309 502.141 485.436C502.772 485.563 502.785 486.436 501.156 486.05C499.527 485.665 499.608 487.704 499.518 488.658C499.431 489.611 505.133 490.763 506.337 490.906C507.389 491.033 507.991 491.427 507.531 492.554L506.993 493.625C506.324 495.133 506.156 497.077 506.791 497.408C507.505 497.779 514.43 499.923 516.416 500.325C518.401 500.727 518.757 497.012 517.541 496.512C516.324 496.012 509.601 493.419 508.835 493.319C508.068 493.221 509.237 492.542 510.066 492.294C510.895 492.046 511.48 491.102 511.32 489.725C511.16 488.348 507.056 486.584 505.453 486.352C503.854 486.121 503.681 486.079 504.351 484.609C505.02 483.138 503.574 481.29 502.31 480.811C501.045 480.332 497.175 479.961 496.468 479.58C495.762 479.198 495.875 477.861 496.633 476.955C497.391 476.049 496.741 473.603 495.95 473.509C495.158 473.415 490.925 472.728 489.85 472.563C488.777 472.399 488.219 471.261 487.927 470.951C487.638 470.64 489.171 470.938 489.642 469.913C490.117 468.891 490.502 467.755 488.488 466.77ZM472.351 457.339C471.332 457.606 470.722 460.741 471.807 461.266C472.892 461.789 480.565 464.18 482.423 463.564C484.279 462.947 484.034 460.843 482.965 460.072C481.894 459.301 473.367 457.072 472.351 457.339ZM466.024 449.195C465.005 449.462 464.395 452.597 465.48 453.122C466.565 453.647 474.238 456.037 476.096 455.42C477.953 454.804 477.707 452.699 476.638 451.929C475.567 451.158 467.043 448.929 466.024 449.195ZM461.243 441.629C459.941 441.856 459.051 444.869 460.57 445.458C462.089 446.048 468.655 447.473 470.511 446.854C472.367 446.237 472.121 444.133 471.053 443.362C469.984 442.594 462.545 441.402 461.243 441.629ZM456.189 433.961C454.887 434.188 453.997 437.2 455.516 437.79C457.035 438.379 463.418 439.844 465.276 439.227C467.132 438.61 466.886 436.506 465.818 435.736C464.747 434.965 457.491 433.734 456.189 433.961ZM450.933 425.838C449.631 426.065 448.741 429.078 450.26 429.667C451.779 430.257 458.162 431.721 460.02 431.105C461.878 430.488 461.63 428.384 460.562 427.613C459.491 426.842 452.235 425.611 450.933 425.838Z" fill="#2B2D2E"/>
<path d="M443.302 302.7C440.438 300.127 436.917 299.379 435.177 300.248C433.438 301.116 432.7 303.552 432.869 305.364L433.167 306.768C434.248 311.197 437.756 324.109 435.694 335.094C433.463 346.977 418.209 365.549 408.662 372.511L406.835 373.745C401.993 376.711 399.389 379.355 398.196 381.634C398.202 385.323 399.279 389.221 400.027 391.198L400.727 392.45L400.702 392.148C400.243 389.409 404.258 385.559 408.753 380.394C413.249 375.23 431.855 360.366 438.431 344.246C445.01 328.126 441.304 316.624 439.183 311.224C437.065 305.824 439.525 304.624 440.783 303.325C441.169 302.925 442.46 303.158 444.083 303.668L443.925 303.418L443.302 302.7Z" fill="#FFD895"/>
<path d="M408.662 372.509L406.835 373.742C401.993 376.709 399.389 379.353 398.195 381.632C398.202 385.321 399.279 389.219 400.027 391.196L400.727 392.448L400.702 392.146C400.243 389.406 404.258 385.557 408.753 380.392L410.757 378.305C415.68 373.447 425.653 364.637 432.744 354.435C433.415 350.158 433.594 345.723 433.588 341.423C428.596 352.774 416.638 366.693 408.662 372.509Z" fill="#FFCA6F"/>
<path d="M458.522 341.003C457.641 342.847 460.693 349.644 461.897 352.921C463.103 356.198 465.453 364.754 463.762 367.646C462.07 370.537 450.327 381.887 449.058 384.92C447.789 387.955 450.183 394.474 451.745 397.651C453.308 400.826 456.926 406.777 459.274 408.002L472.807 414.054C474.913 415.027 476.64 415.881 477.407 416.402C479.828 418.048 492.61 441.024 501.825 451.484L508.216 458.269C515.289 465.973 521.063 473.283 524.157 477.437L530.794 486.901C534.011 491.47 537.527 496.201 540.344 498.759C543.862 501.955 550.406 509.14 554.456 513.319L553.137 511.227C552.435 510.08 551.654 508.717 550.718 506.84C547.481 500.347 543.965 491.187 541.888 487.039L540.15 483.751C537.277 478.485 532.582 470.394 530.867 468.075L527.957 464.386C527.115 463.302 526.426 462.29 525.969 461.132C525.055 458.815 519.42 456.319 518.141 453.817C516.861 451.315 512.92 444.797 511.795 441.882C510.67 438.968 510.514 435.67 507.828 428.549L506.581 425.535C502.393 415.942 492.004 395.213 491.56 393.982L484.881 379.472C484.275 378.114 483.711 376.824 483.234 375.683L482.117 372.806C480.584 368.277 470.836 350.59 468.407 345.176L467.984 344.155C467.113 341.732 465.897 340.232 464.334 339.655L464.064 338.907C460.766 339.482 458.92 340.174 458.522 341.003Z" fill="#EDEBF0"/>
<path d="M458.522 341.003C457.641 342.846 460.693 349.644 461.899 352.921C463.105 356.198 465.455 364.754 463.764 367.645C462.072 370.537 450.329 381.886 449.06 384.92C447.791 387.955 450.185 394.473 451.747 397.65C453.31 400.825 456.928 406.777 459.276 408.002L472.809 414.054C474.915 415.027 476.642 415.881 477.409 416.402C479.83 418.048 492.612 441.024 501.827 451.484L508.218 458.269C515.291 465.973 521.065 473.283 524.159 477.437L530.796 486.901C534.013 491.47 537.529 496.201 540.346 498.759C541.815 500.094 543.81 502.123 545.933 504.34C545.352 502.167 544.587 500.053 543.642 497.992C539.24 488.42 529.544 475.412 522.065 468.746L519.897 466.946C512.787 461.529 503.237 445.346 499.718 435.52L499.016 433.372C496.583 424.997 484.254 395.669 477.496 380.945L470.751 366.648C468.457 361.683 464.53 352.965 458.972 340.494C458.758 340.657 458.608 340.828 458.522 341.003Z" fill="#E9E5E9"/>
<path d="M463.524 368.009L463.764 367.647C462.072 370.54 450.329 381.888 449.06 384.921C447.791 387.956 450.185 394.475 451.747 397.652C453.31 400.827 456.929 406.779 459.276 408.003L472.809 414.055C474.915 415.028 476.642 415.882 477.409 416.403C479.83 418.049 492.613 441.025 501.827 451.485L508.218 458.27C515.291 465.974 521.066 473.284 524.159 477.438L530.796 486.902C531.519 487.929 532.257 488.963 532.998 489.979L535.278 488.611C535.632 488.417 535.971 488.244 536.294 488.096L537.732 487.554L535.25 483.99C533.338 482.969 531.053 481.959 529.761 481.276C527.424 480.038 523.363 472.422 520.516 467.43L519.897 466.945C513.339 461.947 504.704 447.787 500.641 437.909L499.331 436.55L498.114 435.175C493.771 429.984 487.856 417.13 484.28 410.189C482.315 406.379 482.778 400.075 483.563 394.616L480.194 386.929L477.582 389.077C476.244 390.098 474.894 390.96 473.692 391.304C469.586 392.475 469.397 387.519 468.307 384.421L467.949 383.554C467.197 382.038 465.722 376.857 463.524 368.009Z" fill="#CDCDCD"/>
<path d="M537.498 484.757C536.283 483.632 536.106 484.303 531.475 483.215C530.3 482.938 529.103 482.849 527.948 482.857L530.913 487.034L533.502 486.644C533.667 486.63 533.792 486.624 533.877 486.626C535.075 486.672 537.088 486.942 539.915 487.438C539.113 486.401 538.308 485.507 537.498 484.757ZM517.49 452.615C516.797 452.119 516.147 451.813 515.222 451.642C513.601 451.342 508.185 451.581 503.66 451.523L501.829 451.483L506.341 456.269L509.589 455.742C512.826 455.254 515.811 454.971 516.607 455.65L518.257 457.289C521.109 460.293 526.015 465.914 526.394 466.366C526.778 466.822 527.209 465.054 527.34 463.525L527.959 464.387C527.117 463.304 526.428 462.291 525.971 461.133C525.057 458.816 519.422 456.321 518.143 453.819L517.49 452.615ZM475.371 358.891C474.648 358.7 474.136 358.67 473.982 358.768C473.515 359.062 475.123 361.591 476.6 364.591L481.311 375.155C482.173 377.057 482.956 378.709 483.471 379.603C484.744 381.815 473.382 390.486 469.282 394.044L468.474 394.769C466.74 396.404 460.803 400.852 456.068 404.764C457.207 406.283 458.341 407.518 459.274 408.004L474.148 414.683C470.882 412.195 464.22 408.598 463.318 407.658C462.332 406.633 465.178 405.104 467.367 403.073L468.253 402.171C469.709 400.512 475.784 395.9 486.473 388.334C488.765 395.336 490.31 398.817 491.114 398.777C491.489 398.758 491.946 397.513 492.394 395.794L484.883 379.476L483.236 375.686L482.119 372.809C481.677 371.503 480.55 369.101 479.115 366.216L475.371 358.891Z" fill="#908F91"/>
<path d="M577.263 562.12C576.651 559.237 578.101 557.106 579.605 556.396C581.109 555.685 585.636 556.5 589.115 560.002C592.592 563.504 592.394 566.845 591.086 568.685C589.777 570.524 586.686 570.033 584.588 569.049C582.488 568.066 577.878 565.004 577.263 562.12Z" fill="#242424"/>
<path d="M587.75 563.135C588.692 565.541 588.271 566.78 586.4 567.153C584.527 567.526 577.109 566.312 573.903 566.178C570.697 566.047 560.812 563.328 557.166 560.956C553.52 558.581 537.921 535.554 534.64 527.836C531.361 520.118 535.458 508.883 536.319 504.239C537.179 499.595 538.302 497.056 538.554 494.933C538.806 492.81 538.194 491.529 538.121 490.115C538.073 489.171 537.817 488.306 537.352 487.519C533.136 486.065 530.027 485.315 528.03 485.271C525.03 485.206 520.082 486.6 511.432 490.623C502.783 494.646 499.481 496.125 493.75 497.5C488.019 498.875 481.992 499.96 470.788 485.496C459.584 471.032 457.437 464.395 458.876 460.424C459.836 457.776 460.52 455.985 460.928 455.045C453.635 458.341 446.345 460.162 439.056 460.507C428.123 461.028 423.659 460.735 417.884 459.02C412.109 457.305 409.209 455.318 408.926 454.537C408.643 453.756 415.186 451.758 417.297 451.258C419.405 450.758 423.759 451.22 425.817 451.277C427.875 451.333 433.529 451.922 445.068 449.872C456.607 447.823 474.982 442.046 481.215 440.387C487.448 438.729 501.593 435.417 507.147 436.49C512.701 437.563 516.965 439.34 516.016 444.696C517.649 444.843 520.88 446.175 520.824 448.679C520.767 451.183 519.105 453.389 513.972 453.181C508.839 452.972 499.347 455.341 494.023 455.703C488.698 456.066 473.844 457.158 471.194 457.272C468.544 457.387 466.74 460.051 467.372 461.407C468.003 462.764 487.785 487.327 489.204 488.606C490.623 489.883 491.712 490.098 497.493 487.677C503.274 485.256 512.062 480.355 519.04 478.503C526.019 476.651 528.036 475.486 531.438 475.548C534.842 475.609 534.352 475.301 536.661 477.046C538.967 478.79 542.383 478.513 544.302 481.419C546.218 484.325 549.106 489.225 546.141 497.689C543.177 506.154 540.283 515.761 541.658 521.397C543.033 527.032 563.787 553.3 565.518 554.789C567.249 556.279 575.161 559.212 577.407 559.174C579.653 559.137 581.784 558.683 583.648 559.551C585.511 560.422 586.809 560.728 587.75 563.135Z" fill="#F0EDF4"/>
<path d="M511.947 444.927C494.829 446.329 484.177 447.342 479.994 447.969C473.719 448.908 493.337 443.954 500.279 443.898C504.906 443.858 508.795 444.202 511.947 444.927Z" fill="#D4D4D4"/>
<path d="M534.211 513.31C533.282 518.068 532.798 523.505 534.64 527.837C537.919 535.555 553.518 558.581 557.166 560.956C560.812 563.331 570.697 566.047 573.903 566.179C575.955 566.262 579.73 566.791 582.675 567.062L581.148 566.341C580.928 566.241 580.723 566.154 580.536 566.075C578.396 565.179 572.851 564.187 569.17 562.506C565.857 560.994 566.98 559.542 568.643 559.417L569.211 559.427C571.138 559.635 567.411 556.846 563.128 554.563C559.201 552.469 550.389 540.867 546.577 535.065L545.669 533.638C543.104 529.436 540.64 526.372 539.342 523.36L538.711 521.549C537.763 517.906 536.925 525.968 536.477 523.237L535.948 520.778C535.584 519.233 535.104 517.306 534.669 515.402L534.211 513.31ZM474.084 456.848L470.386 456.208C466.088 455.533 464.199 455.654 463.247 457.619L462.932 458.443C462.314 460.487 460.576 464.122 459.187 466.699C460.541 470.849 464.005 476.739 470.788 485.499C481.992 499.963 488.019 498.877 493.75 497.502C498.825 496.286 501.995 494.986 508.662 491.909C507.728 491.859 506.858 491.934 506.047 492.128L504.874 492.505C500.195 494.427 492.648 494.242 493.048 492.14C493.258 491.038 494.029 489.861 494.75 488.749C491.294 489.986 490.358 489.651 489.204 488.611C487.786 487.334 468.003 462.768 467.372 461.412C466.74 460.056 468.547 457.391 471.194 457.277L474.709 457.062C474.511 456.941 474.294 456.885 474.084 456.848ZM463.355 451.477C454.47 454.746 448.343 456.429 444.975 456.527C439.923 456.675 435.225 453.048 427.417 453.031C425.611 453.027 424.555 452.34 424.088 451.221C421.901 451.065 418.928 450.875 417.297 451.26L415.357 451.785C412.616 452.587 408.705 453.931 408.926 454.539C409.209 455.321 412.109 457.308 417.884 459.023C423.659 460.737 428.125 461.031 439.056 460.51C445.129 460.22 451.204 458.908 457.28 456.571L460.278 455.314L463.355 451.477Z" fill="#CCCDD8"/>
<path d="M399.864 446.616C399.27 443.547 399.418 441.027 400.31 439.056C401.647 436.098 402.472 432.983 408.797 429.656C415.122 426.327 426.644 421.263 431.192 418.067C435.74 414.871 457.587 397.564 463.734 392.858C469.882 388.152 479.644 381.194 481.744 377.975C483.144 375.829 483.529 374.425 482.902 373.759C484.917 371.586 486.804 370.904 488.565 371.711C491.204 372.921 492.477 376.104 492.014 377.569C491.552 379.033 490.104 381.687 484.911 386.754C479.717 391.82 462.655 404.841 453.062 413.342C443.468 421.844 431.321 428.679 424.265 431.915C417.209 435.15 409.284 440.039 406.889 441.225C405.289 442.014 402.947 443.812 399.864 446.616Z" fill="#E8E6E4"/>
<path d="M488.563 371.71C486.802 370.904 484.915 371.587 482.9 373.758C483.025 373.892 483.111 374.054 483.155 374.246L484.125 373.86C484.804 373.675 485.561 373.646 486.39 373.769C489.492 374.231 490.442 378.004 489.748 381.479C491.16 379.627 491.746 378.404 492.01 377.568C492.475 376.104 491.202 372.919 488.563 371.71Z" fill="#727272"/>
<path d="M423.849 426.631C419.857 428.096 413.935 429.336 413.053 427.515L408.797 429.654C402.473 432.983 401.648 436.098 400.31 439.054C399.418 441.025 399.271 443.545 399.864 446.614C402.331 444.37 404.322 442.772 405.837 441.816L415.787 436.244C417.805 435.133 419.976 433.979 422.126 432.925L424.263 431.91C427.072 430.623 430.684 428.767 434.621 426.461C430.315 426.827 427.513 425.286 423.849 426.631Z" fill="#DBD0D0"/>
<path d="M474.871 361.145C473.763 359.237 472.176 356.243 474.755 357.175C477.334 358.104 479.275 358.331 481.63 357.479C483.984 356.627 488.704 356.731 493.135 361.104C497.566 365.476 496.906 370.941 496.079 374.978C495.252 379.015 497.216 386.067 497.541 389.09C497.866 392.113 495.608 393.821 494.581 392.255C493.554 390.69 491.669 380.653 492.012 377.568C492.354 374.482 492.677 367.539 490.702 365.154C488.727 362.768 481.763 362.224 481.132 364.277C480.5 366.331 478.536 369.722 478.403 368.503C478.269 367.287 475.98 363.054 474.871 361.145Z" fill="#343434"/>
<path d="M518.588 569.378C524.515 575.417 532.682 578.567 535.473 579.402C538.265 580.238 543.444 577.242 544.621 571.063C545.798 564.884 541.983 557.655 538.498 554.389C535.013 551.122 529.063 546.912 523.901 547.702C518.738 548.491 513.649 551.12 512.153 554.241C510.655 557.364 512.659 563.339 518.588 569.378Z" fill="#6D5CCA"/>
<path d="M520.513 567.318C526.44 573.357 534.773 576.526 537.565 577.361C540.356 578.196 543.442 577.242 544.621 571.063C545.798 564.884 541.983 557.655 538.498 554.389C535.013 551.122 529.063 546.912 523.901 547.702C518.738 548.491 516.214 549.143 514.72 552.264C513.222 555.387 514.587 561.278 520.513 567.318Z" fill="#7B53E8"/>
<path d="M524.624 551.913C524.259 550.979 522.993 551.152 522.08 551.102C521.168 551.052 517.097 552.381 516.837 553.996C516.576 555.61 518.536 558.006 520.345 559.202C522.153 560.398 526.667 561.418 527.38 562.723C528.092 564.027 531.53 566.841 532.794 569.122C534.059 571.401 536.509 571.322 539.152 572.306C541.142 573.043 539.173 575.668 537.465 577.341C540.354 578.197 543.44 577.243 544.619 571.064C544.742 570.424 544.808 569.772 544.829 569.116L544.467 568.793L543.765 568.285C542.065 567.197 535.152 565.82 533.161 565.018C531.169 564.216 527.482 559.483 526.563 558.412C525.642 557.344 524.988 552.846 524.624 551.913Z" fill="#9175F6"/>
<path d="M523.899 547.701L522.503 547.895C521.561 549.253 521.532 551.622 519.757 553.086C518.086 554.466 519.197 557.82 522.295 558.547C525.392 559.274 526.603 559.438 527.723 561.199C528.844 562.959 531.511 565.401 532.555 566.046C533.105 566.882 533.346 567.598 533.28 568.196C533.125 569.594 534.332 570.49 536.175 571.138C538.019 571.786 539.246 570.452 539.758 569.507C540.271 568.561 540.402 569.196 542.94 569.827C543.796 570.04 544.187 571.042 544.329 572.292L544.621 571.065C545.798 564.886 541.983 557.657 538.498 554.391C535.011 551.122 529.061 546.914 523.899 547.701Z" fill="#4334A5"/>
<path d="M430.04 490.717C428.911 492.831 428.986 497.923 432.579 503.829C436.173 509.737 442.812 515.957 449.537 517.926C456.262 519.895 460.597 510.972 461.366 506.899C462.134 502.826 460.787 495.331 455.822 490.2C450.858 485.069 445.525 482.684 439.954 483.55C434.381 484.415 431.169 488.602 430.04 490.717Z" fill="#6645BD"/>
<path d="M431.288 488.948C430.159 491.062 430.352 495.979 433.95 501.227C437.548 506.474 444.977 514.055 451.704 516.024C458.428 517.993 460.595 510.972 461.364 506.899C462.132 502.827 460.785 495.331 455.82 490.2C450.856 485.069 445.523 482.684 439.952 483.55C434.381 484.415 432.417 486.833 431.288 488.948Z" fill="#7857DD"/>
<path d="M439.954 483.549C438.579 483.764 437.423 484.072 436.444 484.447C441.281 485.68 440.573 487.724 438.621 488.682C436.467 489.741 430.884 492.395 437.727 496.738C439.033 497.567 440.735 500.38 442.777 502.89C443.835 504.192 445.691 506.569 448.343 510.021C450.96 512.852 452.637 511.125 456.218 510.519C458.447 510.142 458.674 512.625 456.243 515.838C459.503 514.4 460.805 509.865 461.366 506.896C462.134 502.823 460.787 495.328 455.822 490.197C450.858 485.068 445.525 482.683 439.954 483.549Z" fill="#4D34B6"/>
<path d="M447.435 484.352L446.031 484.179L444.846 484.221C442.106 484.763 441.104 489.15 439.639 489.296C438.175 489.442 436.244 490.581 435.158 492.146C434.073 493.71 438.242 496.227 439.629 496.35L442.76 496.352C444.481 496.381 446.277 496.581 446.698 497.475C447.435 499.037 448.918 503.168 448.366 504.981C447.814 506.793 447.841 509.316 449.814 510.76C451.787 512.203 456.741 509.531 457.632 508.776C458.326 508.191 460.495 505.481 461.043 502.268L461.168 500.708C460.466 497.185 458.789 493.271 455.82 490.202C453.129 487.415 450.324 485.438 447.435 484.352Z" fill="#311B8E"/>
<path d="M562.501 547.473C564.874 549.531 567.809 552.564 566.914 553.691C566.018 554.818 554.966 563.087 551.193 564.751C547.421 566.416 544.008 567.376 540.19 566.314C536.371 565.251 530.921 563.326 528.38 558.881C525.836 554.435 526.347 547.837 528.184 544.071C530.021 540.302 536.759 528.876 538.007 527.167C539.256 525.459 541.825 522.492 541.196 520.797C542.571 519.907 543.565 520.178 544.381 521.028C545.198 521.878 550.102 531.577 551.868 533.798C553.635 536.017 560.129 545.414 562.501 547.473Z" fill="#4E2FBB"/>
<path d="M562.501 547.473C564.874 549.531 567.809 552.564 566.914 553.691C566.018 554.818 555.597 562.008 551.825 563.674C548.052 565.339 544.648 566.359 540.829 565.297C537.011 564.235 531.561 562.31 529.019 557.864C526.476 553.418 526.986 546.821 528.824 543.054C530.661 539.288 536.759 528.876 538.009 527.167C539.259 525.459 541.827 522.492 541.198 520.797C542.573 519.907 543.567 520.178 544.383 521.028C545.2 521.878 550.104 531.577 551.871 533.798C553.635 536.017 560.129 545.414 562.501 547.473Z" fill="#7B4EE4"/>
<path d="M545.958 523.622L537.675 536.84C536.746 538.369 536.019 539.602 535.49 540.542L535.029 541.382C532.861 545.463 529.934 551.821 532.919 556.806C535.904 561.791 541.077 562.658 547.687 560.943C551.685 559.906 557.414 556.17 564.872 549.735C564.137 548.944 563.289 548.154 562.503 547.473C561.712 546.788 560.464 545.286 559.085 543.506L551.87 533.798C550.616 532.226 547.789 526.897 545.958 523.622Z" fill="#8754ED"/>
<path d="M543.383 556.875C544.204 558.233 543.402 561.387 542.354 562.394C541.306 563.4 537.525 562.687 537.294 560.685C537.063 558.683 538.379 556.421 540.092 555.719C541.808 555.019 542.565 555.517 543.383 556.875Z" fill="#483C9D"/>
<path d="M536.3 551.325C535.892 552.858 533.067 554.472 531.617 554.418C530.167 554.364 528.053 551.148 529.33 549.591C530.609 548.035 533.15 547.41 534.846 548.154C536.542 548.898 536.709 549.791 536.3 551.325Z" fill="#483C9D"/>
<path d="M545.958 523.622L542.023 529.919L552.739 558.739C556.083 556.831 560.126 553.829 564.87 549.735C564.135 548.944 563.287 548.154 562.501 547.473C561.71 546.788 560.462 545.286 559.083 543.506L551.868 533.798C550.616 532.226 547.789 526.897 545.958 523.622Z" fill="#9D6CFA"/>
<path d="M542.198 557.357C542.673 557.73 542.477 559.88 541.294 562.83C540.111 565.78 538.096 569.24 537.655 569.686C537.213 570.132 534.79 569.242 534.732 568.196C534.673 567.151 539.155 558.239 539.694 557.274C540.234 556.309 541.725 556.982 542.198 557.357Z" fill="#7A00FE"/>
<path d="M533.39 549C534.821 549.089 535.804 550.225 535.221 551.216C534.636 552.208 526.778 556.102 526.069 556.656C525.361 557.21 523.109 557.824 521.87 556.445C520.63 555.066 520.707 554.039 521.963 553.714C523.219 553.389 529.909 549.923 531.488 549.35C533.067 548.777 531.959 548.91 533.39 549Z" fill="#7A00FE"/>
<path d="M444.937 499.583C441.366 495.299 444.439 485.208 448.543 479.052C452.647 472.896 463.87 461.232 465.184 460.534C466.499 459.836 466.957 457.161 468.428 457.928C469.899 458.695 483.538 477.938 485.879 481.371C488.221 484.806 490.346 486.483 490.785 488.731C491.225 490.979 484.586 496.01 480.498 498.27C476.411 500.531 468.024 504.782 461.174 504.716C454.32 504.647 448.508 503.864 444.937 499.583Z" fill="#784CDF"/>
<path d="M471.63 461.729C470.268 462.431 469.157 463.114 468.301 463.776C463.787 467.251 454.904 476.555 450.466 484.392C446.029 492.229 448.391 498.165 452.681 500.077C456.972 501.989 465.457 501.162 475.086 496.475C482.263 492.981 487.054 488.055 489.133 485.6L487.067 483.011L478.28 470.655C476.347 467.978 474.349 465.253 472.651 463.012L471.63 461.729Z" fill="#6D45D6"/>
<path d="M459.616 495.924C460.437 497.283 459.326 500.039 458.281 501.045C457.233 502.051 453.485 501.31 453.658 499.406C453.831 497.501 454.772 495.345 456.487 494.643C458.199 493.943 458.795 494.566 459.616 495.924Z" fill="#302387"/>
<path d="M453.974 489.962C453.435 491.454 451.091 492.2 449.433 491.76C447.775 491.319 446.827 487.944 448.414 486.879C450.002 485.815 451.235 485.794 452.858 486.686C454.485 487.573 454.516 488.469 453.974 489.962Z" fill="#302387"/>
<path d="M471.63 461.729C470.267 462.431 469.157 463.114 468.301 463.776L466.353 465.399C465.999 465.714 465.63 466.047 465.251 466.399L479.094 494.246C484.069 491.115 487.471 487.565 489.135 485.6L487.069 483.011L478.282 470.655L472.653 463.012L471.63 461.729Z" fill="#895BE9"/>
<path d="M469.324 463.053L482.24 478.94C483.861 480.892 485.088 482.336 485.919 483.271C487.242 484.761 487.763 484.848 487.482 483.536L487.069 483.011L478.282 470.655L472.653 463.012L471.63 461.731C470.757 462.178 469.988 462.62 469.324 463.053Z" fill="#AD90F5"/>
<path d="M460.474 465.497L463.355 462.124L459.953 465.566C456.041 469.668 451.008 475.353 448.543 479.051C444.439 485.207 441.367 495.298 444.937 499.581C448.508 503.864 454.32 504.645 461.17 504.712C468.02 504.779 476.407 500.527 480.494 498.267C484.057 496.296 489.558 492.221 490.621 489.719C485.394 494.175 475.765 499.562 469.761 501.185C463.266 502.939 457.422 503.279 453.558 502.277C449.693 501.275 447.704 498.75 446.477 495.333C445.25 491.917 446.996 487.502 450.079 480.39C451.575 476.942 455.039 471.978 460.474 465.497Z" fill="#4E34AF"/>
<path d="M457.937 495.732C459.041 496.127 459.837 497.221 457.881 500.848C455.924 504.473 453.312 510.666 451.023 509.548C448.733 508.431 450.85 505.546 451.295 504.531C451.741 503.517 454.854 497.49 455.41 496.575C455.968 495.663 456.833 495.336 457.937 495.732Z" fill="#9761E9"/>
<path d="M450.741 486.916C452.453 487.208 453.814 488.431 453.222 489.695C452.631 490.962 450.883 490.599 448.104 491.301C445.325 492.003 441.773 493.982 441.194 494.626C440.614 495.27 437.002 494.253 436.752 492.845C436.502 491.437 440.456 490.353 442.333 489.605C444.21 488.858 449.029 486.624 450.741 486.916Z" fill="#9761E9"/>
<path d="M358.32 527.172C359.176 524.568 358.557 513.381 358.984 506.394C359.412 499.407 355.61 458.315 354.08 450.742C352.553 443.169 351.583 440.563 349.091 437.88C346.599 435.199 339.212 427.295 339.291 424.356C339.373 421.414 340.41 414.073 338.552 410.214C336.694 406.356 306.082 370.274 300.658 363.898C295.233 357.523 279.531 338.765 277.019 336.207C274.507 333.649 271.734 332.824 266.894 334.02C262.055 335.215 248.187 340.784 246.424 341.342C244.662 341.901 240.316 339.084 239.937 339.415C239.683 339.636 234.412 346.044 224.121 358.637L242.787 388.726L305.812 475.641C340.246 511.729 357.749 528.908 358.32 527.172Z" fill="#DDDDE1"/>
<path d="M358.32 527.172C359.176 524.567 357.061 514.332 357.486 507.343C357.914 500.356 354.112 459.264 352.583 451.691C351.056 444.119 350.085 441.512 347.593 438.829C345.102 436.148 337.714 428.244 337.794 425.305C337.873 422.365 338.912 415.022 337.054 411.164C335.196 407.305 304.584 371.224 299.16 364.847C293.735 358.47 278.585 340.175 276.075 337.614C273.563 335.056 270.79 334.231 265.951 335.427C261.111 336.623 247.243 342.191 245.481 342.75C243.718 343.308 240.316 339.081 239.937 339.412C239.683 339.633 234.412 346.041 224.121 358.635L242.787 388.723L305.811 475.638C340.245 511.728 357.749 528.907 358.32 527.172Z" fill="#B9BDC1"/>
<path d="M245.483 342.749C243.72 343.307 240.318 339.08 239.939 339.411L224.123 358.634L240.991 385.814L248.451 359.402C250.37 352.623 254.643 345.12 261.27 336.889L253.497 339.73C249.641 341.184 246.289 342.495 245.483 342.749Z" fill="#CCC8C8"/>
<path d="M300.151 226.195C295.672 224.126 287.9 224.026 282.589 232.184C277.279 240.342 275.906 249.111 278.065 256.371C280.223 263.633 288.102 272.61 288.418 274.439C288.733 276.268 281.227 283.482 278.608 285.911C275.99 288.34 275.971 292.53 273.659 293.763C271.346 294.996 264.674 291.707 253.574 292.79C242.474 293.874 236.493 299.675 233.689 305.85C230.885 312.025 234.387 324.039 236.052 332.11C237.716 340.18 232.556 343.609 228.277 347.644C223.998 351.68 222.329 354.517 223.529 357.131C224.729 359.748 225.76 358.883 226.325 358.531C226.89 358.177 231.585 352.057 233.435 349.405C235.287 346.753 238.339 342.657 238.991 341.309C239.641 339.959 239.86 338.945 240.37 336.745C240.881 334.545 239.375 325.737 238.072 322.045C236.77 318.352 236.318 309.998 239.466 303.481C242.614 296.965 252.105 296.763 256.393 296.144C260.68 295.526 270.148 298.084 273.7 297.705C277.252 297.326 283.348 290.895 285.3 288.693C287.252 286.491 294.897 279.493 296.672 277.66C298.447 275.826 301.77 272.074 302.53 270.418C303.291 268.762 303.095 264.114 303.139 261.9C303.182 259.685 307.603 255.05 310.132 245.963C312.657 236.88 304.63 228.264 300.151 226.195ZM298.249 229.562C302.599 231.586 306.153 238.159 306.084 243.926C306.016 249.692 301.366 255.921 298.745 259.052C296.124 262.183 297.01 265.723 296.524 267.914C296.039 270.106 293.447 272.912 292.597 272.318C291.747 271.724 289.848 268.822 287.685 265.673C285.523 262.521 282.929 257.631 281.317 251.669C279.704 245.709 282.437 238.757 285.202 234.607C287.962 230.457 293.899 227.537 298.249 229.562Z" fill="#2C2F28"/>
<path d="M263.049 338.396L256.564 340.589C248.795 343.089 243.243 343.654 238.562 341.762L238.127 341.556L235.175 345.135C235.727 345.412 236.308 345.654 236.893 345.891C242.141 348.012 247.82 347.731 255.114 345.679L260.245 344.056L262.497 343.273C268.938 341.023 269.846 341.125 273.4 344.314L275.959 346.889L279.292 350.485C286.252 358.112 297.454 370.967 305.859 381.302L314.336 391.956L327.338 408.955C327.457 409.126 327.548 409.262 327.611 409.358C328.263 410.382 329.684 423.101 330.356 426.43C331.069 429.946 332.885 433.563 335.544 437.256C336.531 438.629 337.602 439.967 338.746 441.277L341.262 444.008L343.687 446.431L343.8 446.612L344.125 447.406L344.468 448.741C345.12 451.722 345.897 457.733 346.962 468.37L347.883 477.938C348.781 487.6 349.335 497.054 349.545 506.297C348.785 505.808 325.155 480.867 315.476 471.17C312.084 467.772 314.601 464.157 318.553 466.08C322.505 468.003 325.917 468.332 327.467 465.987C330.594 461.255 331.465 455.018 326.477 447.675C324.913 445.373 316.961 436.161 318.613 426.586C320.267 417.011 319.924 411.718 317.122 407.697C311.626 399.812 290.187 368.563 272.598 352.347C268.109 348.208 265.669 347.716 259.945 349.093C250.028 351.479 252.099 379.577 245.177 374.161C237.8 368.39 230.435 359.266 227.498 356.858C225.346 355.093 221.744 359.647 216.696 370.517C305.316 469.061 349.614 518.974 349.595 520.255L352.472 522.938C352.906 523.332 353.314 523.701 353.699 524.04C353.885 523.732 353.987 523.38 353.997 523.003C354.339 508.381 353.778 493.221 352.318 477.524L350.639 460.549L350.091 455.87C349.206 448.862 348.441 445.654 347.4 444.01L346.772 443.237L343.764 440.179C342.068 438.375 340.523 436.542 339.164 434.654C336.844 431.43 335.296 428.346 334.729 425.544L333.198 415.057C332.619 411.351 331.967 407.895 331.375 406.964L329.829 404.801L322.684 395.414C319.671 391.519 316.209 387.094 312.834 382.861L305.395 373.717L299.114 366.27C289.177 354.633 279.019 343.362 276.384 340.998C271.936 337.017 269.382 336.41 263.049 338.396Z" fill="#AA7EF7"/>
<path d="M665.118 643.201C666.166 642.994 669.341 648.854 662.381 662.737C655.418 676.62 646.475 679.718 640.575 682.957C634.675 686.197 613.543 691.565 597.598 689.165C581.653 686.765 573.87 683.791 571.149 683.513C568.428 683.236 562.21 682.453 560.576 681.134C558.943 679.814 554.935 679.674 552.508 679.641C550.081 679.607 545.385 676.543 544.277 676.495C543.169 676.445 540.548 676.641 535.954 674.343C531.363 672.045 510.926 661.819 508.045 660.377C505.164 658.935 506.362 655.835 507.78 653.45C509.199 651.067 512.901 647.336 516.274 646.84C519.649 646.346 572.536 668.447 588.5 671.87C604.464 675.293 622.713 678.46 629.965 676.774C637.217 675.089 641.233 672.368 644.529 669.924C647.825 667.481 653.1 663.4 655.968 657.99C658.837 652.579 664.07 643.407 665.118 643.201Z" fill="#E2E2E2"/>
<path d="M663.67 644.808C661.624 647.716 658.127 653.912 655.97 657.984C653.512 662.622 649.285 666.282 646.052 668.774L644.531 669.921C641.236 672.367 637.221 675.088 629.967 676.771C622.716 678.456 604.468 675.29 588.502 671.867C572.536 668.444 519.649 646.343 516.276 646.837C512.901 647.331 509.201 651.062 507.783 653.447C506.522 655.566 505.435 658.251 507.233 659.834L508.047 660.374L535.956 674.34C540.548 676.638 543.171 676.442 544.279 676.492C545.387 676.542 550.083 679.604 552.51 679.638C554.533 679.667 557.654 679.767 559.583 680.565L560.578 681.131C561.978 682.263 566.747 683 569.795 683.363L571.151 683.513C573.872 683.79 581.655 686.765 597.6 689.164C602.785 689.946 608.516 689.904 614.097 689.383C612.035 689.062 610.022 688.683 608.168 688.202L601.464 686.523C597.333 685.579 597.869 686.081 595.885 686.458C593.181 686.971 590.746 684.362 586.138 682.831C581.53 681.298 582.444 684.006 578.417 683.471C574.965 683.01 573.43 681.367 572.124 681.102L571.482 681.096C569.993 681.408 569.191 679.221 567.976 676.769C566.762 674.317 561.837 677.621 558.964 677.313C556.091 677.007 558.701 672.696 555.045 673.446C551.389 674.194 548.679 672.342 548.041 669.365C547.404 666.388 540.521 669.461 536.425 669.278C532.327 669.094 534.177 667.232 534.157 663.963C534.136 660.695 530.23 664.563 526.957 664.538C523.684 664.513 523.99 663.624 524.313 661.493C524.636 659.361 520.605 661.553 517.361 662.311C514.118 663.068 508.476 659.566 510.047 654.589C511.618 649.612 513.834 648.418 518.197 649.945C522.559 651.47 546.308 660.763 560.585 666.147C574.861 671.53 590.671 676.54 607.039 678.75C615.632 679.911 623.363 680.479 629.349 679.477C634.765 678.571 638.54 675.811 639.252 675.219C640.752 673.973 643.623 671.044 648.579 667.54C653.154 664.305 661.843 651.385 663.512 646.229L663.785 645.137L663.67 644.808Z" fill="#B7B7B6"/>
<path d="M507.781 653.445C506.52 655.564 505.433 658.249 507.231 659.833L508.045 660.372L535.955 674.338C540.546 676.636 543.169 676.44 544.277 676.49C545.385 676.54 550.081 679.603 552.508 679.636C553.995 679.657 556.077 679.717 557.841 680.065C557.124 679.551 556.587 679.123 555.904 678.801L554.729 678.394C552.987 677.98 549.779 676.488 547.639 675.715L546.273 675.297C544.463 674.917 541.556 673.444 540.654 673.365C539.752 673.286 536.665 671.234 534.89 671.12C533.115 671.005 530.03 668.934 530.009 667.67C529.988 666.405 523.032 666.526 523.438 666.218C523.847 665.909 523.77 664.982 522.59 664.399C521.411 663.816 517.284 663.459 515.432 662.662L513.078 661.441C511.216 660.335 509.135 658.893 508.695 658.103C508.262 657.326 508.076 655.501 508.135 652.631L508.106 652.937L507.781 653.445Z" fill="#727272"/>
<path d="M154.688 416.962C158.603 409.141 164.792 405.822 166.596 405.316C168.398 404.81 170.102 399.527 169.571 395.596C169.04 391.665 172.496 388.325 177.133 386.325C181.773 384.328 229.517 387.848 232.8 390.575C236.083 393.302 302.595 460.706 309.83 468.105C317.065 475.505 336.006 495.704 340.146 499.881C344.285 504.058 358.272 516.426 361.432 518.895C364.593 521.364 417.553 558.104 422.092 560.645C426.632 563.185 507.437 607.842 544.119 625.428C580.801 643.015 640.138 668.908 641.994 670.695C643.85 672.483 637.623 678.41 628.924 679.278C620.224 680.147 600.416 679.51 568.799 668.2C537.182 656.892 516.772 648.067 514.803 648.05C512.835 648.034 509.628 650.217 508.706 652.531C507.783 654.848 507.649 657.019 506.599 656.742C505.549 656.465 501.445 654.623 500.614 653.04C499.783 651.456 496.569 652.861 490.675 650.484C484.782 648.107 479.546 646.109 473.069 642.869C466.595 639.628 401.918 607.081 393.56 602.898C385.202 598.715 379.488 591.086 376.588 583.657C373.69 576.228 370.019 572.789 367.261 571.941C364.503 571.093 362.443 575.297 360.168 574.405C357.893 573.514 356.478 572.935 355.595 574.124C354.712 575.314 349.802 578.649 344.777 577.099C339.752 575.549 329.117 570.647 313.947 563.054C298.776 555.462 239.068 525.582 219.932 516.004C200.793 506.427 198.014 496.671 196.164 494.336C194.316 492 188.825 493.721 187.689 492.286C186.554 490.85 184.839 487.186 181.554 487.023C178.269 486.861 174.454 484.276 174.25 482.394C174.046 480.513 171.55 479.32 171.348 479.909C171.148 480.499 166.523 479.58 165.671 475.432C164.819 471.284 164.842 469.649 162.378 469.403C159.913 469.157 159.107 465.87 159.707 463.466C160.307 461.062 156.905 463.008 156.251 461.737C155.815 460.889 155.303 459.066 154.718 456.268C151.609 448.94 149.922 443.011 149.655 438.484C149.251 431.696 150.774 424.782 154.688 416.962Z" fill="#DFDFDF"/>
<path d="M232.798 390.575C229.515 387.848 181.771 384.328 177.131 386.325L175.746 386.979C182.244 392.715 197.737 414.797 203.955 416.303C211.134 418.041 212.451 412.999 215.271 412.464C218.094 411.926 223.213 414.643 231.113 422.638C234.498 425.047 246.343 425.632 266.653 424.393L234.177 391.867C233.479 391.19 233.008 390.75 232.798 390.575Z" fill="#E2E2E2"/>
<path d="M500.781 644.526L497.833 643.149L495.704 642.236C494.81 641.867 494.192 641.694 493.929 642.021C493.317 642.784 489.804 644.834 486.898 644.494L484.84 644.199L481.04 643.534C477.38 642.842 472.68 641.817 468.424 640.534L473.067 642.867C479.542 646.109 484.779 648.105 490.673 650.482C495.912 652.594 499.033 651.719 500.245 652.611L500.612 653.038C501.445 654.621 505.547 656.463 506.597 656.74C507.391 656.948 507.66 655.765 508.141 654.175C506.483 653.634 505.129 652.6 504.077 651.071C502.272 648.448 503.262 645.619 500.781 644.526Z" fill="#9C9C9C"/>
<path d="M491.904 645.461L489.958 646.059C487.965 646.646 485.098 647.257 481.79 646.371L479.217 645.742C483.125 647.488 486.752 648.9 490.671 650.482C495.91 652.594 499.031 651.719 500.243 652.611L500.61 653.038C501.443 654.621 505.545 656.463 506.595 656.74C507.199 656.9 507.502 656.248 507.822 655.227L505.295 654.115C504.402 653.692 503.56 653.223 503.098 652.725C501.835 651.373 501.05 648.815 498.827 647.515C496.604 646.217 493.619 645.003 491.904 645.461Z" fill="#404040"/>
<path d="M162.184 433.277C168.552 445.632 180.058 459.353 184.106 469.338C187.979 478.889 176.404 474.192 165.855 466.394L164.423 465.313C161.53 463.075 158.517 461.005 155.384 459.101C155.69 460.344 155.984 461.221 156.249 461.738C156.903 463.011 160.305 461.063 159.705 463.467C159.105 465.871 159.911 469.159 162.376 469.404C164.84 469.65 164.817 471.285 165.669 475.433C166.436 479.166 170.259 480.283 171.161 480.039L171.346 479.91C171.517 479.406 173.377 480.21 174.033 481.635L174.248 482.395C174.452 484.277 178.267 486.862 181.552 487.024C184.837 487.187 186.554 490.849 187.687 492.287C188.82 493.724 194.314 492.003 196.162 494.337C197.914 496.549 200.501 505.42 217.04 514.492L219.927 516.005L317.363 564.759C330.717 571.382 340.135 575.669 344.772 577.1C349.239 578.479 353.616 575.996 355.153 574.592L355.591 574.125C356.474 572.936 357.887 573.515 360.164 574.406C362.441 575.298 364.499 571.094 367.257 571.942C369.709 572.696 372.882 575.498 375.592 581.327L376.584 583.658C377.444 585.86 378.55 588.081 379.9 590.224C379.179 582.275 377.973 577.144 376.298 574.817C373.178 570.482 362.647 568.282 357.116 565.248L351.981 562.201C343.056 556.768 327.227 546.916 321.228 545.366C314.265 543.566 297.118 536.483 285.812 529.712L283.315 528.158C272.211 520.952 211.407 477.444 208.397 476.671C205.386 475.898 205.37 493.974 200.453 491.299C195.535 488.624 194.231 470.004 193.795 464.994C193.747 464.44 189.258 451.843 197.262 459.323C205.218 466.761 244.256 493.385 213.669 459.526C183.083 425.666 179.071 420.154 173.592 413.2L172.469 411.746C166.1 403.29 155.813 420.921 162.184 433.277Z" fill="#D4D4D4"/>
<path d="M163.828 469.844C164.884 470.626 165.032 472.323 165.669 475.432C166.436 479.165 170.259 480.281 171.161 480.038L171.346 479.909C171.517 479.404 173.378 480.209 174.034 481.634L174.248 482.394C174.452 484.275 178.267 486.86 181.552 487.023C184.837 487.185 186.554 490.848 187.687 492.285C188.821 493.723 194.314 492.002 196.162 494.335L196.837 495.381C198.716 498.637 202.447 506.485 217.042 514.488L219.93 516.001L317.366 564.755C330.719 571.378 340.138 575.665 344.775 577.096C349.241 578.475 353.618 575.992 355.156 574.588L355.593 574.122C356.476 572.932 357.889 573.511 360.166 574.403C361.268 574.834 362.318 574.072 363.424 573.267L351.425 566.022C342.121 560.485 335.104 556.518 330.375 554.122C320.128 548.933 293.81 538.856 286.131 534.773C278.452 530.692 270.83 531.007 268.809 530.196C266.788 529.386 265.384 522.886 259.564 523.399C254.108 523.88 256.537 530.25 252.016 524.553L251.014 523.246C245.131 515.368 242.175 518.842 241.066 518.268C239.958 517.693 236.319 515.236 236.523 512.543C236.727 509.849 238.625 509.295 234.354 510.782C230.084 512.27 222.882 512.216 222.713 509.082C222.544 505.951 226.075 500.962 219.907 501.629C213.738 502.297 210.534 504.053 208.368 502.951C206.201 501.849 207.722 501.858 208.957 498.745C210.191 495.633 208.224 491.414 205.128 491.439C204.337 491.446 203.495 491.241 202.683 490.902C202.087 491.579 201.353 491.779 200.46 491.294C198.924 490.458 197.743 488.071 196.829 485.029C194.941 484.35 191.266 484.438 188.591 484.244C184.81 483.973 184.981 477.465 179.723 479.807C174.465 482.148 173.263 478.736 173.019 472.898C172.886 469.79 169.823 468.772 163.828 469.844Z" fill="#B0B0B0"/>
<path d="M360.995 569.448C357.766 570.763 333.981 559.453 328.934 558.322C323.886 557.191 321.688 560.83 320.461 558.938C319.236 557.049 321.521 555.039 315.909 553.77L309.424 552.278C306.907 551.668 304.937 551.114 303.735 550.568L302.203 549.749C297.862 547.314 286.446 540.558 278.846 537.806L277.031 537.206C268.423 534.671 246.251 521.992 239.01 520.786C236.335 520.34 235.196 521.615 235.358 523.74L317.357 564.755C330.711 571.378 340.129 575.665 344.766 577.096C349.233 578.475 353.61 575.992 355.147 574.588L355.585 574.121C356.468 572.932 357.88 573.511 360.157 574.402C362.434 575.294 364.493 571.09 367.251 571.938C369.703 572.692 372.876 575.494 375.586 581.323L376.577 583.654C376.888 584.45 377.23 585.248 377.605 586.044C377.002 580.529 375.125 574.411 373.869 573.323C372.159 571.834 364.224 568.134 360.995 569.448Z" fill="#828282"/>
<path d="M196.524 494.872L198.258 497.851C200.643 501.784 205.366 508.088 217.04 514.49L219.928 516.002L317.363 564.757C330.717 571.379 340.135 575.667 344.773 577.098C347.037 577.796 349.279 577.502 351.139 576.861C348.422 575.706 345.185 573.904 343.187 571.915C339.687 568.427 332.498 563.461 327.88 562.617L322.08 561.678C319.319 561.163 317.17 560.463 317.445 559.032C317.903 556.647 317.419 555.313 312.424 554.882L308.155 554.526C305.345 554.251 302.66 553.805 300.41 552.634L298.81 551.611C295.291 548.866 293.898 551.259 290.539 548.253L288.491 546.364C286.36 544.301 285.256 542.747 286.462 541.891C288.012 540.789 281.681 541.464 280.627 540.758C279.723 540.154 280.025 539.012 278.717 539.095L277.915 539.247C275.671 539.881 272.075 538.066 273.742 537.16C275.038 536.456 274.067 536.529 271.248 536.093L268.39 535.566C263.807 534.577 267.721 536.92 261.672 533.827L249.976 527.823C247.42 526.471 245.722 525.463 245.016 524.69L239.441 518.359C236.964 516.282 235.283 515.442 234.398 515.834L231.423 517.286C229.988 517.934 228.688 518.348 228.958 517.434L229.996 514.748C230.273 513.844 230.281 513.084 229.427 512.932L228.615 512.94C225.638 513.348 220.857 510.809 218.796 509.859C216.736 508.909 216.046 510.655 214.536 508.617C213.215 506.836 212.913 504.236 210.632 503.555L209.524 503.388C206.201 503.299 200.403 499.857 199.58 497.474C199.133 496.17 198.339 495.464 196.524 494.872Z" fill="#404040"/>
<path d="M395.2 578.469C382.011 571.967 380.044 576.321 379.338 578.627C379.077 579.477 377.748 584.198 376.505 583.416L376.586 583.656C379.484 591.085 385.198 598.714 393.558 602.897L473.067 642.868C476.657 644.664 479.867 646.079 483.017 647.389L485.365 644.839C485.536 644.67 485.675 644.541 485.786 644.447L488.844 642.202C490.59 640.868 492.592 639.104 493.827 636.956C495.719 633.667 492.421 630.792 482.305 624.419L477.546 621.463C463.724 612.944 408.389 584.971 395.2 578.469ZM416.018 556.69C428.003 565.955 449.537 579.517 475.826 595.376L482.688 599.412C523.33 622.761 592.19 653.722 605.725 660.565C619.432 667.496 615.187 671.392 603.675 669.671C592.163 667.953 582.442 665.188 568.878 660.959L562.887 659.022C547.046 653.776 521.159 645.558 518.311 645.345C515.491 645.137 515.159 646.283 513.185 648.403C513.768 648.172 514.322 648.045 514.803 648.049C516.772 648.064 537.179 656.891 568.799 668.199C600.416 679.506 620.224 680.144 628.924 679.277C637.623 678.408 643.85 672.482 641.994 670.694C640.19 668.957 583.967 644.395 547.142 626.871L538.854 622.867C500.248 603.868 426.426 563.069 422.092 560.644L416.018 556.69ZM352.041 510.823C351.041 514.367 350.776 517.115 351.251 519.067C352.535 524.346 360.087 530.014 362.834 532.204C365.584 534.393 362.034 526.698 363.472 523.404C363.774 522.713 365.722 523.025 368.63 524.013L361.43 518.89L356.276 514.532L352.041 510.823Z" fill="#EDEDED"/>
<path d="M615.756 665.7L611.02 663.325C610.377 663.013 609.697 662.688 608.985 662.348C618.622 668.144 614.164 671.24 603.673 669.673C592.161 667.954 582.44 665.19 568.876 660.961L541.173 652.005C530.024 648.484 520.02 645.474 518.309 645.349C515.51 645.143 515.162 646.268 513.228 648.357C515.355 647.626 517.27 647.105 518.476 647.213C522.624 647.586 597.698 675.619 611.71 675.506C625.722 675.394 623.805 669.979 615.756 665.7Z" fill="#E7E7E7"/>
<path d="M168.909 401.889C168.325 403.691 167.471 405.068 166.594 405.316C164.792 405.822 158.601 409.141 154.686 416.962C154.003 418.328 153.393 419.666 152.853 420.98C155.449 418.38 157.318 419.757 162.163 427.395C167.632 436.015 180.929 450.527 185.552 455.437C188.633 458.71 189.443 462.001 189.781 465.531L190.606 476.876C191.025 481.732 191.714 486.775 193.462 488.273C195.678 490.177 198.151 488.544 199.493 485.586L199.941 484.419C201.107 480.757 204.295 477.72 206.349 476.87C207.632 476.338 212.145 479.407 218.069 483.999L229.871 493.456C240.279 501.921 261.949 517.07 272.428 523.428L278.361 526.841C289.273 532.974 308.414 543.467 311.338 545.963L315.467 549.327C319.569 552.594 324.6 556.452 323.465 555.192L322.351 554.108C316.988 549.163 319.282 547.808 314.311 544.136C309.341 540.461 283.712 526.022 270.136 517.543L266.301 515.054C251.451 505.133 222.746 483.426 216.746 478.23L216.049 477.603C211.757 473.534 206.986 471.372 202.607 473.593C198.23 475.811 195.987 485.876 195.235 482.067C194.483 478.259 194.091 461.185 192.868 457.241C191.643 453.298 161.936 424.901 162.111 419.045C162.286 413.189 168.432 410.941 169.69 409.058C170.213 408.272 170.15 406.941 169.802 405.289L168.909 401.889Z" fill="#C8C8C8"/>
<path d="M182.8 386.283L182.889 385.752L179.842 385.877C178.546 385.973 177.611 386.121 177.131 386.325C172.492 388.323 169.038 391.664 169.569 395.596C170.1 399.527 168.398 404.81 166.594 405.316C165.263 405.691 161.536 407.599 158.101 411.724L158.601 413.916L158.751 414.891C159.03 417.984 161.609 422.692 164.499 427.469C167.182 431.905 180.85 446.873 186.214 452.445L187.296 453.556C191.575 457.872 192.099 459.67 192.633 466.547C193.166 473.424 192.72 479.538 194.418 484.53C196.116 489.521 198.291 485.396 198.418 483.427C198.547 481.459 201.766 477.419 204.718 475.547C207.472 473.799 210.357 475.388 219.719 483.023L221.827 484.752C232.883 493.875 256.034 510.179 266.122 516.73L269.765 518.984C281.592 526.04 303.147 537.015 294.008 531.263L275.271 519.518C265.28 513.166 254.191 505.866 246.481 499.869L240.643 495.3C229.898 486.829 219.217 478.04 213.644 472.255L209.645 467.911C200.255 457.893 171.85 427.207 167.009 420.097C161.597 412.149 167.655 409.816 169.892 412.837L176.029 419.728C183.714 429.269 202.635 452.106 218.165 468.172C237.225 487.888 269.536 511.185 272.188 509.31C274.838 507.435 229.067 466.755 219.65 456.67L217.186 453.956C205.468 440.785 176.786 405.749 175.604 401.041C174.327 395.956 180.008 390.579 182.237 387.402C182.483 387.05 182.669 386.675 182.8 386.283Z" fill="#E7E7E7"/>
<path d="M314.54 472.991L315.361 475.18L327.359 489.621C335.081 498.8 340.437 504.871 343.429 507.835C349.139 513.495 355.232 517.222 359.832 520.33L387.987 540.336C399.179 548.223 410.786 556.266 415.999 559.435L423.369 563.702C434.771 570.364 455.695 582.759 479.007 595.052L491.535 601.552C524.247 618.318 581.759 646.603 607.993 657.529L614.12 660.044C626.457 665.027 632.898 667.081 637.073 668.141L614.28 657.679C595.919 649.359 571.668 638.438 551.808 629.078L538.858 622.868C500.252 603.869 426.43 563.07 422.096 560.645L419.09 558.735C406.778 550.625 364.257 521.099 361.436 518.895C358.276 516.426 344.289 504.058 340.15 499.881L314.54 472.991ZM232.798 390.575C229.514 387.848 181.771 384.328 177.131 386.325C172.492 388.323 169.038 391.665 169.569 395.596C169.944 398.373 169.204 401.823 168.102 403.789C169.031 403.448 169.644 402.979 169.656 402.264C169.7 399.527 172.633 396.135 175.235 394.294C177.144 392.942 183.031 400.791 186.243 405.414L188.368 408.579C188.897 409.439 190.733 408.895 198.701 406.037C206.67 403.179 220.148 401.635 221.125 401.475C222.102 401.312 226.552 405.939 238.706 422.284L241.545 425.92C256.063 443.829 292.787 481.43 298.939 487.33L299.493 487.853C303.732 491.721 305.195 493.096 307.113 491.659C308.84 490.367 309.993 487.769 309.355 482.001L309.074 479.957C308.522 476.547 308.491 472.301 308.978 467.224L242.947 400.55C237.354 394.954 233.525 391.179 232.798 390.575Z" fill="#ECECEC"/>
<path d="M393.135 592.42C390.646 592.314 390.339 596.214 388.271 594.866C386.202 593.518 386.404 590.487 383.577 589.672C381.959 589.206 380.188 588.72 378.998 588.985C379.725 590.618 381.138 592.374 383.427 594.372C389.239 599.443 400.947 606.559 413.101 612.836L477.601 645.141C478.436 645.56 483.915 645.131 484.461 644.935C484.746 644.833 485.709 642.995 486.548 640.881L485.898 641.235C484.584 641.839 481.961 642.672 478.03 643.741C481.332 640.539 482.073 639.056 480.259 639.287C477.536 639.635 473.826 642.129 472.551 640.601C471.276 639.077 471.047 634.733 469.134 634.585C467.222 634.437 461.878 634.985 460.528 633.871C459.178 632.756 457.281 625.86 455.149 625.873L451.879 625.965C449.725 625.948 447.26 625.629 445.731 624.081C443.283 621.602 439.14 615.263 437.627 616.111C436.117 616.961 435.956 618.219 436.061 619.242C436.165 620.265 432.129 616.071 431.384 614.828C430.732 613.738 431.411 611.307 429.371 610.728L428.319 610.603C425.373 610.619 421.624 607.953 420.619 608.817L420.378 609.319C420.082 611.396 415.061 606.334 413.863 606.924C412.666 607.513 409.768 607.79 408.685 605.543C407.601 603.293 404.833 599.176 402.795 598.68C400.758 598.184 398.627 599.999 397.968 599.082C397.314 598.164 395.625 592.526 393.135 592.42Z" fill="#727272"/>
<path d="M394.895 599.339C393.983 599.239 392.939 599.085 391.837 598.758L390.148 598.122L388.333 597.137C386.827 596.245 384.727 594.883 382.034 593.052L383.429 594.368C389.242 599.439 400.949 606.555 413.103 612.832L477.603 645.137C478.098 645.385 480.234 645.335 482 645.212C480.388 644.768 478.925 644.114 478.588 643.577L478.032 643.737L478.603 643.179C479.257 642.35 476.561 641.896 475.536 641.6L475.188 641.462C475.059 641.362 474.58 641.244 473.99 641.081C473.397 641.121 472.913 641.004 472.582 640.635C471.84 640.329 471.207 639.942 471.099 639.417C470.832 638.125 467.768 638.41 466.051 637.781C464.334 637.154 452.912 631.198 449.385 629.442C445.858 627.686 445.218 626.898 442.454 624.301C439.69 621.705 439.65 623.682 438.402 623.053C437.154 622.424 434.113 619.792 433.142 618.617C432.365 617.678 430.246 617.047 428.415 616.767L427.121 616.626C425.14 616.503 423.438 616.149 419.907 613.795C416.374 611.441 416.64 610.064 413.459 608.766C410.732 607.653 409.493 607.824 408.801 607.51L408.497 607.303C407.874 606.693 404.078 604.883 402.853 603.456C401.899 602.343 399.168 600.164 398.337 600.018C397.783 599.924 396.637 599.697 394.895 599.339Z" fill="#1A0855"/>
<path d="M599.81 666.937C593.29 663.202 511.972 630.789 512.887 632.449C513.801 634.112 534.144 643.59 557.895 653.457C581.646 663.325 606.333 670.673 599.81 666.937Z" fill="#D4D5D5"/>
<path d="M599.566 667.831C588.104 663.466 579.786 660.241 574.611 658.156C547.973 647.415 527.857 638.909 514.247 633.399C516.326 634.803 519.584 636.519 524.021 638.549C530.68 641.592 541.498 646.646 557.897 653.458L562.814 655.46C579.217 662.014 595.01 667.081 599.566 667.831Z" fill="#EDEDED"/>
<path d="M492.744 628.063C492.758 627.327 494.029 622.065 478.923 613.207C463.818 604.349 418.728 580.967 412.682 578.969C406.639 576.971 457.214 603.626 463.809 607.336C470.403 611.047 482.79 617.744 485.227 619.863C487.665 621.98 492.727 628.796 492.744 628.063Z" fill="#F1F1F1"/>
<path d="M387.423 568.729C390.746 566.358 395.981 564.923 402.114 568.59C406.204 571.033 409.341 571.665 411.528 570.483C410.745 573.546 408.853 574.973 405.851 574.764C401.347 574.452 398.939 569.49 394.685 569.177C390.433 568.863 384.1 571.1 387.423 568.729Z" fill="#D0D0D0"/>
<path d="M365.774 562.109C366.259 558.17 361.053 554.422 356.37 548.762C351.685 543.102 348.941 538.375 349.922 534.471C350.903 530.567 346.979 533.546 347.21 538.412C347.441 543.281 351.014 546.824 354.73 550.716C358.445 554.607 362.42 557.105 365.774 562.109Z" fill="#D0D0D0"/>
<path d="M248.92 497.186C261.52 507.638 289.608 525.435 286.498 524.602C283.39 523.768 253.764 506.921 232.808 489.645C211.853 472.368 190.947 446.349 195.499 448.465C200.051 450.582 217.623 469.993 226.906 478.147C236.189 486.301 236.321 486.736 248.92 497.186Z" fill="#CFD1D2"/>
<path d="M217.292 354.277C214.169 357.35 210.399 364.889 202.205 370.216C194.012 375.543 190.124 376.293 185.198 379.364C180.271 382.436 176.59 385.076 176.519 387.515C176.475 389.063 180.948 395.33 184.458 400.059C200.557 392.43 211.807 387.626 218.205 385.645C229.769 382.066 242.897 382.27 245.02 381.522C246.918 380.853 247.778 379.553 247.608 377.526C246.391 377.634 244.924 376.832 243.181 375.024C238.222 369.879 231.146 360.2 227.263 357.427L223.986 354.942C221.584 353.171 219.477 352.125 217.292 354.277Z" fill="#7756D3"/>
<path d="M409.849 571.104C412.534 569.7 409.243 565.81 399.977 559.433C386.077 549.869 357.87 534.411 355.289 533.234C352.708 532.059 350.351 533.32 350.158 532.884C349.964 532.449 352.037 529.589 355.645 530.907C359.253 532.226 388.039 548.438 401.558 557.677C410.57 563.837 413.895 568.104 411.528 570.479L409.849 571.104Z" fill="#E6E6E6"/>
</svg>
