<svg width="33" height="29" viewBox="0 0 33 29" fill="none" xmlns="http://www.w3.org/2000/svg">
<path d="M0.599609 25.991C0.599609 26.107 0.64702 26.2183 0.731411 26.3004C0.815803 26.3824 0.930262 26.4285 1.04961 26.4285H3.00351C3.63209 26.4278 4.23471 26.1847 4.67915 25.7526C5.12358 25.3204 5.37351 24.7345 5.37411 24.1234V24.119C6.41316 24.1768 7.44456 24.4218 8.38191 24.8592L15.4694 28.1675C15.9437 28.3889 16.4549 28.5 16.967 28.5C17.459 28.4997 17.9454 28.3974 18.3935 28.1999L31.637 22.3717C31.8467 22.2663 32.0033 22.079 32.0672 21.8581C32.0988 21.7484 32.107 21.6337 32.0914 21.5209C32.0758 21.408 32.0366 21.2995 31.9763 21.2019C30.9598 19.567 29.0468 18.7012 27.1253 18.9952L20.5868 19.7498C20.688 19.4877 20.7401 19.21 20.7407 18.93C20.74 18.3034 20.4837 17.7027 20.0279 17.2596C19.5722 16.8166 18.9543 16.5674 18.3098 16.5667H14.8345L14.8223 16.5544C14.1807 15.9272 13.4175 15.43 12.5768 15.0914C11.7362 14.7529 10.8349 14.5798 9.92496 14.5822H5.37411V14.3198C5.37351 13.7087 5.12358 13.1227 4.67915 12.6906C4.23471 12.2584 3.63209 12.0153 3.00351 12.0146H1.04961C0.930262 12.0146 0.815803 12.0607 0.731411 12.1428C0.64702 12.2248 0.599609 12.3361 0.599609 12.4521V25.991ZM9.92496 15.4572C11.5342 15.4572 13.048 16.0666 14.186 17.173L14.33 17.313C14.3717 17.3537 14.4213 17.3861 14.4759 17.4081C14.5305 17.4302 14.589 17.4416 14.6482 17.4417H18.3098C19.154 17.4417 19.8407 18.1093 19.8407 18.93C19.8407 19.7507 19.154 20.4179 18.3098 20.4179H10.3867C10.2673 20.4179 10.1529 20.464 10.0685 20.546C9.98407 20.6281 9.93666 20.7393 9.93666 20.8554C9.93666 20.9714 9.98407 21.0827 10.0685 21.1647C10.1529 21.2468 10.2673 21.2929 10.3867 21.2929H18.3098C18.8963 21.2928 19.4627 21.0855 19.9037 20.7097L27.2477 19.8623C28.0089 19.7441 28.7891 19.8466 29.4907 20.1571C30.1923 20.4675 30.7842 20.9722 31.1924 21.6078L18.0227 27.4028C17.6821 27.5529 17.3118 27.6286 16.9379 27.6244C16.564 27.6203 16.1956 27.5364 15.8587 27.3787L8.77116 24.0705C7.70679 23.5757 6.55229 23.2906 5.37411 23.2314V15.4577L9.92496 15.4572ZM1.49961 12.8896H3.00351C3.39347 12.8901 3.76731 13.0409 4.04301 13.309C4.31871 13.5771 4.47375 13.9406 4.47411 14.3198V24.1234C4.47375 24.5025 4.31871 24.866 4.04301 25.1341C3.76731 25.4022 3.39347 25.5531 3.00351 25.5535H1.49961V12.8896ZM31.1996 0.5H11.3996C10.9033 0.5 10.4996 0.892425 10.4996 1.37497V12.7496C10.4996 13.2322 10.9033 13.6246 11.3996 13.6246H31.1996C31.696 13.6246 32.0996 13.2322 32.0996 12.7496V1.37497C32.0996 0.892425 31.696 0.5 31.1996 0.5ZM11.3996 12.7496C11.3996 11.8082 11.3996 11.4372 11.3996 10.5622C11.3996 9.83559 11.3996 9.90596 11.3996 9.16398V4.96061C11.3996 4.21863 11.3996 4.65612 11.3996 3.5624C11.3996 2.46869 11.3996 2.30571 11.3996 1.37497H31.1996C31.1996 2.37852 31.1996 3.03475 31.1996 3.90972C31.1996 4.12846 31.1996 4.56595 31.1996 4.96061V9.16398C31.1996 10.3434 31.1996 9.90596 31.1996 10.7809C31.1996 11.8746 31.1996 11.8746 31.1996 12.7496H11.3996Z" fill="black"/>
<path d="M21.1621 4.53659C21.8857 4.53659 22.4746 5.015 22.4746 5.60247C22.4746 5.7069 22.5207 5.80706 22.6027 5.8809C22.6848 5.95474 22.7961 5.99622 22.9121 5.99622C23.0281 5.99622 23.1394 5.95474 23.2215 5.8809C23.3035 5.80706 23.3496 5.7069 23.3496 5.60247C23.3496 4.70748 22.5971 3.95857 21.5996 3.7865V3.51875C21.5996 3.41432 21.5535 3.31417 21.4715 3.24033C21.3894 3.16648 21.2781 3.125 21.1621 3.125C21.0461 3.125 20.9348 3.16648 20.8527 3.24033C20.7707 3.31417 20.7246 3.41432 20.7246 3.51875V3.7865C19.7271 3.95857 18.9746 4.70748 18.9746 5.60247C18.9746 6.62465 19.9559 7.45625 21.1621 7.45625C21.8857 7.45625 22.4746 7.93466 22.4746 8.52253C22.4746 9.11 21.8857 9.58841 21.1621 9.58841C20.4385 9.58841 19.8496 9.11 19.8496 8.52253C19.8496 8.4181 19.8035 8.31794 19.7215 8.2441C19.6394 8.17026 19.5281 8.12877 19.4121 8.12877C19.2961 8.12877 19.1848 8.17026 19.1027 8.2441C19.0207 8.31794 18.9746 8.4181 18.9746 8.52253C18.9746 9.41752 19.7271 10.1664 20.7246 10.3385V10.6063C20.7246 10.7107 20.7707 10.8108 20.8527 10.8847C20.9348 10.9585 21.0461 11 21.1621 11C21.2781 11 21.3894 10.9585 21.4715 10.8847C21.5535 10.8108 21.5996 10.7107 21.5996 10.6063V10.3385C22.5971 10.1664 23.3496 9.41752 23.3496 8.52253C23.3496 7.50035 22.3683 6.66875 21.1621 6.66875C20.4385 6.66875 19.8496 6.19034 19.8496 5.60247C19.8496 5.015 20.4385 4.53659 21.1621 4.53659Z" fill="black"/>
</svg>
