<svg width="100" height="195" viewBox="0 0 100 195" fill="none" xmlns="http://www.w3.org/2000/svg">
<g clip-path="url(#clip0_2_62)">
<path d="M46.0257 19C46.0257 19.8667 45.562 20.4334 44.6348 20.7C43.7736 21.0334 42.482 21.2 40.7599 21.2C38.8392 21.2 37.4149 21.0334 36.4877 20.7C35.5605 20.4334 35.0967 19.8667 35.0967 19L35.0967 2.50005C35.0967 1.63338 35.5272 1.06672 36.3883 0.800049C37.3156 0.466716 38.6404 0.300049 40.3625 0.300049C42.2833 0.300049 43.7075 0.466716 44.6348 0.800049C45.562 1.06672 46.0257 1.63338 46.0257 2.50005L46.0257 19ZM46.0257 35.504C46.0257 36.3705 45.562 36.9373 44.6348 37.2041C43.7736 37.5373 42.482 37.704 40.7599 37.704C38.8392 37.704 37.4149 37.5373 36.4877 37.2041C35.5605 36.9373 35.0967 36.3705 35.0967 35.504V19.0039C35.0967 18.1373 35.5272 17.5706 36.3883 17.3039C37.3156 16.9706 38.6404 16.8039 40.3625 16.8039C42.2833 16.8039 43.7075 16.9706 44.6348 17.3039C45.562 17.5706 46.0257 18.1373 46.0257 19.0039V35.504ZM46.0257 52.0078C46.0257 52.8745 45.562 53.4413 44.6348 53.7078C43.7736 54.0413 42.482 54.2078 40.7599 54.2078C38.8392 54.2078 37.4149 54.0413 36.4877 53.7078C35.5605 53.4413 35.0967 52.8745 35.0967 52.0078L35.0967 35.5078C35.0967 34.6413 35.5272 34.0745 36.3883 33.8078C37.3156 33.4745 38.6404 33.3078 40.3625 33.3078C42.2833 33.3078 43.7075 33.4745 44.6348 33.8078C45.562 34.0745 46.0257 34.6413 46.0257 35.5078L46.0257 52.0078ZM46.0257 68.5118C46.0257 69.3785 45.562 69.945 44.6348 70.2118C43.7736 70.545 42.482 70.7118 40.7599 70.7118C38.8392 70.7118 37.4149 70.545 36.4877 70.2118C35.5605 69.945 35.0967 69.3785 35.0967 68.5118V52.0118C35.0967 51.145 35.5272 50.5785 36.3883 50.3118C37.3156 49.9785 38.6404 49.8118 40.3625 49.8118C42.2833 49.8118 43.7075 49.9785 44.6348 50.3118C45.562 50.5785 46.0257 51.145 46.0257 52.0118V68.5118ZM46.0257 85.0158C46.0257 85.8823 45.562 86.449 44.6348 86.7158C43.7736 87.049 42.482 87.2158 40.7599 87.2158C38.8392 87.2158 37.4149 87.049 36.4877 86.7158C35.5605 86.449 35.0967 85.8823 35.0967 85.0158V68.5155C35.0967 67.649 35.5272 67.0823 36.3883 66.8155C37.3156 66.4823 38.6404 66.3155 40.3625 66.3155C42.2833 66.3155 43.7075 66.4823 44.6348 66.8155C45.562 67.0823 46.0257 67.649 46.0257 68.5155V85.0158ZM46.0257 101.52C46.0257 102.386 45.562 102.953 44.6348 103.22C43.7736 103.553 42.482 103.72 40.7599 103.72C38.8392 103.72 37.4149 103.553 36.4877 103.22C35.5605 102.953 35.0967 102.386 35.0967 101.52L35.0967 85.0196C35.0967 84.1528 35.5272 83.5863 36.3883 83.3196C37.3156 82.9863 38.6404 82.8196 40.3625 82.8196C42.2833 82.8196 43.7075 82.9863 44.6348 83.3196C45.562 83.5863 46.0257 84.1528 46.0257 85.0196L46.0257 101.52ZM46.0257 126.324C46.0257 128.124 46.3901 129.357 47.1186 130.024C47.8472 130.757 48.7414 131.124 49.8012 131.124C50.7948 131.124 51.7553 130.924 52.6825 130.524C53.6761 130.19 54.7359 129.424 55.8619 128.224L74.6399 109.324H85.9664L98.3857 142.424L88.2515 144.724L78.9122 119.224L64.1083 133.924C61.1277 136.924 58.6108 139.49 56.5574 141.624C54.5039 143.824 52.8149 145.724 51.4903 147.324C50.1656 148.99 49.1057 150.424 48.3109 151.624C47.5824 152.89 47.0523 154.057 46.7212 155.124C46.3901 156.19 46.1914 157.224 46.1251 158.224C46.0588 159.29 46.0257 160.49 46.0257 161.824C46.0257 162.69 45.562 163.257 44.6348 163.524C43.7736 163.857 42.482 164.024 40.7599 164.024C38.8392 164.024 37.4149 163.857 36.4877 163.524C35.5605 163.257 35.0967 162.69 35.0967 161.824C35.0967 159.824 35.1961 157.99 35.3948 156.324C35.5935 154.724 35.9909 153.157 36.587 151.624C37.2495 150.09 38.2097 148.457 39.4683 146.724C40.793 144.99 42.5483 143.024 44.7341 140.824C41.2897 140.357 38.8059 138.857 37.2825 136.324C35.8252 133.857 35.0967 130.924 35.0967 127.524L35.0967 101.524C35.0967 100.657 35.5272 100.09 36.3883 99.8236C37.3156 99.4901 38.6404 99.3236 40.3625 99.3236C42.2833 99.3236 43.7075 99.4901 44.6348 99.8236C45.562 100.09 46.0257 100.657 46.0257 101.524L46.0257 126.324ZM46.0257 170.977C46.0257 175.444 48.1785 177.677 52.4838 177.677H64.2077V187.877H51.7883C46.2908 187.877 42.1179 186.477 39.2696 183.677C36.4877 180.877 35.0967 176.944 35.0967 171.877V161.777C35.0967 160.911 35.5272 160.344 36.3883 160.077C37.3156 159.744 38.6404 159.577 40.3625 159.577C42.2833 159.577 43.7075 159.744 44.6348 160.077C45.562 160.344 46.0257 160.911 46.0257 161.777V170.977ZM75.8322 188.177L75.8322 177.777H85.569V188.177H75.8322ZM75.8322 173.877V163.477H85.569V173.877H75.8322Z" fill="#F01E2C"/>
<path d="M67.0493 39.3399C67.0493 38.4199 66.7512 37.6599 66.1551 37.0599C65.5589 36.4599 64.7641 36.1599 63.7705 36.1599C62.9757 36.1599 62.1809 36.4199 61.386 36.9399C60.5912 37.4599 59.856 38.2999 59.1804 39.4599C59.856 40.6199 60.5912 41.3999 61.386 41.7999C62.1809 42.1999 62.9757 42.3999 63.7705 42.3999C64.7641 42.3999 65.5589 42.0999 66.1551 41.4999C66.7512 40.9399 67.0493 40.2199 67.0493 39.3399ZM75.2758 39.7599C75.2758 41.4399 74.9778 42.8999 74.3816 44.1399C73.7855 45.3799 73.0105 46.3999 72.0567 47.1999C71.1029 48.0399 70.0299 48.6599 68.8376 49.0599C67.6851 49.4999 66.5326 49.7199 65.3801 49.7199C63.7507 49.7199 62.3796 49.4999 61.2668 49.0599C60.1938 48.6199 59.1605 48.0599 58.1669 47.3799L58.1669 53.9799C58.1669 54.4999 57.849 54.8399 57.2131 54.9999C56.5773 55.1999 55.5837 55.2999 54.2325 55.2999C52.762 55.2999 51.689 55.1999 51.0134 54.9999C50.3378 54.8399 50 54.4999 50 53.9799V48.3999C50 46.5599 50.0795 44.8999 50.2384 43.4199C50.4371 41.9799 50.7948 40.8799 51.3114 40.1199C50.9935 39.5199 50.7352 38.8199 50.5365 38.0199C50.3775 37.2199 50.2583 36.3799 50.1788 35.4999C50.0993 34.6199 50.0397 33.7799 50 32.9799C50 32.1799 50 31.4799 50 30.8799L50 14.3799C50 12.7399 50.2384 11.3199 50.7153 10.1199C51.232 8.95989 51.9076 7.99989 52.7422 7.23989C53.5767 6.51989 54.5504 5.97989 55.6632 5.61989C56.776 5.29989 57.9484 5.13989 59.1804 5.13989L68.0031 5.13989V12.6999L61.1476 12.6999C60.6707 12.6999 60.2335 12.7199 59.8361 12.7599C59.4784 12.8399 59.1605 12.9999 58.8823 13.2399C58.6438 13.4799 58.465 13.8199 58.3458 14.2599C58.2265 14.6999 58.1669 15.2999 58.1669 16.0599L58.1669 31.2399C59.5182 30.2399 60.7104 29.5999 61.7437 29.3199C62.8167 29.0399 63.9295 28.8999 65.082 28.8999C66.3935 28.8999 67.6653 29.1599 68.8973 29.6799C70.1293 30.1999 71.2023 30.9199 72.1163 31.8399C73.0702 32.7999 73.8253 33.9399 74.3816 35.2599C74.9778 36.6199 75.2758 38.1199 75.2758 39.7599ZM79.2103 43.4199L79.2103 35.4999H86.4234L86.4234 43.4199H79.2103ZM58.1669 59.6439C58.1669 60.8039 58.4253 61.6239 58.9419 62.1039C59.4983 62.6239 60.3527 62.8839 61.5053 62.8839H67.705V70.5039H60.8495C57.233 70.5039 54.5107 69.6239 52.6825 67.8639C50.8942 66.1439 50 63.6239 50 60.3039L50 54.0039C50 53.4839 50.3179 53.1439 50.9538 52.9839C51.6294 52.7839 52.6229 52.6839 53.9344 52.6839C55.4446 52.6839 56.5176 52.7839 57.1535 52.9839C57.8291 53.1439 58.1669 53.4839 58.1669 54.0039V59.6439ZM36.5871 70.1439V62.8839H43.5022V70.1439H36.5871ZM36.5871 60.9039L36.5871 53.6439H43.5022L43.5022 60.9039H36.5871ZM86.96 77.1156V84.7356H58.1669V88.9956C58.1669 89.9956 58.3458 90.6756 58.7034 91.0356C59.0611 91.4356 59.6573 91.6356 60.4918 91.6356H86.96V99.2556H59.1804C57.6304 99.2556 56.2792 98.9956 55.1267 98.4756C53.9742 97.9956 53.0204 97.3156 52.2653 96.4356C51.5102 95.5956 50.9339 94.6156 50.5365 93.4956C50.1788 92.3756 50 91.1956 50 89.9556V77.1156L86.96 77.1156Z" fill="#F01E2C"/>
<path d="M30.1289 55L30.1289 45H20.1934V55H30.1289Z" fill="#F01E2C"/>
<path d="M30.1289 70L30.1289 60H20.1934V70H30.1289Z" fill="#F01E2C"/>
</g>
<defs>
<clipPath id="clip0_2_62">
<rect width="195" height="100" fill="white" transform="matrix(0 1 -1 0 100 0)"/>
</clipPath>
</defs>
</svg>
