<svg width="205" height="28" viewBox="0 0 205 28" fill="none" xmlns="http://www.w3.org/2000/svg">
<path fill-rule="evenodd" clip-rule="evenodd" d="M7.77606 2.15487C8.99794 2.09637 9.38752 2.08337 12.5 2.08337C15.6125 2.08337 16.0021 2.09746 17.2229 2.15487C18.4438 2.21229 19.2771 2.41487 20.0063 2.70846C20.7698 3.00854 21.4625 3.47762 22.0354 4.08429C22.6188 4.67904 23.0688 5.39837 23.3563 6.19354C23.6396 6.95187 23.8334 7.81854 23.8896 9.08604C23.9459 10.359 23.9584 10.7641 23.9584 14C23.9584 17.237 23.9448 17.6422 23.8896 18.913C23.8344 20.1805 23.6396 21.0471 23.3563 21.8055C23.0688 22.6007 22.618 23.3213 22.0354 23.9169C21.4625 24.5235 20.7698 24.9915 20.0063 25.2905C19.2771 25.5852 18.4438 25.7867 17.225 25.8452C16.0021 25.9037 15.6125 25.9167 12.5 25.9167C9.38752 25.9167 8.99794 25.9026 7.77606 25.8452C6.55731 25.7878 5.72398 25.5852 4.99481 25.2905C4.23015 24.9915 3.53733 24.5227 2.9646 23.9169C2.38167 23.3218 1.93056 22.6016 1.64273 21.8065C1.36044 21.0482 1.16669 20.1815 1.11044 18.914C1.05419 17.6411 1.04169 17.236 1.04169 14C1.04169 10.763 1.05523 10.3579 1.11044 9.08821C1.16565 7.81854 1.36044 6.95187 1.64273 6.19354C1.93098 5.39846 2.38244 4.6783 2.96565 4.08321C3.53756 3.47708 4.22968 3.00794 4.99377 2.70846C5.72294 2.41487 6.55627 2.21337 7.77502 2.15487H7.77606ZM17.1302 4.29987C15.9219 4.24246 15.5594 4.23054 12.5 4.23054C9.44065 4.23054 9.07815 4.24246 7.86981 4.29987C6.7521 4.35296 6.14585 4.54687 5.74169 4.71046C5.20731 4.92712 4.82502 5.18387 4.42398 5.60096C4.04382 5.9856 3.75125 6.45385 3.56773 6.97137C3.41044 7.39171 3.22398 8.02221 3.17294 9.18462C3.11773 10.4413 3.10627 10.8183 3.10627 14C3.10627 17.1818 3.11773 17.5588 3.17294 18.8155C3.22398 19.9779 3.41044 20.6084 3.56773 21.0287C3.75106 21.5455 4.04377 22.0145 4.42398 22.3991C4.79377 22.7945 5.24481 23.099 5.74169 23.2896C6.14585 23.4532 6.7521 23.6471 7.86981 23.7002C9.07815 23.7576 9.4396 23.7695 12.5 23.7695C15.5604 23.7695 15.9219 23.7576 17.1302 23.7002C18.2479 23.6471 18.8542 23.4532 19.2584 23.2896C19.7927 23.073 20.175 22.8162 20.5761 22.3991C20.9563 22.0145 21.249 21.5455 21.4323 21.0287C21.5896 20.6084 21.7761 19.9779 21.8271 18.8155C21.8823 17.5588 21.8938 17.1818 21.8938 14C21.8938 10.8183 21.8823 10.4413 21.8271 9.18462C21.7761 8.02221 21.5896 7.39171 21.4323 6.97137C21.224 6.41562 20.9771 6.01804 20.5761 5.60096C20.2062 5.20562 19.756 4.90135 19.2584 4.71046C18.8542 4.54687 18.2479 4.35296 17.1302 4.29987ZM11.0365 17.6736C11.8538 18.0275 12.764 18.0752 13.6114 17.8087C14.4589 17.5422 15.1911 16.978 15.6829 16.2125C16.1748 15.4469 16.3959 14.5275 16.3084 13.6112C16.2209 12.695 15.8302 11.8388 15.2031 11.1888C14.8034 10.7733 14.32 10.4552 13.7879 10.2573C13.2557 10.0594 12.688 9.98668 12.1255 10.0444C11.5631 10.1021 11.02 10.2887 10.5352 10.5909C10.0505 10.8931 9.63621 11.3033 9.32221 11.792C9.00821 12.2807 8.8023 12.8358 8.71931 13.4172C8.63632 13.9986 8.6783 14.5919 8.84225 15.1543C9.0062 15.7168 9.28802 16.2345 9.66744 16.6702C10.0469 17.1058 10.5144 17.4485 11.0365 17.6736ZM8.33544 9.66887C8.88234 9.1001 9.5316 8.64892 10.2462 8.3411C10.9607 8.03328 11.7266 7.87485 12.5 7.87485C13.2735 7.87485 14.0393 8.03328 14.7539 8.3411C15.4684 8.64892 16.1177 9.1001 16.6646 9.66887C17.2115 10.2376 17.6453 10.9129 17.9413 11.656C18.2373 12.3992 18.3896 13.1957 18.3896 14C18.3896 14.8044 18.2373 15.6009 17.9413 16.3441C17.6453 17.0872 17.2115 17.7624 16.6646 18.3312C15.5601 19.4799 14.062 20.1252 12.5 20.1252C10.938 20.1252 9.43995 19.4799 8.33544 18.3312C7.23092 17.1825 6.61041 15.6245 6.61041 14C6.61041 12.3755 7.23092 10.8176 8.33544 9.66887ZM19.6959 8.78704C19.8314 8.65408 19.9399 8.49419 20.0149 8.31685C20.09 8.1395 20.13 7.94829 20.1327 7.75455C20.1355 7.56081 20.1008 7.36847 20.0307 7.18892C19.9607 7.00937 19.8567 6.84626 19.725 6.70925C19.5932 6.57224 19.4364 6.46411 19.2638 6.39127C19.0911 6.31842 18.9062 6.28235 18.7199 6.28517C18.5336 6.288 18.3497 6.32967 18.1792 6.40771C18.0087 6.48576 17.8549 6.59859 17.7271 6.73954C17.4785 7.01366 17.3423 7.37776 17.3476 7.75455C17.3529 8.13134 17.4992 8.49116 17.7554 8.75762C18.0116 9.02408 18.3576 9.1762 18.7199 9.1817C19.0822 9.18719 19.4323 9.04562 19.6959 8.78704Z" fill="#003F62"/>
<path d="M71.0012 2.33569C64.5589 2.33569 59.3357 7.55886 59.3357 14.0012C59.3357 19.8229 63.601 24.6482 69.1789 25.5267V17.374H66.2155V14.0012H69.1789V11.431C69.1789 8.50503 70.9207 6.89153 73.5842 6.89153C74.8605 6.89153 76.1975 7.11903 76.1975 7.11903V9.98786H74.7229C73.2762 9.98786 72.8235 10.8885 72.8235 11.8114V13.9989H76.0564L75.5395 17.3717H72.8235V25.5244C78.4014 24.6505 82.6667 19.824 82.6667 14.0012C82.6667 7.55886 77.4435 2.33569 71.0012 2.33569Z" fill="#003F62"/>
<path d="M136.51 16.4035C136.212 16.2504 134.727 15.523 134.451 15.4246C134.175 15.3207 133.972 15.2715 133.773 15.5777C133.57 15.8813 132.996 16.5566 132.816 16.7617C132.641 16.9641 132.463 16.9887 132.165 16.8383C130.393 15.9523 129.231 15.2578 128.063 13.2535C127.754 12.7203 128.372 12.7586 128.949 11.6074C129.048 11.4051 128.998 11.2328 128.922 11.0797C128.845 10.9266 128.244 9.44453 127.992 8.84023C127.749 8.25234 127.497 8.33437 127.314 8.32344C127.139 8.3125 126.939 8.3125 126.737 8.3125C126.535 8.3125 126.209 8.38906 125.933 8.68711C125.657 8.99063 124.878 9.7207 124.878 11.2027C124.878 12.6848 125.958 14.1203 126.105 14.3227C126.259 14.525 128.23 17.5656 131.257 18.8754C133.171 19.7012 133.92 19.7723 134.877 19.6301C135.46 19.5426 136.66 18.9027 136.909 18.1945C137.158 17.4891 137.158 16.8848 137.084 16.759C137.01 16.625 136.808 16.5484 136.51 16.4035Z" fill="#003F62"/>
<path d="M142.298 9.25312C141.68 7.78477 140.795 6.4668 139.665 5.33477C138.536 4.20547 137.218 3.3168 135.747 2.70156C134.243 2.06992 132.646 1.75 131 1.75H130.945C129.288 1.7582 127.683 2.08633 126.174 2.73164C124.716 3.35508 123.409 4.24102 122.291 5.37031C121.173 6.49961 120.295 7.81211 119.688 9.275C119.059 10.7898 118.742 12.4004 118.75 14.0574C118.758 15.9551 119.212 17.8391 120.063 19.5234V23.6797C120.063 24.3742 120.626 24.9375 121.32 24.9375H125.479C127.164 25.7879 129.048 26.2418 130.945 26.25H131.003C132.641 26.25 134.229 25.9328 135.725 25.3121C137.188 24.7023 138.503 23.8273 139.63 22.709C140.759 21.5906 141.648 20.2836 142.268 18.8262C142.914 17.3168 143.242 15.7117 143.25 14.0547C143.258 12.3895 142.936 10.7734 142.298 9.25312ZM138.167 21.2297C136.25 23.1273 133.707 24.1719 131 24.1719H130.954C129.305 24.1637 127.667 23.7535 126.22 22.9824L125.991 22.8594H122.141V19.0094L122.018 18.7797C121.246 17.3332 120.836 15.6953 120.828 14.0465C120.817 11.3203 121.859 8.76094 123.77 6.8332C125.679 4.90547 128.23 3.83906 130.956 3.82812H131.003C132.37 3.82812 133.696 4.09336 134.946 4.61836C136.165 5.12969 137.259 5.86523 138.2 6.80586C139.138 7.74375 139.876 8.84023 140.387 10.0598C140.918 11.323 141.183 12.6629 141.177 14.0465C141.161 16.7699 140.092 19.3211 138.167 21.2297Z" fill="#003F62"/>
<path d="M190.262 12.7832C189.945 12.9172 189.69 13.1168 189.502 13.3848C189.313 13.6527 189.217 13.9754 189.217 14.3555C189.217 14.8422 189.422 15.2168 189.83 15.482C190.215 15.7309 190.62 15.7937 191.044 15.668C191.533 15.5258 191.864 15.1785 192.039 14.6262C192.121 14.3719 192.162 14.0875 192.162 13.7703V12.3977C191.818 12.4086 191.495 12.4414 191.191 12.4988C190.888 12.5563 190.579 12.652 190.262 12.7832ZM191 1.75C184.235 1.75 178.75 7.23516 178.75 14C178.75 20.7648 184.235 26.25 191 26.25C197.765 26.25 203.25 20.7648 203.25 14C203.25 7.23516 197.765 1.75 191 1.75ZM191.979 8.9332C191.782 8.63516 191.429 8.48477 190.921 8.48477C190.885 8.48477 190.839 8.4875 190.776 8.49297C190.716 8.49844 190.595 8.53398 190.423 8.59414C190.25 8.65603 190.086 8.73965 189.934 8.84297C189.783 8.94687 189.619 9.11641 189.441 9.34609C189.266 9.57852 189.127 9.84922 189.023 10.1609L186.453 9.93125C186.453 9.59219 186.518 9.25586 186.644 8.92227C186.773 8.58867 186.967 8.26875 187.229 7.96523C187.492 7.65898 187.806 7.39102 188.173 7.16133C188.539 6.92891 188.982 6.7457 189.496 6.60625C190.013 6.4668 190.565 6.39844 191.161 6.39844C191.744 6.39844 192.271 6.46953 192.742 6.60898C193.212 6.75117 193.592 6.92344 193.874 7.13125C194.145 7.32702 194.384 7.56415 194.582 7.83398C194.771 8.09648 194.902 8.33984 194.976 8.56406C195.05 8.78828 195.085 8.99336 195.085 9.1875V14.1777C195.085 14.3527 195.123 14.5332 195.203 14.7191C195.282 14.9051 195.375 15.0691 195.482 15.2113C195.588 15.3535 195.698 15.482 195.81 15.6023C195.922 15.7199 196.018 15.8129 196.1 15.873L196.212 15.966L194.229 17.8637C193.997 17.6531 193.767 17.4426 193.54 17.2238C193.313 17.0051 193.144 16.841 193.034 16.7289L192.868 16.5594C192.802 16.4965 192.731 16.4035 192.649 16.2805C192.427 16.6141 192.143 16.9039 191.798 17.15C191.451 17.3961 191.079 17.5766 190.686 17.6887C190.289 17.8008 189.882 17.8664 189.463 17.8828C189.045 17.8992 188.643 17.8418 188.263 17.7051C187.883 17.5684 187.538 17.3852 187.235 17.15C186.931 16.9148 186.691 16.5977 186.51 16.193C186.33 15.7883 186.239 15.3316 186.239 14.8148C186.239 14.3391 186.321 13.9043 186.483 13.5105C186.647 13.1141 186.855 12.7859 187.112 12.5234C187.369 12.2609 187.678 12.0258 188.041 11.8207C188.405 11.6156 188.763 11.4543 189.113 11.3367C189.463 11.2219 189.841 11.1234 190.248 11.0441C190.655 10.9648 191.003 10.9129 191.293 10.8883C191.582 10.8637 191.872 10.8445 192.162 10.8336V9.75625C192.162 9.38711 192.099 9.11367 191.979 8.9332ZM196.914 19.3129C196.838 19.4031 196.709 19.5262 196.529 19.682C196.348 19.8379 196.07 20.0293 195.695 20.259C195.32 20.4887 194.907 20.6965 194.464 20.8852C194.019 21.0738 193.472 21.2379 192.821 21.3773C192.173 21.5168 191.503 21.5852 190.817 21.5852C190.122 21.5852 189.43 21.4977 188.736 21.3227C188.041 21.1477 187.434 20.9316 186.909 20.6746C186.387 20.4176 185.881 20.1223 185.403 19.7941C184.921 19.4633 184.536 19.168 184.243 18.9055C183.954 18.643 183.707 18.3941 183.511 18.1645C183.464 18.1125 183.434 18.066 183.423 18.025C183.412 17.984 183.415 17.9484 183.431 17.9238C183.448 17.8992 183.472 17.8801 183.502 17.8637C183.535 17.8492 183.571 17.8436 183.606 17.8474C183.642 17.8512 183.676 17.8644 183.705 17.8855C184.823 18.5473 185.698 19.0148 186.327 19.291C188.594 20.2863 190.921 20.5406 193.308 20.0539C194.415 19.827 195.553 19.4469 196.723 18.9109C196.811 18.8781 196.887 18.8699 196.95 18.8863C197.013 18.9027 197.046 18.952 197.046 19.034C197.046 19.1105 197.002 19.2062 196.914 19.3129ZM198.552 18.5199C198.503 18.8234 198.418 19.1105 198.304 19.3895C198.107 19.857 197.858 20.2098 197.562 20.4395C197.464 20.5187 197.388 20.5434 197.336 20.516C197.284 20.4887 197.284 20.4203 197.336 20.3137C197.459 20.0594 197.587 19.7176 197.724 19.2828C197.861 18.8508 197.88 18.5719 197.781 18.4488C197.751 18.4078 197.707 18.3777 197.645 18.3504C197.584 18.3258 197.505 18.3094 197.409 18.2984C197.314 18.2875 197.226 18.282 197.152 18.2766C197.076 18.2711 196.975 18.2711 196.846 18.2766C196.718 18.282 196.627 18.2875 196.57 18.293C196.414 18.3082 196.258 18.3218 196.102 18.334C196.067 18.3395 196.029 18.3449 195.99 18.3477C195.949 18.3504 195.916 18.3531 195.895 18.3559L195.821 18.3641C195.793 18.3668 195.774 18.3695 195.761 18.3695H195.673L195.646 18.3641L195.629 18.3504L195.616 18.3258C195.58 18.2355 195.717 18.1234 196.026 17.9867C196.335 17.85 196.636 17.7652 196.925 17.7324C197.193 17.6914 197.508 17.6914 197.869 17.7242C198.23 17.757 198.451 17.8254 198.533 17.9266C198.596 18.0223 198.602 18.2191 198.552 18.5199Z" fill="#003F62"/>
</svg>
