<svg width="29" height="31" viewBox="0 0 29 31" fill="none" xmlns="http://www.w3.org/2000/svg">
<path d="M0.958797 15.4612C2.17654 18.1582 4.25046 21.08 6.64842 23.4779C9.2061 26.0356 12.0278 28.0611 14.5938 29.1805C15.9909 29.7902 17.2407 30.095 18.2929 30.095C19.3388 30.095 20.1892 29.7931 20.7926 29.1892L23.2131 26.7696C23.9483 26.0335 23.8824 24.7707 23.0659 23.9538L19.4994 20.3869C18.682 19.5703 17.4184 19.5048 16.6835 20.2401L15.573 21.3506C15.2652 21.5808 13.3631 20.9949 11.2233 18.8551C9.08224 16.7144 8.49505 14.8111 8.72651 14.5062L9.83832 13.3944C10.5736 12.6588 10.5077 11.3951 9.69111 10.5786L6.12378 7.0121C5.30639 6.19554 4.04361 6.12924 3.30796 6.8653L0.888318 9.28495C-0.319835 10.4927 -0.294813 12.6863 0.95838 15.4612H0.958797ZM2.06811 10.4643L4.48817 8.04468C4.50485 8.028 4.53822 8.01799 4.58117 8.01799C4.67542 8.01799 4.81846 8.06512 4.94482 8.19148L8.51131 11.758C8.69564 11.9423 8.71149 12.1621 8.65853 12.215L7.54671 13.3264C6.16465 14.7093 7.75648 17.7474 10.0435 20.0345C11.1824 21.173 12.4348 22.0829 13.57 22.5955C15.4383 23.4396 16.3654 22.9174 16.7511 22.5308L17.8629 21.4194C17.9163 21.3661 18.1353 21.3823 18.32 21.5662L21.8861 25.1331C22.0704 25.3175 22.0862 25.5368 22.0333 25.5898L19.6132 28.0099C18.9418 28.6817 17.3149 28.5478 15.261 27.6512C12.8814 26.6132 10.2416 24.7119 7.82779 22.2985C5.56662 20.0374 3.6174 17.2945 2.47889 14.7744C1.55891 12.738 1.40503 11.127 2.06769 10.4643H2.06811ZM28.5999 17.31C28.5999 8.26446 21.2405 0.905029 12.195 0.905029V2.57317C20.3209 2.57317 26.9318 9.18444 26.9318 17.31H28.5999Z" fill="black"/>
<path d="M12.5044 5.46143V7.12957C18.2887 7.12957 22.9949 11.8354 22.9949 17.6197H24.6631C24.6631 10.9154 19.2082 5.46143 12.5044 5.46143Z" fill="black"/>
<path d="M18.7483 17.62H20.4165C20.4165 13.2578 16.8675 9.70801 12.5049 9.70801V11.3762C15.9475 11.3762 18.7483 14.1774 18.7483 17.62Z" fill="black"/>
</svg>
