<svg width="141" height="59" viewBox="0 0 141 59" fill="none" xmlns="http://www.w3.org/2000/svg">
<path d="M14.0342 39.5082C14.6846 39.5082 15.1099 39.8581 15.31 40.5578C15.5602 41.2076 15.6852 42.1822 15.6852 43.4815C15.6852 44.9309 15.5602 46.0055 15.31 46.7052C15.1099 47.4048 14.6846 47.7547 14.0342 47.7547H1.65108C1.00065 47.7547 0.575376 47.4299 0.375245 46.7801C0.125082 46.0805 0 45.0808 0 43.7814C0 42.3321 0.125082 41.2574 0.375245 40.5578C0.575376 39.8581 1.00065 39.5082 1.65108 39.5082H14.0342ZM26.4203 39.5082C27.0706 39.5082 27.4959 39.8581 27.6961 40.5578C27.9462 41.2076 28.0713 42.1822 28.0713 43.4815C28.0713 44.9309 27.9462 46.0055 27.6961 46.7052C27.4959 47.4048 27.0706 47.7547 26.4203 47.7547H14.0371C13.3867 47.7547 12.9614 47.4299 12.7613 46.7801C12.5111 46.0805 12.386 45.0808 12.386 43.7814C12.386 42.3321 12.5111 41.2574 12.7613 40.5578C12.9614 39.8581 13.3867 39.5082 14.0371 39.5082H26.4203ZM38.8062 39.5082C39.4566 39.5082 39.882 39.8581 40.082 40.5578C40.3323 41.2076 40.4572 42.1822 40.4572 43.4815C40.4572 44.9309 40.3323 46.0055 40.082 46.7052C39.882 47.4048 39.4566 47.7547 38.8062 47.7547H26.4231C25.7728 47.7547 25.3474 47.4299 25.1472 46.7801C24.8971 46.0805 24.772 45.0808 24.772 43.7814C24.772 42.3321 24.8971 41.2574 25.1472 40.5578C25.3474 39.8581 25.7728 39.5082 26.4231 39.5082H38.8062ZM51.1922 39.5082C51.8427 39.5082 52.2679 39.8581 52.4681 40.5578C52.7182 41.2076 52.8433 42.1822 52.8433 43.4815C52.8433 44.9309 52.7182 46.0055 52.4681 46.7052C52.2679 47.4048 51.8427 47.7547 51.1922 47.7547H38.8092C38.1587 47.7547 37.7335 47.4299 37.5333 46.7801C37.2832 46.0805 37.1581 45.0808 37.1581 43.7814C37.1581 42.3321 37.2832 41.2574 37.5333 40.5578C37.7335 39.8581 38.1587 39.5082 38.8092 39.5082H51.1922ZM63.5783 39.5082C64.2286 39.5082 64.654 39.8581 64.8542 40.5578C65.1043 41.2076 65.2294 42.1822 65.2294 43.4815C65.2294 44.9309 65.1043 46.0055 64.8542 46.7052C64.654 47.4048 64.2286 47.7547 63.5783 47.7547H51.1951C50.5448 47.7547 50.1194 47.4299 49.9192 46.7801C49.6691 46.0805 49.544 45.0808 49.544 43.7814C49.544 42.3321 49.6691 41.2574 49.9192 40.5578C50.1194 39.8581 50.5448 39.5082 51.1951 39.5082H63.5783ZM75.9642 39.5082C76.6147 39.5082 77.0399 39.8581 77.2401 40.5578C77.4902 41.2076 77.6153 42.1822 77.6153 43.4815C77.6153 44.9309 77.4902 46.0055 77.2401 46.7052C77.0399 47.4048 76.6147 47.7547 75.9642 47.7547H63.5812C62.9307 47.7547 62.5055 47.4299 62.3053 46.7801C62.0552 46.0805 61.9301 45.0808 61.9301 43.7814C61.9301 42.3321 62.0552 41.2574 62.3053 40.5578C62.5055 39.8581 62.9307 39.5082 63.5812 39.5082H75.9642ZM94.5794 39.5082C95.9303 39.5082 96.8558 39.2333 97.3562 38.6836C97.9065 38.1339 98.1818 37.4592 98.1818 36.6594C98.1818 35.9098 98.0316 35.185 97.7314 34.4854C97.4812 33.7357 96.9059 32.936 96.0053 32.0864L81.8211 17.9174V9.37102L106.662 0L108.388 7.64675L89.2509 14.6938L100.283 25.864C102.535 28.1131 104.461 30.0122 106.062 31.5616C107.713 33.111 109.139 34.3855 110.34 35.385C111.59 36.3845 112.666 37.1842 113.567 37.784C114.517 38.3337 115.393 38.7336 116.194 38.9835C116.994 39.2333 117.77 39.3832 118.52 39.4333C119.32 39.4833 120.221 39.5082 121.222 39.5082C121.872 39.5082 122.297 39.8581 122.498 40.5578C122.748 41.2076 122.873 42.1822 122.873 43.4815C122.873 44.9309 122.748 46.0055 122.498 46.7052C122.297 47.4048 121.872 47.7547 121.222 47.7547C119.721 47.7547 118.345 47.6798 117.094 47.5298C115.893 47.3799 114.717 47.08 113.567 46.6302C112.416 46.1304 111.19 45.4058 109.889 44.4561C108.588 43.4566 107.113 42.1321 105.461 40.4828C105.111 43.0818 103.985 44.956 102.084 46.1054C100.233 47.205 98.0316 47.7547 95.48 47.7547H75.9672C75.3168 47.7547 74.8914 47.4299 74.6914 46.7801C74.4411 46.0805 74.3162 45.0808 74.3162 43.7814C74.3162 42.3321 74.4411 41.2574 74.6914 40.5578C74.8914 39.8581 75.3168 39.5082 75.9672 39.5082H94.5794ZM128.092 39.5082C131.444 39.5082 133.12 37.8839 133.12 34.6353V25.7891H140.775V35.1601C140.775 39.3083 139.724 42.4569 137.623 44.6061C135.521 46.7052 132.57 47.7547 128.767 47.7547H121.187C120.537 47.7547 120.111 47.4299 119.911 46.7801C119.661 46.0805 119.536 45.0808 119.536 43.7814C119.536 42.3321 119.661 41.2574 119.911 40.5578C120.111 39.8581 120.537 39.5082 121.187 39.5082H128.092ZM141 17.0178H133.195V9.6709H141V17.0178ZM130.268 17.0178H122.463V9.6709H130.268V17.0178Z" fill="#F01E2C"/>
<path d="M29.2991 23.6447C28.6086 23.6447 28.0383 23.8696 27.588 24.3194C27.1377 24.7692 26.9125 25.369 26.9125 26.1187C26.9125 26.7184 27.1077 27.3182 27.4979 27.9179C27.8882 28.5176 28.5186 29.0724 29.3891 29.5822C30.2597 29.0724 30.8451 28.5176 31.1453 27.9179C31.4455 27.3182 31.5956 26.7184 31.5956 26.1187C31.5956 25.369 31.3704 24.7692 30.9201 24.3194C30.4999 23.8696 29.9595 23.6447 29.2991 23.6447ZM29.6143 17.4373C30.8751 17.4373 31.9708 17.6623 32.9014 18.1121C33.832 18.5619 34.5975 19.1466 35.1979 19.8663C35.8283 20.586 36.2937 21.3957 36.5938 22.2953C36.9241 23.1649 37.0892 24.0346 37.0892 24.9042C37.0892 26.1337 36.9241 27.1682 36.5938 28.0079C36.2636 28.8175 35.8434 29.5972 35.333 30.3469H40.2863C40.6765 30.3469 40.9317 30.5868 41.0518 31.0666C41.2019 31.5464 41.2769 32.296 41.2769 33.3156C41.2769 34.4251 41.2019 35.2348 41.0518 35.7446C40.9317 36.2544 40.6765 36.5093 40.2863 36.5093H36.0985C34.7176 36.5093 33.4718 36.4493 32.3611 36.3293C31.2804 36.1794 30.4548 35.9095 29.8845 35.5197C29.4342 35.7596 28.9088 35.9545 28.3084 36.1044C27.708 36.2244 27.0776 36.3143 26.4172 36.3743C25.7568 36.4343 25.1264 36.4793 24.526 36.5093C23.9256 36.5093 23.4002 36.5093 22.9499 36.5093H10.5669C9.33605 36.5093 8.27035 36.3293 7.36976 35.9695C6.4992 35.5796 5.77873 35.0699 5.20835 34.4401C4.668 33.8104 4.26274 33.0757 3.99256 32.2361C3.7524 31.3964 3.63232 30.5118 3.63232 29.5822V22.925H9.30603V28.0978C9.30603 28.4577 9.32104 28.7875 9.35106 29.0874C9.4111 29.3573 9.53118 29.5972 9.71129 29.8071C9.89141 29.987 10.1466 30.122 10.4768 30.2119C10.807 30.3019 11.2573 30.3469 11.8277 30.3469H23.2201C22.4696 29.3273 21.9893 28.4277 21.7792 27.648C21.569 26.8384 21.464 25.9987 21.464 25.1291C21.464 24.1395 21.6591 23.1799 22.0493 22.2503C22.4396 21.3207 22.98 20.511 23.6704 19.8213C24.3909 19.1016 25.2464 18.5319 26.2371 18.1121C27.2578 17.6623 28.3835 17.4373 29.6143 17.4373ZM32.3611 14.4686H26.4172V9.02592H32.3611V14.4686ZM44.537 30.3469C45.4076 30.3469 46.023 30.152 46.3832 29.7621C46.7735 29.3423 46.9686 28.6976 46.9686 27.8279V23.1499H52.6874V28.3227C52.6874 31.0516 52.0269 33.1057 50.7061 34.4851C49.4152 35.8345 47.524 36.5093 45.0324 36.5093H40.3043C39.914 36.5093 39.6588 36.2694 39.5388 35.7896C39.3887 35.2798 39.3136 34.5301 39.3136 33.5405C39.3136 32.401 39.3887 31.5913 39.5388 31.1115C39.6588 30.6018 39.914 30.3469 40.3043 30.3469H44.537ZM52.4172 46.63H46.9686V41.4122H52.4172V46.63ZM45.4827 46.63H40.0341V41.4122H45.4827V46.63ZM57.6494 8.62109H63.3681V30.3469H66.5652C67.3157 30.3469 67.8261 30.2119 68.0962 29.942C68.3964 29.6722 68.5465 29.2223 68.5465 28.5926V8.62109H74.2653V29.5822C74.2653 30.7517 74.0701 31.7713 73.6799 32.6409C73.3196 33.5105 72.8093 34.2302 72.1489 34.8C71.5185 35.3697 70.783 35.8046 69.9424 36.1044C69.1019 36.3743 68.2163 36.5093 67.2857 36.5093H57.6494V8.62109Z" fill="#F01E2C"/>
<path d="M41.052 51.5034H33.5471V59.0002H41.052V51.5034Z" fill="#F01E2C"/>
<path d="M52.3093 51.5034H44.8044V59.0002H52.3093V51.5034Z" fill="#F01E2C"/>
</svg>
