<svg width="542" height="543" viewBox="0 0 542 543" fill="none" xmlns="http://www.w3.org/2000/svg">
<g clip-path="url(#clip0_5_4019)">
<path d="M186.513 161.017C183.672 156.889 179.045 157.511 176.306 160.734C173.567 163.957 173.426 167.616 174.201 171.292L175.204 176.16C175.806 179.264 176.312 182.416 176.039 183.445C175.61 185.064 173.424 191.121 171.917 193.264C170.41 195.406 165.618 198.4 164.178 200.178L161.704 203.473C160.55 204.986 159.38 206.363 158.7 206.452C157.828 206.566 156.874 205.543 156.208 204.676L155.571 203.792C155.041 203.04 152.856 200.305 151.812 200.293C150.768 200.281 149.476 202.45 148.707 203.815C147.938 205.181 144.514 206.946 143.697 209.099C142.88 211.251 140.116 213.867 138.703 215.613C137.291 217.358 136.286 218.981 136.686 219.914C137.088 220.845 138.374 222.167 138.008 222.698C137.642 223.229 129.327 230.015 128.517 230.982C127.976 231.626 127.469 233.212 126.995 235.743C127.931 237.04 128.676 237.812 129.231 238.058C129.862 238.338 134.292 234.528 138.03 231.223L141.246 228.366L143.125 226.757C148.521 222.22 160.322 212.692 164.437 208.24L168.909 203.237C172.78 198.828 178.434 192.273 185.87 183.57C187.688 180.894 188.88 177.974 189.447 174.81C190.297 170.06 189.353 165.144 186.513 161.017ZM186.326 172.453C184.606 177.524 179.969 183.534 178.97 183.189C177.971 182.843 178.035 180.286 177.829 177.686L177.444 173.928C177.304 172.106 177.314 170.123 177.924 168.152C178.99 164.704 180.898 162.673 183.388 163.336C185.877 163.998 188.046 167.38 186.326 172.453Z" fill="#0B0B0B"/>
<path d="M332.396 326.293C329.896 323.731 328.548 322.09 328.351 321.369C328.055 320.288 327.198 318.703 325.941 317.547C324.685 316.391 322.718 314.411 321.099 311.36C319.48 308.31 314.267 299.101 311.498 295.842C309.652 293.668 307.534 291.261 305.146 288.62C305.409 286.908 305.373 285.736 305.034 285.107C304.695 284.477 303.711 283.983 302.081 283.627C302.806 279.565 302.752 276.808 301.919 275.356C301.086 273.904 300.292 273.505 299.536 274.161C298.785 273.408 297.935 272.982 296.988 272.883C295.566 272.735 293.021 269.781 292.618 268.566C292.215 267.351 293.448 264.879 293.713 262.697C293.977 260.515 291.999 258.431 290.836 257.684C290.06 257.185 287.937 256.957 284.47 256.997L284.407 255.797C286.788 253.504 288.12 251.839 288.403 250.803C288.685 249.766 288.107 248.512 286.671 247.039C286.362 245.471 285.909 244.433 285.313 243.927C284.717 243.42 284.138 243.129 283.577 243.057C283.03 242.418 283.211 240.898 284.12 238.497C285.484 234.894 285.521 229.78 286.436 227.698C287.352 225.617 289.778 216.892 290.748 215.385C291.719 213.879 291.85 211.255 291.882 210.759C291.914 210.263 293.669 207.752 294.014 206.492C294.358 205.232 294.183 202.488 293.545 202.453C292.907 202.419 288.961 201.543 282.324 203.025C275.686 204.506 267.63 210.329 263.992 214.209C260.354 218.089 253.751 227.51 252.812 229.292C251.873 231.074 245.012 242.912 242.794 249.347C240.576 255.783 235.175 289.461 234.439 293.757C233.949 296.62 232.98 302.881 231.536 312.541L245.341 323.949C259.14 319.761 272.905 317.526 286.636 317.243C300.362 316.957 315.617 319.974 332.396 326.293Z" fill="#351220"/>
<path d="M290.406 209.906L289.279 209.914C285.632 209.983 274.319 210.907 269.6 217.926L266.661 222.341C263.47 227.212 261.084 231.21 259.266 235.429L258.174 238.071C255.705 244.201 251.722 254.837 249.596 259.49L248.449 261.934C245.3 269 236.332 292.11 237.669 294.245C239.117 296.56 257.209 312.51 260.945 313.478C264.51 314.401 267.231 313.159 261.839 306.996L261.012 306.082C254.916 299.537 247.993 289.737 246.349 286.65L245.267 284.427C244.137 281.99 243.292 278.592 249.442 275.235C256.745 271.249 266.825 268.727 269.587 267.007L270.038 266.673C271.895 264.948 282.42 262.586 281.945 261.226C281.47 259.867 281.189 255.735 281.425 254.665C281.583 253.953 283.013 251.961 285.717 248.69L286.349 245.774C286.071 244.896 285.724 244.28 285.306 243.925C284.709 243.418 284.131 243.127 283.57 243.055C283.023 242.416 283.204 240.895 284.113 238.495C285.477 234.892 285.514 229.777 286.429 227.696C287.261 225.804 289.342 218.42 290.442 215.963L290.741 215.383C291.712 213.877 291.843 211.252 291.875 210.756C291.883 210.623 292.017 210.343 292.214 209.983C291.714 209.935 291.109 209.91 290.406 209.906Z" fill="#6F374E"/>
<path d="M287.478 217.499C288.011 218.729 284.339 220.928 281.162 218.924C277.984 216.921 277.828 213.799 279.879 213.005C281.929 212.211 286.946 216.268 287.478 217.499Z" fill="#915970"/>
<path d="M283.695 228.3C284.228 229.53 279.454 231.78 276.521 230.574C273.588 229.368 273.6 224.922 275.325 223.304C277.049 221.685 283.162 227.069 283.695 228.3Z" fill="#915970"/>
<path d="M279.226 239.281C279.149 241.248 275.229 243.529 272.296 242.324C269.364 241.118 269.721 236.278 271.446 234.66C273.17 233.041 279.302 237.315 279.226 239.281Z" fill="#915970"/>
<path d="M255.964 265.133C260.501 265.641 260.041 262.957 263.327 260.78C266.058 258.971 265.135 255.963 267.462 256.271C270.505 256.672 271.76 256.675 274.155 255.241C277.036 253.517 276.646 251.807 277.702 250.431C280.468 246.829 282.687 251.365 283.793 249.721C284.265 249.019 282.37 246.098 278.689 245.076C274.399 243.884 267.623 243.907 267.663 243.8C269.188 239.765 269.694 235.992 269.853 234.591C270.05 232.84 269.773 232.62 269.346 227.701C269.143 225.36 270.019 219.332 274.733 215.218C280.252 210.403 288.652 208.393 287.93 208.438C286.8 208.509 277.804 208.215 271.807 212.776C264.144 218.605 259.245 229.657 258.976 230.425C258.247 232.505 251.428 264.626 255.964 265.133Z" fill="#421A2C"/>
<path d="M293.54 202.451L291.619 202.238C289.741 202.093 286.586 202.07 282.319 203.023C275.681 204.504 267.625 210.327 263.987 214.207C260.593 217.828 254.613 226.276 253.067 228.836L248.647 236.875C246.437 241.016 243.962 245.937 242.788 249.344C242.515 250.137 242.193 251.344 241.837 252.858L242.457 254.004C243.973 257.272 248.919 258.307 249.478 256.365L250.234 254.058C251.726 249.681 254.849 240.998 255.929 238.73C257.279 235.895 265.803 223.595 269.992 217.75C274.181 211.904 282.882 209.754 286.711 209.297C288.494 209.084 290.317 209.328 292.186 210.029L293.193 208.257C293.552 207.609 293.879 206.962 294.008 206.488C294.354 205.229 294.178 202.485 293.54 202.451Z" fill="#380A1D"/>
<path d="M293.54 202.451L291.619 202.238L289.974 202.165C288.093 202.141 285.52 202.308 282.319 203.023C275.681 204.504 267.625 210.327 263.987 214.207C260.593 217.828 254.613 226.276 253.067 228.836L251.576 231.557C259.773 220.354 266.582 213.082 272.003 209.741C278.041 206.02 285.423 204.155 294.149 204.146C294.084 203.236 293.876 202.469 293.54 202.451Z" fill="#653348"/>
<path d="M244.472 281.492L241.367 279.965L240.129 283.537C238.314 288.938 237.12 293.367 237.669 294.245C239.117 296.56 257.209 312.51 260.945 313.478C264.51 314.401 267.231 313.159 261.839 306.996L261.012 306.082C254.917 299.537 247.993 289.737 246.349 286.65L245.267 284.427C244.864 283.557 244.497 282.563 244.472 281.492Z" fill="#4C2435"/>
<path d="M383.565 400.001C386.027 394.533 387.282 390.838 387.332 388.915C387.406 386.031 385.24 381.601 375.155 371.248C365.071 360.894 341.307 337.693 337.638 332.532C335.882 329.229 335.405 327.481 333.416 325.513C331.427 323.545 317.611 317.912 313.054 316.194C308.498 314.474 296.049 312.238 281.458 313.084C271.73 313.649 258.904 316.238 242.975 320.852C262.424 342.348 279.211 357.258 293.341 365.583C314.534 378.072 348.179 392.209 358.321 396.128C365.085 398.741 373.499 400.032 383.565 400.001Z" fill="#E6E4E7"/>
<path d="M313.056 316.195C310.26 315.141 304.493 313.89 297.083 313.277L295.816 311.197C303.987 325.206 315.478 338.09 330.288 349.851L333.942 352.727C351.879 366.717 373.443 381.566 382.224 379.062C380.765 377.266 378.921 375.186 376.604 372.752L372.797 368.844C361.779 357.672 341.045 337.326 337.639 332.533C335.884 329.23 335.406 327.482 333.418 325.514C331.429 323.547 317.612 317.913 313.056 316.195Z" fill="#F5F3F6"/>
<path d="M321.844 324.834C314.878 322.449 300.523 318.946 291.055 318.976C281.588 319.005 269.489 320.525 267.137 321.055C264.871 321.566 254.733 328.814 253.486 332.13C268.558 347.649 281.834 358.801 293.343 365.583C314.537 378.071 348.181 392.209 358.323 396.128C365.085 398.741 373.499 400.032 383.565 400.001L384.898 396.933C386.48 393.125 387.292 390.453 387.332 388.915C387.377 387.191 386.62 384.913 383.846 381.146C383.121 383.622 380.303 384.435 375.391 383.587C363.466 381.527 317.805 360.674 298.95 349.982L295.974 347.962C287.063 341.771 300.374 321.509 303.244 321.748C308.03 322.148 317.538 323.431 321.844 324.834Z" fill="#D4D1D5"/>
<path d="M376.98 388.901C370.741 388.36 342.834 379.08 331.805 374.589L329.422 373.574C320.811 369.675 308.025 365.956 301.391 368.175C300.442 368.492 300.818 369.325 302.19 370.527L306.881 372.982C326.753 383.193 350.156 392.972 358.323 396.128C365.085 398.741 373.499 400.032 383.565 400.001L384.898 396.933C386.48 393.125 387.292 390.453 387.332 388.915C387.36 387.841 387.077 386.552 386.189 384.822C384.707 386.77 381.842 389.322 376.98 388.901Z" fill="#BEBBC0"/>
<path d="M313.987 316.551L313.056 316.195C308.499 314.476 296.05 312.239 281.459 313.085C272.832 313.586 261.767 315.679 248.261 319.365C249.123 320.577 250.591 321.845 252.644 323.175L257.78 321.632C270.112 318.009 278.662 316.138 283.429 316.02L313.987 316.551Z" fill="#BFBAC2"/>
<path d="M336.309 329.892L335.083 329.238C327.994 325.455 317.811 320.675 310.757 319.275C300.177 317.175 286.607 316.578 277.773 317.629C272.668 318.236 264.292 320.084 252.645 323.174L247.037 324.687L247.452 325.732L250.883 329.381L255.221 327.033C265.877 321.834 286.935 320.572 294.862 320.691C302.791 320.811 314.501 322.503 325.555 326.694C329.757 328.288 333.684 330.036 337.335 331.938L336.309 329.892Z" fill="#8F8F91"/>
<path d="M235.807 316.962C240.862 306.801 244.003 298.121 245.229 290.922C247.069 280.122 245.401 252.481 245.117 244.669C244.834 236.857 242.654 228.862 235.867 225.222C229.079 221.582 221.461 221.886 212.754 222.911C204.047 223.936 193.1 221.318 188.053 216.299C183.006 211.279 182.992 204.325 184.597 197.339C186.202 190.352 188.186 184.365 186.939 182.068C185.692 179.771 180.637 184.967 179.577 186.776C178.871 187.982 176.541 191.247 172.586 196.569C163.513 206.314 158.667 211.492 158.05 212.104C157.122 213.022 147.448 220.431 146.513 221.419C145.889 222.078 139.722 227.807 128.007 238.606C141.097 244.675 149.278 248.776 152.549 250.911C157.457 254.112 175.396 278.461 185.002 285.387C194.608 292.314 217.057 301.066 221.253 303.562C224.052 305.228 228.903 309.694 235.807 316.962Z" fill="#C5D5C9"/>
<path d="M227.56 240.391C222.75 237.285 201.161 238.153 195.321 247.238C192.585 251.496 193.126 271.317 196.898 292.207L202.281 294.803C210.694 298.748 218.885 302.153 221.254 303.562C224.052 305.227 228.902 309.693 235.807 316.961C240.862 306.8 244.003 298.119 245.229 290.92C246.44 283.813 245.581 269.794 245.148 258.551L243.895 254.983C230.697 265.731 221.574 273.926 219.199 267.96C215.206 257.93 232.371 243.497 227.56 240.391Z" fill="#B1C9B9"/>
<path d="M179.714 186.579L178.638 188.221C177.481 189.914 175.464 192.697 172.588 196.568L158.051 212.103L156.422 213.46C153.656 215.679 148.337 219.799 146.842 221.112L128.01 238.606L133.626 241.23C136.581 241.759 138.799 241.996 140.274 241.938L140.95 241.885C144.83 241.391 158.274 242.506 162.839 243.252L166.252 243.94C168.767 244.513 170.894 245.363 170.831 247.937C170.776 250.224 169.578 254.124 167.238 259.64L171.893 261.225C191.391 267.714 202.124 269.238 204.097 265.798C207.281 260.241 215.181 254.658 224.566 253.636C233.208 252.695 241.626 253.381 245.428 251.361L245.118 244.669C244.962 240.376 244.235 236.027 242.484 232.377L235.27 232.809C223.13 233.431 201.169 233.901 192.327 228.868C180.631 222.209 175.687 213.047 176.762 205.073L177.475 200.158C178.041 196.465 178.787 191.939 179.714 186.579Z" fill="#A1AEA5"/>
<path d="M181.524 184.399L180.793 186.51C180.103 188.542 179.591 190.248 179.257 191.629L179.04 192.604C178.395 195.803 175.164 204.672 177.245 211.872C179.326 219.072 185.419 226.664 195.778 228.934C205.397 231.041 211.715 229.756 216.881 229.44L218.054 229.387C223.441 229.234 229.557 226.815 232.618 231.177C235.678 235.54 238.164 244.895 238.902 249.294C239.64 253.695 238.88 268.707 237.781 277.437C237.049 283.256 236.228 288.703 235.32 293.774L241.938 298.935L245.293 290.507L245.23 290.92C247.071 280.121 245.402 252.48 245.118 244.668C244.835 236.856 242.656 228.86 235.868 225.221C229.08 221.581 221.462 221.885 212.755 222.91C204.048 223.934 193.101 221.317 188.054 216.298C183.007 211.278 182.993 204.324 184.598 197.338L186.413 189.873C187.252 186.291 187.708 183.481 186.941 182.067C186.086 180.493 183.444 182.437 181.524 184.399Z" fill="#BDC7C0"/>
<path d="M235.9 238.091L236.058 238.511C237.278 241.997 237.977 249.933 238.479 252.523C243.001 252.095 244.27 251.424 243.389 253.33C242.748 254.716 241.855 254.707 239.137 258.919C238.959 264.964 238.429 272.292 237.781 277.437C237.049 283.256 236.228 288.703 235.32 293.774L242.89 301.199L245.291 290.526L245.46 289.348C246.921 277.65 245.388 252.126 245.118 244.669C244.997 241.325 244.529 237.947 243.499 234.892C240.214 234.882 237.686 235.952 235.9 238.091Z" fill="#94A296"/>
<path d="M184.912 181.768L184.73 182.289C183.966 184.74 183.32 188.264 182.582 192.657C181.632 198.306 181.07 204.596 182.89 210.436C184.711 216.274 190.475 221.043 194.424 222.938C198.044 224.676 203.252 225.647 210.928 225.188L213.084 225.027C221.955 224.237 229.694 224.085 233.585 225.908C237.475 227.732 239.673 230.104 240.941 232.658L242.028 234.972C242.762 236.587 243.713 238.75 244.878 241.462C244.154 234.757 241.73 228.365 235.868 225.221C229.08 221.581 221.462 221.885 212.755 222.91C204.048 223.935 193.101 221.317 188.054 216.298C183.007 211.278 182.993 204.324 184.598 197.338L186.413 189.873C187.252 186.291 187.708 183.481 186.941 182.067C186.554 181.355 185.8 181.363 184.912 181.768Z" fill="#E1E1E1"/>
<path d="M229.381 308.075C237.95 292.441 244.789 281.034 249.899 273.856C257.565 263.09 269.053 248.277 269.711 247.065C270.369 245.852 266.619 235.934 265.288 232.555C264.401 230.302 262.088 229.452 258.354 230.005C251.781 229.989 247.35 230.032 245.065 230.135C242.78 230.238 236.761 230.873 227.011 232.041C220.419 233.033 217.021 233.707 216.816 234.062C216.509 234.596 216.497 247.805 217.207 248.677C217.917 249.55 230.996 248.507 233.794 247.694C236.591 246.88 243.73 246.237 245.313 246.929C246.896 247.621 248.132 249.498 245.964 252.896C243.795 256.294 220.17 288.761 216.604 293.932C214.227 297.38 213.197 299.442 213.513 300.119L229.381 308.075Z" fill="#E7E4E7"/>
<path d="M258.352 230.005L251.494 230.014C249.064 230.029 247.172 230.06 245.814 230.106L245.064 230.136C242.779 230.239 236.76 230.874 227.01 232.042L224.194 232.478C219.448 233.234 216.988 233.763 216.815 234.064C216.508 234.598 216.496 247.807 217.206 248.68C217.872 249.498 229.409 248.634 233.153 247.852L233.792 247.697C236.588 246.883 243.728 246.239 245.311 246.931C246.893 247.623 248.13 249.5 245.962 252.898L243.39 256.606C241.652 259.06 239.225 262.445 236.529 266.194C241.606 265.646 250.935 263.569 258.841 261.655L269.02 248.073C269.391 247.56 269.628 247.214 269.708 247.067C270.366 245.854 266.616 235.936 265.285 232.557C264.4 230.302 262.088 229.452 258.352 230.005Z" fill="#D9D5D9"/>
<path d="M261.228 257.236C255.827 258.265 252.46 258.738 251.126 258.656C245.236 258.298 245.48 256.074 245.808 255.479C247.16 253.03 250.832 247.215 245.839 246.379C234.648 244.503 233.089 246.471 229.725 246.793C226.361 247.115 217.195 234.584 225.048 233.218C232.901 231.853 249.545 230.729 252.882 230.993C256.218 231.256 260.778 230.347 262.592 231.292C264.407 232.239 269.602 244.248 269.263 245.415C269.038 246.193 266.359 250.133 261.228 257.236Z" fill="#D1C8CD"/>
<path d="M260.212 239.699C256.511 242.25 256.768 256.977 259.251 257.138C260.907 257.246 262.975 255.504 265.455 251.913C268.258 247.941 268.781 246.822 268.948 246.252C269.118 245.666 263.914 237.148 260.212 239.699Z" fill="#AFA3AA"/>
<path d="M261.386 241.247C261.225 243.242 260.72 243.735 259.497 242.593C258.273 241.453 259.742 239.37 260.313 239.077C260.883 238.782 261.548 239.252 261.386 241.247Z" fill="#4F4F4E"/>
<path d="M233.338 241.791C233.052 243.609 232.348 244.651 231.224 244.92L227.665 245.761C224.417 246.495 220.163 247.337 219.373 246.852L218.044 245.96C217.834 245.831 217.669 245.767 217.529 245.8L217.336 245.929C216.976 246.351 210.132 249.357 207.874 252.923C206.368 255.301 205.56 257.224 205.448 258.694C206.094 257.739 206.705 256.866 207.28 256.076L207.629 255.366C209.371 252.091 211.967 249.985 215.416 249.048L216.614 248.169C216.974 247.984 216.766 246.151 217.312 246.773C217.858 247.394 217.654 248.562 219.972 248.493C222.288 248.423 231.569 246.263 232.664 245.81C233.391 245.508 233.617 244.168 233.338 241.791Z" fill="#F1F1F1"/>
<path d="M171.972 196.646C171.729 196.615 160.594 208.489 160.394 208.944C160.262 209.248 160.108 209.554 159.933 209.865C159.29 210.191 158.869 210.567 158.672 210.994C158.377 211.636 159.703 216.741 159.391 218.21C159.08 219.678 156.387 220.53 154.03 220.286C151.673 220.043 149.847 219.358 149.003 219.562C148.439 219.698 147.817 219.969 147.133 220.375C146.671 220.834 146.227 221.121 145.801 221.237C145.162 221.411 134.291 230.791 132.962 232.382C132.076 233.442 130.54 235.92 128.354 239.815L132.274 241.932C137.905 240.452 142.483 239.718 146.01 239.731C151.3 239.751 162.602 240.469 165.809 241.071C169.016 241.672 173.314 244.109 173.43 247.405C173.507 249.602 171.408 254.466 167.131 262L186.308 285.413C189.071 288.746 196.845 293.447 209.63 299.516C211.346 288.225 211.233 279.449 209.291 273.187L207.16 266.568C206.458 264.3 206.031 262.531 206.048 260.82C203.479 260.772 200.611 260.557 197.464 260.177C182.797 258.405 186.662 242.574 191.32 238.638C193.442 236.844 199.664 234.253 209.983 230.864L205.592 231.331C204.701 231.416 203.879 231.486 203.154 231.533C196.971 231.944 187.664 230.061 183.339 227.729C179.014 225.397 172.624 218.831 172.394 213.084C172.164 207.337 173.786 202.127 173.357 199.841C172.924 197.555 172.216 196.676 171.972 196.646Z" fill="#D4CED6"/>
<path d="M171.972 196.646C171.729 196.615 160.594 208.489 160.394 208.944C160.262 209.248 160.108 209.554 159.933 209.865C159.29 210.191 158.869 210.567 158.672 210.994C158.377 211.636 159.703 216.741 159.391 218.21C159.08 219.678 156.387 220.53 154.03 220.286C151.673 220.043 149.847 219.358 149.002 219.562C148.439 219.698 147.817 219.969 147.133 220.375C146.671 220.834 146.227 221.121 145.801 221.237C145.162 221.411 134.291 230.791 132.962 232.382C132.076 233.442 130.54 235.92 128.354 239.815L132.274 241.932C137.905 240.452 142.483 239.718 146.01 239.731C151.3 239.751 162.602 240.469 165.809 241.071C167.862 241.455 170.36 242.592 171.924 244.224C176.015 240.007 179.891 235.782 183.56 231.555C184.298 230.704 184.891 229.727 185.336 228.626C184.575 228.341 183.912 228.039 183.338 227.73C179.013 225.399 172.623 218.832 172.393 213.085C172.162 207.338 173.785 202.128 173.355 199.842C172.924 197.555 172.216 196.676 171.972 196.646Z" fill="#C5BEC7"/>
<path d="M171.972 196.646C171.729 196.615 160.594 208.489 160.394 208.944C160.262 209.248 160.108 209.554 159.933 209.865C159.29 210.191 158.869 210.567 158.672 210.994C158.377 211.636 159.703 216.741 159.391 218.21C159.08 219.678 156.387 220.53 154.03 220.286C151.673 220.043 149.847 219.358 149.003 219.562C148.439 219.698 147.817 219.969 147.133 220.375C146.671 220.834 146.227 221.121 145.801 221.237C145.162 221.411 134.291 230.791 132.962 232.382C132.076 233.442 130.54 235.92 128.354 239.815L132.274 241.932C137.201 240.636 141.322 239.912 144.638 239.761L146.313 239.731C155.294 230.823 164.465 223.558 173.827 217.934C172.995 216.335 172.458 214.678 172.393 213.084C172.162 207.337 173.785 202.127 173.355 199.841C172.924 197.555 172.216 196.676 171.972 196.646Z" fill="#B7B1BA"/>
<path d="M167.13 262L186.307 285.413C189.07 288.745 196.844 293.447 209.629 299.516C210.564 293.364 210.956 287.959 210.805 283.3L211.255 283.552C199.885 277.727 191.967 272.446 187.5 267.711L184.272 264.239C180.877 260.54 176.975 256.159 172.569 251.096C171.588 253.701 169.775 257.339 167.13 262ZM134.395 230.944L133.177 232.144C133.09 232.236 133.018 232.315 132.963 232.382C132.078 233.442 130.541 235.92 128.355 239.815L132.275 241.932C137.906 240.452 142.484 239.718 146.011 239.731L148.757 239.784C149.776 239.816 150.884 239.861 152.031 239.916C151.065 239.401 150.205 238.926 149.447 238.49L148.384 237.864C144.36 235.436 138.669 232.468 134.395 230.944Z" fill="#C6C2C8"/>
<path d="M212.625 250.184C209.739 251.256 206.611 253.303 205.428 257.861C203.651 264.699 206.575 267.712 208.166 276.188C209.756 284.664 205.201 295.94 204.765 296.542C204.705 296.625 204.743 296.857 204.862 297.186L209.629 299.513C211.345 288.223 211.232 279.446 209.29 273.184L208.193 269.761C205.983 263.018 204.987 260.329 207.629 255.364C208.758 253.243 210.245 251.611 212.09 250.472L212.625 250.184Z" fill="#B2AFB3"/>
<path d="M171.972 196.646C171.927 196.64 171.503 197.047 170.843 197.717C171.398 198.369 171.675 199.333 171.662 200.616C171.634 203.421 170.736 210.83 171.236 213.957C171.737 217.086 175.95 223.432 179.954 226.803C183.958 230.174 193.335 232.29 197.78 232.646C200.744 232.884 210.284 232.055 217.18 231.372L224.384 230.609C227.298 230.26 228.093 230.316 228.816 231.333C229.298 232.011 229.855 233.376 230.49 235.426C230.45 232.667 230.007 230.873 229.162 230.045C228.877 229.766 228.206 229.488 227.149 229.208L226.935 229.206C222.405 229.164 209.337 231.124 203.154 231.533C196.971 231.944 187.664 230.061 183.339 227.729C179.014 225.397 172.624 218.831 172.394 213.084C172.164 207.337 173.786 202.127 173.357 199.841C172.924 197.555 172.216 196.676 171.972 196.646Z" fill="#F1F1F1"/>
<path d="M169.907 241.63C166.216 239.587 152.276 238.299 147.491 238.472C143.023 238.633 133.758 240.249 131.329 241.086L130.983 241.233L132.274 241.932C137.905 240.452 142.483 239.718 146.01 239.731C151.3 239.751 162.602 240.469 165.809 241.071C169.016 241.672 173.314 244.109 173.43 247.405C173.502 249.44 171.704 253.766 168.039 260.38L169.04 260.622C171.783 256.164 173.494 252.578 174.169 249.863C175.184 245.792 173.596 243.673 169.907 241.63ZM160.394 208.944C160.262 209.248 160.108 209.554 159.933 209.865C159.29 210.191 158.869 210.567 158.672 210.994C158.377 211.636 159.703 216.741 159.391 218.21C159.08 219.678 156.387 220.53 154.03 220.286C151.673 220.043 149.847 219.358 149.002 219.562C148.706 219.634 148.392 219.743 148.062 219.89C149.48 220.264 150.927 220.599 152.391 220.917C155.862 221.671 158.922 220.826 159.977 219.21C161.032 217.592 159.95 212.381 160.157 210.721L160.443 208.886L160.394 208.944Z" fill="#DDDDDD"/>
<path d="M316.261 315.986C317.25 315.975 317.845 312.675 315.654 309.376C313.462 306.077 311.841 304.586 310.991 301.65C310.141 298.716 310.881 297.98 307.236 294.368C303.592 290.757 297.583 280.034 297.224 280.323C296.865 280.612 286.019 295.089 285.71 303.374C285.4 311.659 287.027 311.347 287.852 311.389C288.678 311.43 300.786 310.702 304.998 312.023C309.209 313.343 315.272 315.996 316.261 315.986Z" fill="#712E3D"/>
<path d="M281.744 217.436C283.955 218.83 287.92 218.015 288.676 216.377C289.431 214.739 288.094 212.975 286.519 211.726C284.943 210.477 281.881 209.506 280.647 211.027C279.413 212.548 279.534 216.042 281.744 217.436Z" fill="#421A2C"/>
<path d="M277.544 228.73C280.277 230.332 283.512 229.958 284.476 227.671C285.439 225.384 284.25 223.839 282.676 222.589C281.101 221.34 277.664 219.943 276.269 221.521C274.873 223.098 274.811 227.128 277.544 228.73Z" fill="#421A2C"/>
<path d="M272.886 240.666C275.619 242.268 278.791 240.727 279.499 239.013C280.206 237.298 278.906 235.319 276.723 233.919C274.54 232.52 272.047 232.837 271.318 234.919C270.591 237.001 270.153 239.064 272.886 240.666Z" fill="#421A2C"/>
<path d="M304.486 296.741C307.555 298.774 308.123 301.544 307.812 302.56C307.5 303.577 305.029 304.158 302.153 302.617C299.278 301.076 301.416 294.708 304.486 296.741Z" fill="#190912"/>
<path d="M280.852 216.779C279.989 215.835 280.178 213.844 281.143 213.153C282.108 212.462 283.93 212.387 284.6 213.734C285.269 215.08 285.682 216.354 284.705 217.05C283.728 217.745 281.714 217.723 280.852 216.779Z" fill="#091118"/>
<path d="M276.108 229.27C275.244 228.326 275.433 226.334 276.398 225.643C277.363 224.952 279.186 224.877 279.855 226.224C280.525 227.571 280.937 228.845 279.96 229.541C278.984 230.235 276.97 230.214 276.108 229.27Z" fill="#091118"/>
<path d="M271.703 241.666C270.84 240.721 271.029 238.73 271.994 238.039C272.959 237.348 274.781 237.273 275.451 238.62C276.121 239.967 276.533 241.241 275.556 241.937C274.579 242.631 272.566 242.61 271.703 241.666Z" fill="#091118"/>
<path d="M268.8 254.705C267.937 253.761 268.126 251.77 269.091 251.079C270.056 250.388 271.878 250.313 272.548 251.66C273.217 253.006 273.63 254.281 272.653 254.976C271.676 255.671 269.664 255.65 268.8 254.705Z" fill="#091118"/>
<path d="M265.08 265.371C264.216 264.427 264.405 262.436 265.37 261.745C266.335 261.054 269.763 260.962 270.433 262.308C271.102 263.654 269.909 264.947 268.933 265.641C267.956 266.337 265.942 266.316 265.08 265.371Z" fill="#091118"/>
<path d="M263.889 269.171C264.823 267.991 274.002 262.546 277.425 261.64C280.847 260.735 287.662 258.891 289.15 259.537C290.639 260.183 291.681 261.058 291.899 262.44C292.116 263.822 291.934 266.544 291.008 266.776C290.082 267.007 289.619 263.089 287.412 263.018C285.203 262.947 273.556 267.229 268.747 270.369C263.938 273.51 278.959 282.654 280.35 282.362C281.741 282.07 290.574 275.864 292.663 275.046C294.752 274.227 298.248 271.36 300.968 273.623C303.688 275.887 301.693 284.915 300.788 287.295C300.183 288.882 299.631 290.914 299.131 293.396C296.753 294.967 295.639 295.179 295.789 294.03C296.015 292.307 297.716 282.685 298.297 280.841C298.879 278.998 298.299 277.335 295.65 278.34C293.001 279.344 283.606 286.792 282.859 287.083C282.111 287.373 278.547 286.657 270.939 281.453C263.332 276.249 262.955 270.35 263.889 269.171Z" fill="#EFEDEE"/>
<path d="M286.424 261.732C283.009 262.414 269.92 267.231 267.144 269.567C266.041 270.496 264.917 272.087 264.24 273.867C265.172 276.121 267.167 278.872 270.938 281.453C278.545 286.657 282.109 287.373 282.858 287.083C283.605 286.793 293.001 279.346 295.649 278.34C298.057 277.426 298.755 278.717 298.424 280.346L297.968 282.135C297.521 284.127 296.873 287.601 296.395 290.329C297.168 288.483 297.785 286.742 298.252 285.108C299.928 279.239 299.316 276.779 297.455 276.352C295.593 275.925 292.535 278.297 287.733 280.398C282.931 282.498 281.229 286.391 277.645 283.727C276.685 283.014 276.272 281.956 276.403 280.553L274.82 279.546C270.5 276.661 265.731 272.338 268.744 270.371C273.553 267.23 285.201 262.948 287.408 263.019C288.885 263.066 289.58 264.834 290.157 265.931C289.667 262.725 288.42 261.333 286.424 261.732ZM302.217 276.396L302.309 275.549C301.986 279.097 301.227 282.633 300.029 286.157C299.231 288.507 297.821 291.142 295.801 294.066C295.672 295.172 296.788 294.942 299.129 293.396C299.53 291.411 299.963 289.713 300.431 288.301L300.788 287.295C301.466 285.513 302.755 280.001 302.217 276.396Z" fill="#BBB6B6"/>
<path d="M266.026 266.392C258.365 263.679 252.344 263.572 244.463 267.126C236.581 270.681 228.102 274.755 216.46 281.237C208.698 285.558 202.329 289.213 197.348 292.202C209.682 295.578 217.718 298.423 221.458 300.74C227.066 304.216 266.231 344.584 272.548 350.574C276.758 354.567 284.988 360.431 297.236 368.168C298.84 357.002 300.289 347.539 301.585 339.776C303.529 328.134 304.99 304.055 303.553 297.923C302.116 291.791 296.92 284.017 292.935 281.099C288.951 278.181 273.686 269.105 266.026 266.392ZM286.941 306.292C288.692 306.517 290.473 309.178 291.12 309.983C291.768 310.787 291.658 311.746 290.911 314.59C290.165 317.435 288.154 334.907 287.764 337.346C287.374 339.785 286.436 341.393 285.201 341.363C283.967 341.335 268.666 327.369 268.348 325.445C268.03 323.521 271.878 317.015 275.036 313.685C278.193 310.358 285.188 306.067 286.941 306.292ZM261.561 280.448C262.97 281.24 265.15 282.258 267.709 286.529C270.267 290.801 267.707 295.329 266.419 296.999C265.132 298.668 258.659 300.433 256.074 300.912C253.489 301.391 249.903 302.824 248.771 302.359C247.64 301.894 239.929 293.462 238.97 292.337C238.009 291.211 240.218 288.917 243.034 287.78C245.849 286.643 250.164 284.567 253.035 283.016C255.906 281.465 260.153 279.657 261.561 280.448Z" fill="#5D5B60"/>
<path d="M265.597 265.991C257.937 263.278 251.915 263.17 244.034 266.725C236.153 270.279 227.674 274.353 216.032 280.835C208.269 285.157 201.9 288.812 196.919 291.801C209.253 295.177 217.289 298.022 221.029 300.339C226.638 303.814 267.951 345.446 274.267 351.436C278.478 355.43 286.708 361.294 298.956 369.03C300.56 357.865 302.009 348.4 303.304 340.639C305.249 328.997 306.71 304.917 305.272 298.786C303.836 292.654 298.639 284.88 294.654 281.962C290.67 279.044 273.258 268.703 265.597 265.991ZM288.659 307.155C290.411 307.38 292.192 310.041 292.839 310.845C293.486 311.65 293.376 312.61 292.63 315.453C291.883 318.296 289.872 335.77 289.482 338.208C289.092 340.647 288.155 342.255 286.919 342.226C285.684 342.196 270.384 328.231 270.066 326.307C269.749 324.383 273.597 317.878 276.755 314.548C279.913 311.22 286.907 306.93 288.659 307.155ZM263.281 281.311C264.69 282.103 266.869 283.12 269.429 287.392C271.988 291.663 269.426 296.192 268.139 297.861C266.851 299.531 260.379 301.295 257.794 301.774C255.208 302.254 251.622 303.687 250.491 303.222C249.359 302.755 241.648 294.325 240.689 293.199C239.729 292.074 241.938 289.78 244.753 288.643C247.569 287.505 251.883 285.43 254.755 283.879C257.626 282.327 261.872 280.519 263.281 281.311Z" fill="#D7D6D8"/>
<path d="M265.597 265.991C261.799 264.646 258.402 263.941 254.983 264.006C264.355 269.173 272.964 275.965 280.812 284.372C292.721 297.129 301.266 307.635 305.601 317.112L305.748 313.469C305.964 306.934 305.866 301.323 305.271 298.786C303.835 292.654 298.638 284.88 294.653 281.962C290.67 279.044 273.258 268.703 265.597 265.991Z" fill="#E0DFE1"/>
<path d="M297.719 294.554C299.363 295.692 299.592 296.617 298.293 296.778C296.993 296.938 295.622 295.494 295.652 294.851C295.683 294.209 296.075 293.416 297.719 294.554Z" fill="#4F4F4E"/>
<path d="M281.76 282.246C283.404 283.384 283.634 284.308 282.334 284.469C281.034 284.63 279.663 283.185 279.693 282.543C279.724 281.899 280.116 281.108 281.76 282.246Z" fill="#4F4F4E"/>
<path d="M262.954 272.895C264.598 274.033 264.827 274.957 263.528 275.118C262.227 275.279 260.856 273.834 260.887 273.191C260.918 272.549 261.311 271.756 262.954 272.895Z" fill="#4F4F4E"/>
<path d="M244.034 266.725L240.031 268.554C233.917 271.389 227.227 274.694 218.877 279.264L210.47 283.951C205.17 286.942 200.653 289.558 196.918 291.8L203.803 293.761C212.295 296.292 218.036 298.485 221.028 300.338C226.637 303.813 267.95 345.445 274.266 351.435L276.164 353.132C280.742 357.025 288.339 362.325 298.953 369.029L301 355.149C301.489 351.932 301.96 348.903 302.415 346.064L303.302 340.638C303.57 339.034 303.828 337.196 304.071 335.201C299.577 331.192 295.356 327.228 291.394 323.302L289.48 338.207C289.09 340.646 288.152 342.254 286.917 342.224C285.682 342.195 270.382 328.23 270.064 326.306C269.746 324.382 273.594 317.876 276.752 314.547C277.662 313.588 278.889 312.55 280.218 311.564C275.92 306.747 272.023 301.99 268.531 297.291L268.136 297.86C266.978 299.363 261.619 300.943 258.675 301.592L257.791 301.773C255.206 302.252 251.62 303.685 250.489 303.22C249.357 302.754 241.646 294.323 240.687 293.198C239.727 292.073 241.935 289.779 244.751 288.641C247.098 287.694 250.485 286.095 253.21 284.69L254.752 283.878C255.886 283.265 257.234 282.613 258.537 282.096C255.137 276.147 252.429 270.298 250.406 264.547C248.393 264.99 246.29 265.707 244.034 266.725Z" fill="#CBCCCF"/>
<path d="M240.562 293.384C239.188 292.519 237.834 291.887 236.512 291.556C229.221 289.304 222.303 286.88 215.758 284.282L212.374 282.893L210.47 283.951C205.17 286.942 200.653 289.558 196.918 291.8L203.803 293.761L207.819 294.999C214.132 297.014 218.534 298.794 221.028 300.338C226.637 303.813 267.95 345.445 274.266 351.435L276.164 353.132C280.742 357.025 288.339 362.325 298.953 369.029L301.202 353.83L297.129 350.238C294.263 347.675 291.13 344.809 287.931 341.828C287.628 342.097 287.285 342.234 286.918 342.226C285.684 342.197 270.383 328.231 270.065 326.307C270.007 325.955 270.089 325.448 270.28 324.836L267.342 321.841C265.028 319.457 263.074 317.372 261.653 315.741C258.253 311.837 254.716 307.354 251.171 303.301C250.885 303.317 250.66 303.29 250.49 303.22C249.488 302.809 243.334 296.156 241.266 293.853L240.562 293.384Z" fill="#BCBDC1"/>
<path d="M265.597 265.991C257.937 263.278 251.915 263.17 244.034 266.725L240.031 268.554C233.917 271.389 227.227 274.694 218.877 279.264L216.03 280.835C208.954 284.774 203.035 288.161 198.27 290.993L199.666 291.414L220.889 280.163C232.867 273.874 240.5 270.007 243.792 268.564L244.3 268.346C250.854 265.604 256.653 265.139 262.455 266.499C268.258 267.86 289.006 279.384 292.714 281.786C296.421 284.188 301.794 292.28 303.558 296.495C304.573 298.917 305.206 306.526 305.459 319.325C305.977 310.453 306.036 302.06 305.27 298.784C303.834 292.653 298.637 284.879 294.652 281.961C290.67 279.044 273.258 268.703 265.597 265.991Z" fill="white"/>
<path d="M302.457 283.713L302.497 283.985L302.727 284.319C303.297 284.919 299.457 290.15 297.949 291.75L297.601 292.089C296.481 293.04 295.898 294.628 296.085 295.125C296.271 295.622 297.238 296.699 298.64 296.406C300.042 296.113 302.422 292.721 303.919 290.42C304.317 289.807 304.757 289.025 305.2 288.135L305.143 288.62C305.407 286.908 305.37 285.737 305.031 285.107C304.721 284.526 303.862 284.061 302.457 283.713ZM284.719 243.492L284.352 243.302L283.982 243.146L283.574 243.056L283.541 242.99L283.433 242.947C282.58 242.634 281.428 242.442 280.128 242.267L277.374 241.906C274.988 241.571 270.994 241.639 269.633 241.19L267.985 240.721C265.836 240.15 262.557 239.361 261.533 239.166C260.168 238.904 258.818 240.924 259.92 242.396C261.022 243.868 265.918 245.305 268.01 245.365C270.102 245.424 273.248 245.787 276.041 245.953C278.835 246.118 280.85 247.207 281.824 247.696C282.798 248.184 284.849 248.606 285.281 249.035C285.083 249.775 280.621 254.131 278.555 255.961C276.489 257.791 267.892 263.915 266.087 266.011L263.259 269.08C262.089 270.401 261.164 271.688 261.353 272.606C261.692 274.259 262.871 274.924 264.019 274.848C265.167 274.771 268.592 270.855 269.737 269.467C270.717 268.276 273.057 266.258 275.176 264.271L276.209 263.284C278.284 261.259 281.861 258.469 283.313 256.9L283.752 256.374C284.099 255.879 284.399 255.64 284.614 255.593L284.408 255.796C286.789 253.503 288.122 251.838 288.404 250.802C288.686 249.765 288.109 248.511 286.672 247.038C286.363 245.47 285.911 244.432 285.314 243.926L284.719 243.492ZM284.652 256.994L284.518 257.357C284.381 258.34 285.35 259.044 285.699 258.984C286.107 258.914 289.658 259.099 290.396 260.171C291.012 261.064 288.71 265.395 287.08 268.088L285.155 271.165C283.558 273.846 281.4 277.842 280.996 278.926L280.532 280.239C280.149 281.41 279.861 282.648 280.269 282.995C280.84 283.481 282.104 284.474 282.914 283.956C283.455 283.61 284.066 282.588 284.595 281.504L285.308 279.908C285.86 278.569 290.776 270.301 292.776 266.527L293.461 264.007C293.569 263.567 293.659 263.124 293.711 262.695C293.975 260.513 291.997 258.429 290.833 257.681C290.07 257.193 288.011 256.963 284.652 256.994Z" fill="#F1EEEE"/>
<path d="M305.243 287.856C303.876 289.944 302.242 292.126 301.274 293.018C299.67 294.499 296.816 294.651 298.262 292.553C299.059 291.4 300.359 289.411 301.183 287.566C300.093 289.173 298.718 290.932 297.949 291.748L297.601 292.087C296.481 293.037 295.898 294.625 296.085 295.122C296.271 295.619 297.238 296.697 298.64 296.404C300.042 296.11 302.422 292.719 303.919 290.418C304.317 289.805 304.757 289.022 305.2 288.133L305.243 287.856ZM288.259 251.179C286.726 252.617 285.08 254.217 283.324 255.977C280.637 258.67 277.058 261.299 274.464 263.328L273.256 264.29C270.672 266.407 265.098 272.261 264.078 271.401C263.338 270.776 264.572 268.933 266.093 266.846L267.981 264.252L266.854 265.235C266.693 265.383 266.548 265.523 266.419 265.652L263.255 269.077C262.086 270.399 261.161 271.685 261.35 272.603C261.689 274.256 262.868 274.921 264.016 274.846C264.909 274.787 267.179 272.403 268.682 270.695L269.733 269.464C270.714 268.274 273.053 266.255 275.172 264.269L276.206 263.282C278.281 261.257 281.857 258.467 283.31 256.898L283.748 256.371C284.095 255.877 284.395 255.638 284.61 255.59L285.36 254.85C286.847 253.34 287.798 252.151 288.214 251.282L288.259 251.179ZM290.414 260.222C291.012 261.065 288.711 265.396 287.08 268.089L285.155 271.166L284.033 273.102C282.686 275.479 281.31 278.083 280.996 278.926L280.532 280.239C280.149 281.411 279.861 282.648 280.269 282.995C280.84 283.481 282.104 284.474 282.914 283.956C283.455 283.61 284.066 282.588 284.595 281.504L285.308 279.908C285.86 278.569 290.776 270.301 292.776 266.527L293.139 265.21L290.764 269.269C290.07 270.429 289.476 271.395 288.979 272.168L288.118 273.457C286.206 276.157 283.506 281.977 282.346 281.083C281.445 280.387 281.776 279.181 284.46 274.486L287.365 269.538C291.269 262.97 291.112 260.965 290.414 260.222ZM286.224 247.719C284.336 246.922 282.711 246.394 281.346 246.136L278.801 245.788C275.099 245.244 267.389 243.856 264.304 242.929C262.144 242.281 261.408 241.11 262.095 239.416L262.151 239.294L261.532 239.166C260.166 238.904 258.817 240.924 259.918 242.396C261.02 243.868 265.917 245.305 268.009 245.365C270.101 245.424 273.247 245.787 276.04 245.953C278.834 246.118 280.849 247.207 281.823 247.696C282.764 248.168 284.709 248.576 285.23 248.991L286.224 247.719Z" fill="#BDB8B8"/>
<path d="M381.68 399.646C383.502 396.911 384.615 395.023 385.02 393.978C385.629 392.412 386.622 389.109 387.751 388.993C388.88 388.877 389.285 391.167 388.213 394.143C387.14 397.119 386.59 398.092 385.555 400.164C384.521 402.236 381.339 408.539 375.097 410.388C368.855 412.236 355.683 413.167 354.429 412.602C353.175 412.036 352.545 410.631 352.296 410.028C352.046 409.425 350.814 407.699 351.037 407.134C351.26 406.568 366.184 406.794 371.758 405.622C375.474 404.839 378.781 402.847 381.68 399.646Z" fill="#BFAFAF"/>
<path d="M238.7 363.566C238.436 363.536 237.224 363.625 236.559 363.884C235.894 364.143 234.733 365.986 234.336 366.024C234.071 366.048 233.737 365.962 233.333 365.763C214.447 356.294 204.368 351.241 203.097 350.604C201.192 349.649 199.042 348.328 199.785 345.446C200.279 343.526 200.591 342.387 200.72 342.028C226.216 356.406 238.876 363.585 238.7 363.566Z" fill="#606060"/>
<path d="M381.223 397.823C383.15 398.721 383.044 400.485 381.491 402.385C379.938 404.286 376.404 406.511 372.522 407.437C368.64 408.363 353.485 409.387 352.7 409.034C351.915 408.68 351.076 406.759 349.479 407.095C347.882 407.431 345.527 405.264 344.887 405.351C344.247 405.436 343.991 407.528 342.598 407.712C341.206 407.897 339.917 407.176 339.445 407.613C338.972 408.05 337.506 409.737 335.538 409.525C333.57 409.312 324.405 406.934 322.22 406.589C320.035 406.245 311.146 403.307 310.438 402.803C309.731 402.3 308.33 398.265 307.477 397.33C306.625 396.396 304.847 397.16 304.31 398.238C303.771 399.317 296.438 397.265 293.536 395.932C290.634 394.598 265.311 381.711 262.074 380.158C258.837 378.604 255.251 376.797 254.205 376.213C253.16 375.627 253.241 374.025 253.259 372.643C253.278 371.261 251.459 366.371 249.13 365.367C246.801 364.362 241.438 364.966 240.164 364.772C238.889 364.578 201.348 345.502 200.317 344.92C199.286 344.338 198.779 342.557 197.154 341.283C195.529 340.008 191.868 338.561 190.305 339.094C189.563 339.347 188.901 339.923 188.316 340.823C188.08 341.188 187.971 341.429 187.58 341.658C187.189 341.885 186.65 341.568 186.157 341.318C157.757 326.867 143.307 319.488 142.809 319.18C142.048 318.711 143.861 316.763 143.08 316.246C142.3 315.729 142.609 316.491 141.584 316.026C140.56 315.56 138.935 314.185 138.576 314.517C138.217 314.85 138.024 315.946 135.364 313.897C132.705 311.848 120.988 301.211 117.11 296.748C113.231 292.285 104.899 281.699 101.024 272.132C98.4401 265.753 97.3936 261.753 97.885 260.129C100.617 254.66 102.155 251.583 102.497 250.898C103.011 249.869 104.836 246.351 107.679 248.48C109.552 247.76 112.22 246.54 115.311 240.079C117.556 236.808 122.763 232.675 124.069 232.782C125.375 232.888 133.204 236.95 140.927 239.438C148.65 241.925 157.378 244.28 160.546 246.856C163.715 249.431 178.171 265.094 183.571 271.556C188.969 278.019 197.053 287.31 200.555 288.893C204.057 290.477 218.272 293.483 221.387 294.975C224.501 296.469 256.197 327.731 265.455 336.374C274.713 345.018 291.292 359.716 300.564 365.247C309.837 370.779 347.945 388.546 356.882 391.525C365.819 394.502 379.296 396.925 381.223 397.823Z" fill="#968E8F"/>
<path d="M381.116 398.601C383.042 399.499 383.045 400.485 381.49 402.385C379.937 404.286 376.403 406.511 372.521 407.437C368.639 408.363 353.484 409.387 352.699 409.034C351.913 408.68 351.075 406.759 349.478 407.095C347.881 407.431 345.526 405.264 344.886 405.351C344.246 405.436 343.989 407.528 342.597 407.712C341.204 407.897 339.916 407.176 339.443 407.613C338.971 408.05 337.505 409.737 335.536 409.525C333.569 409.312 324.404 406.934 322.218 406.589C320.033 406.245 311.145 403.307 310.437 402.803C309.73 402.3 308.329 398.265 307.476 397.33C306.623 396.396 304.846 397.16 304.308 398.238C303.77 399.317 296.437 397.265 293.535 395.932C290.633 394.598 265.31 381.711 262.073 380.158C258.835 378.604 255.25 376.797 254.204 376.213C253.159 375.627 253.239 374.025 253.258 372.643C253.277 371.261 251.458 366.371 249.129 365.367C246.8 364.362 241.437 364.966 240.162 364.772C238.888 364.578 201.347 345.502 200.316 344.92C199.285 344.338 198.778 342.557 197.153 341.283C195.528 340.008 191.867 338.561 190.304 339.094C189.562 339.347 188.9 339.923 188.315 340.823C188.079 341.188 187.97 341.429 187.579 341.658C187.188 341.885 186.649 341.568 186.156 341.318C157.756 326.867 143.306 319.488 142.808 319.18C142.047 318.711 143.86 316.763 143.079 316.246C142.299 315.729 142.608 316.491 141.583 316.026C140.559 315.56 138.934 314.185 138.575 314.517C138.216 314.85 138.023 315.946 135.363 313.897C132.704 311.848 120.987 301.211 117.108 296.748C113.23 292.285 104.898 281.699 101.023 272.132C98.439 265.753 97.3925 261.753 97.8839 260.129C100.616 254.66 102.153 251.583 102.496 250.898C103.01 249.869 104.835 246.351 107.677 248.48C109.551 247.76 112.219 246.54 115.31 240.079C117.555 236.808 122.762 232.675 124.067 232.782C125.374 232.888 133.096 237.729 140.82 240.216C148.543 242.703 157.27 245.058 160.439 247.634C163.607 250.21 178.063 265.873 183.463 272.335C188.862 278.798 196.945 288.089 200.447 289.672C203.949 291.255 218.165 294.262 221.279 295.754C224.394 297.247 256.089 328.509 265.348 337.153C274.605 345.797 291.184 360.494 300.457 366.026C309.73 371.558 347.837 389.324 356.775 392.304C365.712 395.281 379.189 397.702 381.116 398.601Z" fill="#D3CACB"/>
<path d="M102.332 251.18L98.7673 258.369L101.031 260.642C106.769 266.4 112.673 272.467 118.745 278.845C129.673 290.325 138.323 308.098 138.317 313.766L138.271 314.409C138.251 314.536 138.258 314.676 138.295 314.826L138.578 314.515C138.936 314.181 140.561 315.557 141.586 316.023C142.61 316.49 142.302 315.728 143.083 316.243C143.864 316.759 142.049 318.707 142.811 319.178L186.159 341.316C186.651 341.565 187.192 341.883 187.583 341.655C187.974 341.428 188.082 341.186 188.319 340.821C188.903 339.921 189.566 339.344 190.307 339.091C191.87 338.559 195.531 340.006 197.157 341.28L197.657 341.719C208.033 333.709 211.445 326.905 207.886 321.308C201.476 311.23 156.195 295.569 136.238 279.618C123.78 269.662 112.479 260.183 102.332 251.18Z" fill="#CFC3C4"/>
<path d="M339.232 407.835C335.664 407.316 332.024 406.547 328.312 405.529L322.622 403.905C317.092 402.268 311.3 400.389 310.226 399.594C309.583 397.905 305.135 391.807 301.032 391.057C298.297 390.557 296.057 391.156 294.314 392.855L288.508 389.944L282.477 387.003C272.64 382.111 258.842 374.923 253.106 371.734C253.183 371.991 253.228 372.211 253.248 372.395L253.265 374.052C253.314 374.98 253.51 375.822 254.207 376.211L257.805 378.064L268.327 383.279C276.997 387.646 291.391 394.944 293.536 395.929L295.018 396.534C298.394 397.786 303.848 399.161 304.31 398.236C304.848 397.156 306.626 396.393 307.477 397.328C308.33 398.263 309.73 402.297 310.438 402.801C311.091 403.266 318.715 405.805 321.603 406.464L324.018 406.952C327.499 407.725 333.927 409.349 335.538 409.523C336.943 409.674 338.092 408.857 338.807 408.219L339.232 407.835ZM201.398 342.401L201.098 342.071C199.521 339.618 191.219 338.689 187.402 336.907L182.815 334.601C176.63 331.425 164.749 325.21 147.169 315.956L144.924 315.767C143.295 315.651 142.274 315.641 141.86 315.737C141.726 315.768 141.609 315.845 141.51 315.969L141.586 316.022C142.61 316.488 142.302 315.726 143.083 316.242C143.864 316.758 142.049 318.706 142.811 319.177L186.159 341.315C186.651 341.564 187.192 341.881 187.583 341.654C187.974 341.427 188.082 341.184 188.318 340.82C188.903 339.919 189.566 339.343 190.307 339.09C191.87 338.558 195.531 340.005 197.157 341.279C198.782 342.553 199.288 344.334 200.32 344.916L225.887 357.864C233.344 361.591 239.656 364.69 240.166 364.768C240.593 364.833 241.479 364.808 242.558 364.785L239.085 362.507C238.329 362.024 237.495 361.501 236.582 360.939L235.155 360.066C231.579 357.899 204.85 345.53 201.398 342.401Z" fill="#655B5C"/>
<path d="M122.939 239.996C126.295 242.693 137.044 249.671 144.784 254.656C152.523 259.641 168.27 267.74 170.86 269.536C173.45 271.333 174.716 275.893 170.221 275.625C165.725 275.359 159.018 272.606 147.826 265.636C136.634 258.667 124.664 249.306 121.966 246.47C119.269 243.635 119.584 237.299 122.939 239.996Z" fill="#DDD8D9"/>
<path d="M122.736 233.844C122.409 233.847 121.887 233.989 121.252 234.23C119.204 235.717 116.695 238.06 115.311 240.075C112.22 246.537 109.552 247.756 107.679 248.477L107.503 248.351L107.301 248.665C106.566 249.352 106.574 250.067 107.327 250.81C108.456 251.925 112.343 247.261 114.31 247.623C116.278 247.986 119.342 251.41 122.517 253.821L123.983 254.888C128.912 258.378 141.4 266.652 147.54 270.009L151.655 272.266C157.082 275.231 162.202 277.888 166.142 278.681C171.066 279.671 172.291 277.181 172.599 275.847C172.908 274.512 172.721 273.955 172.262 272.257L171.933 272.912C171.327 274.028 170.294 275.12 166.755 274.146C162.509 272.979 141.614 261.026 136.117 257.692C130.62 254.357 121.403 246.988 119.114 245.007C116.825 243.026 116.897 241.091 117.285 240.084C117.674 239.077 119.422 237.841 120 236.855C120.577 235.868 122.479 235.796 123.407 235.139C124.335 234.482 126.9 235.846 126.016 237.343C125.31 238.541 124.376 239.325 123.714 239.945L122.466 241.218C122.035 241.691 121.777 242.133 122.397 242.341C123.389 242.673 124.256 241.446 125.296 241.467L126.6 241.507C127.589 241.512 128.711 241.402 129.305 240.759L129.98 240.009C130.616 239.233 131.006 238.381 129.942 237.494C128.524 236.308 124.386 233.834 122.736 233.844Z" fill="#C2BCBA"/>
<path d="M124.437 240.241C126.942 241.918 138.302 248.852 143.553 252.291C148.804 255.731 161.828 263.585 166.007 265.445C170.185 267.305 162.454 252.742 165.99 256.428C169.525 260.114 186.047 277.056 182.282 277.035C178.517 277.013 172.585 274.659 171.203 273.262C169.821 271.866 169.797 270.026 165.215 267.657C160.634 265.288 146.657 256.891 139.73 252.536C132.803 248.182 125.361 242.889 123.187 240.769C121.014 238.647 121.932 238.564 124.437 240.241Z" fill="#ECE6E7"/>
<path d="M99.2326 257.432L97.8862 260.126C97.3948 261.749 98.4413 265.751 101.025 272.129C104.643 281.059 112.142 290.875 116.279 295.773L117.112 296.746C120.991 301.209 132.707 311.845 135.367 313.895C136.809 315.006 137.526 315.193 137.937 315.077C138.478 313.069 138.492 310.808 137.209 309.163C135.14 306.51 128.925 304.647 120.885 296.314C112.846 287.98 107.315 278.233 104.222 272.344C102.388 268.855 100.757 264.041 99.3306 257.902L99.2326 257.432Z" fill="#A59A98"/>
<path d="M108.176 248.518L108.349 248.203L107.679 248.477C106.914 247.904 106.223 247.741 105.613 247.826L105.54 248.233C105.371 250.076 108.218 253.076 112.916 257.387L121.185 265.33C129.957 274.083 140.055 282.102 150.924 288.804L154.823 291.184C161.922 295.355 171.8 300.662 168.746 298.975L165.894 297.301C160.483 294.034 150.266 287.562 145.654 284.099L142.955 281.943C136.938 277.018 124.361 266.449 123.016 265.002L113.811 256.003C110.718 252.922 108.034 250.097 107.975 249.454C107.95 249.178 108.016 248.866 108.176 248.518Z" fill="white"/>
<path d="M160.439 247.631C157.271 245.055 148.544 242.7 140.82 240.213C136.222 238.732 131.624 236.417 128.381 234.764C130.405 236.262 132.216 237.481 133.827 238.426C138.101 240.933 146.004 243.154 150.505 244.438C155.007 245.721 160.076 248.209 163.405 252.312L165.128 254.35C169.096 258.92 175.774 266.017 177.507 268.067L179.797 270.898C182.431 274.304 186.309 279.846 189.574 286.788C193.833 295.843 206.69 297.167 210.812 296.266L211.319 296.13C214.76 294.99 219.763 296.698 222.398 298.632C223.627 299.533 225.993 301.769 228.793 304.527L239.05 314.831C242.973 318.786 246.22 322.135 248.793 324.874C245.462 322.197 232.776 313.296 235.144 316.917C237.512 320.538 245.765 329.203 252.394 333.698C259.022 338.193 265.633 343.353 270.246 346.691C274.86 350.029 287.137 360.194 293.643 364.205L301.916 369.266C309.988 374.127 321.326 380.676 332.008 385.602C342.182 390.294 351.474 393.814 359.885 396.163C351.215 393.917 343.78 391.51 337.578 388.943C328.276 385.094 317.246 379.702 306.163 373.217L302.277 370.901C292.815 365.177 280.965 357.465 274.573 353.176L266.814 347.92C260.02 343.382 250.924 337.598 247.786 337.136C243.682 336.533 240.924 338.928 239.598 340.739C238.713 341.946 237.367 344.806 235.56 349.318L236.888 346.546C237.486 345.325 237.984 344.35 238.384 343.622C239.38 341.803 241.1 339.631 244.203 338.626C246.788 337.79 255.505 342.871 266.629 350.209L273.562 354.854C287.888 364.567 314.241 379.677 322.399 383.707C330.557 387.738 349.07 395.193 358.256 397.316C367.441 399.439 377.461 399.527 379.219 399.48C380.223 399.454 381.005 400.115 381.562 401.46L381.778 402.017C383.035 400.352 382.915 399.438 381.116 398.599C379.189 397.701 365.712 395.279 356.775 392.299C347.837 389.32 309.73 371.553 300.457 366.021C291.184 360.489 274.605 345.792 265.348 337.148L252.655 324.984C239.918 312.69 223.478 296.804 221.28 295.749C218.166 294.256 203.951 291.251 200.448 289.667C197.822 288.479 192.618 282.956 187.903 277.542L181.592 270.138C175.285 262.868 163.29 249.949 160.439 247.631Z" fill="#5B2906"/>
<path d="M381.017 402.902L378.341 403.987C373.213 405.984 369.269 407.065 366.509 407.232L362.933 407.392C358.367 407.54 353.492 407.528 352.79 407.506C351.896 407.479 348.257 404.464 347.514 402.98L347.084 401.991C346.646 400.881 346.378 400.084 345.761 401.262C344.969 402.778 341.134 404.563 338.527 404.632C336.05 404.697 318.024 397.711 313.288 395.404L312.655 395.08C309.226 393.204 307.219 392.477 305.637 391.561C304.056 390.646 304.598 384.123 304.137 383.858C303.677 383.593 299.371 388.797 296.714 387.404C269.629 372.184 255.326 364.135 253.803 363.257C251.517 361.94 254.804 356.072 253.989 355.058C253.516 354.469 251.631 357.2 244.498 359.242C244.183 359.332 241.849 358.987 238.718 357.913C231.373 355.395 212.702 346.403 209.684 346.085C207.726 345.88 212.14 348.66 221.213 353.445C224.718 355.295 235.156 360.208 237.468 361.538L237.983 363.817C239.219 364.4 239.999 364.746 240.165 364.77C241.439 364.964 246.802 364.361 249.132 365.366C250.751 366.064 252.123 368.64 252.804 370.61C254.689 371.352 257.989 372.295 260.209 373.406L280.016 383.231C282.784 384.623 285.262 385.886 286.981 386.796L290.471 388.727C292.785 390.063 294.378 391.123 295.252 391.907C298.202 390.466 300.56 390.228 302.324 391.195C304.593 392.438 305.691 393.267 306.665 394.771L307.145 395.584C308.141 397.407 308.474 396.903 310.439 397.565L312.831 398.452C318.178 400.302 333.133 404.912 335.591 405.965C338.377 407.157 344.248 404.238 345.691 404.554C346.722 404.78 348.495 406.148 349.643 407.099C351.131 406.889 351.939 408.693 352.698 409.035C353.483 409.389 368.638 408.364 372.52 407.438C375.917 406.627 379.046 404.823 380.817 403.111L381.017 402.902Z" fill="#E1DCDC"/>
<path d="M180.347 288.948C169.904 286.418 159.149 282.932 145.967 276.397L138.149 272.47L126.122 266.321C124.947 265.743 124.004 265.307 123.242 265.003C120.06 263.736 133.365 275.939 142.654 282.31C151.943 288.68 167.371 298.058 176.835 304.071L180.527 306.484L185.046 309.623C192.413 315.168 195.301 318.559 196.179 321.304C197.066 324.081 190.923 325.659 186.575 327.485C182.228 329.31 175.417 327.918 173.129 321.52C170.84 315.122 166.216 308.551 164.368 307.31C162.521 306.069 158.744 305.223 153.771 306.121C149.349 306.918 146.039 308.653 144.063 311.474L143.385 312.582C143.284 312.774 141.974 314.264 142.867 314.736L151.763 319.463L154.941 321.2L159.672 323.822L167.999 328.242C174.138 331.458 180.889 334.93 184.877 336.947L188.648 338.834C188.927 338.981 189.273 339.167 189.687 339.392C189.892 339.263 190.095 339.165 190.306 339.092C191.869 338.56 195.53 340.007 197.155 341.281C198.781 342.556 199.287 344.337 200.318 344.919L226.338 358.092C228.786 359.316 231.1 360.465 233.109 361.454L235.61 362.451C237.334 363.07 238.014 363.083 236.591 361.932C232.34 358.493 204.858 344.968 202.424 343.455C200.133 342.03 204.824 342.118 210.401 341.08L211.456 340.872C217.474 339.609 231.473 336.347 233.09 330.781C234.707 325.215 229.269 312.323 215.711 302.643C202.154 292.96 190.789 291.478 180.347 288.948Z" fill="#D6CDCC"/>
<path d="M160.761 311.817C157.235 310.127 151.451 310.37 143.409 312.543L143.082 313.01C142.714 313.541 142.229 314.398 142.866 314.735L151.761 319.462L154.94 321.199L159.671 323.821L167.998 328.241C174.137 331.457 180.888 334.928 184.876 336.946L188.647 338.833L189.686 339.391C189.891 339.262 190.094 339.163 190.305 339.091C191.868 338.559 195.529 340.006 197.154 341.28C198.779 342.555 199.286 344.335 200.317 344.918L226.336 358.091L233.108 361.453L235.609 362.45L236.592 362.766C237.531 363.016 237.696 362.825 236.59 361.929C232.339 358.491 204.857 344.966 202.423 343.453C201.142 342.655 202.045 342.332 204.067 342.02L202.528 341.42C202.098 341.261 201.756 341.147 201.512 341.079L201.224 341.016C198.804 340.729 179.267 330.273 175.709 328.224C172.152 326.175 167.08 314.845 160.761 311.817Z" fill="#C6BEBD"/>
<path d="M160.581 317.061L158.976 316.342C154.976 314.753 150.275 314.572 144.87 315.8L151.76 319.463L154.939 321.2L159.67 323.822L167.997 328.242C174.136 331.458 180.887 334.93 184.874 336.947L188.646 338.834L189.685 339.392C189.889 339.263 190.093 339.165 190.304 339.092C191.867 338.56 195.528 340.007 197.153 341.281C198.778 342.556 199.285 344.337 200.316 344.919L226.335 358.092L233.107 361.454L235.608 362.451L236.591 362.767C237.53 363.017 237.695 362.826 236.588 361.931C232.338 358.492 204.856 344.967 202.422 343.454C202.048 343.222 201.86 343.029 201.831 342.866L195.728 339.936C185.806 335.132 173.39 328.926 171.188 327.273C167.862 324.773 166.589 320.086 160.581 317.061Z" fill="#B6ADAC"/>
<path d="M242.308 351.799C241.384 350.23 243.608 343.354 247.986 343.401C252.365 343.447 275.993 358.117 283.166 362.203C290.339 366.289 316.143 381.702 321.89 384.488C327.637 387.275 351.676 397.045 349.588 396.914C347.5 396.783 335.404 393.772 332.845 394.571C330.285 395.37 326.415 397.716 324.063 396.683C321.712 395.65 307.845 389.683 307.307 388.397C306.77 387.111 306.731 379.739 305.899 379.331C305.068 378.924 300.305 383.539 298.708 383.591C297.111 383.644 284.939 376.564 277.152 372.339C269.365 368.113 255.727 360.696 255.561 360.218C255.395 359.74 257.046 351.085 256.069 350.526C255.093 349.968 249.102 355.744 248.489 355.802C247.876 355.859 243.233 353.368 242.308 351.799Z" fill="#DDD8D9"/>
<path d="M217.522 234.522C223.979 233.681 227.524 233.394 228.157 233.66C228.79 233.926 229.496 237.224 230.277 243.553L231.18 242.577C230.356 236.365 229.559 233.066 228.789 232.678C227.632 232.095 218.441 233.106 218.077 233.412C217.835 233.615 217.65 233.985 217.522 234.522Z" fill="#F4F4F4"/>
<path d="M228.968 242.896C227.854 243.271 221.258 244.542 220.296 243.926C219.335 243.309 217.891 235.59 217.976 235.2C218.061 234.811 218.359 233.902 218.808 233.534C217.619 233.824 216.968 234.402 216.945 234.965C216.921 235.528 218.364 244.224 218.685 244.851C219.007 245.478 219.864 246.085 221.016 246.02C222.167 245.954 229.831 244.259 230.267 243.947C230.703 243.635 231.046 242.589 230.97 241.907C230.947 241.705 230.642 240.66 230.565 240.627C230.47 240.585 230.34 242.456 228.968 242.896Z" fill="#BFB9C1"/>
<path d="M228.857 231.927C229.837 232.347 230.166 233.464 230.937 237.75L231.302 239.977C231.664 242.564 231.509 243.691 230.614 244.255C229.651 244.862 223.306 246.208 221.364 246.348C219.548 246.478 218.494 246.013 218.142 244.664L217.859 243.314C217.566 241.782 217.165 239.434 216.915 237.806L216.604 235.485C216.45 233.937 217.141 233.109 219.433 232.737L222.117 232.327C225.1 231.905 227.496 231.69 228.51 231.84L228.857 231.927ZM228.526 232.702C227.902 232.435 223.857 232.873 219.568 233.569C217.967 233.829 217.469 234.189 217.428 234.972L217.47 235.639L217.913 238.726C218.269 240.926 218.766 243.716 218.957 244.45C219.183 245.318 219.844 245.61 221.305 245.505C223.117 245.376 229.355 244.051 230.168 243.54C230.741 243.179 230.776 241.928 230.309 239.054L230.11 237.899C229.508 234.552 229.164 233.237 228.705 232.82L228.526 232.702Z" fill="#AEAEAE"/>
<path d="M185.438 332.42C185.551 331.065 188.059 328.473 191.95 327.454C195.841 326.435 200.199 322.769 198.22 320.015C196.239 317.259 181.409 305.71 176.085 302.691C170.762 299.672 147.276 284.772 138.702 278.458C132.987 274.249 128.451 270.366 125.096 266.808C137.272 273.406 147.44 278.566 155.599 282.29C167.837 287.875 188.455 291.784 196.451 294.649C204.447 297.514 218.389 304.294 223.012 310.223C227.636 316.152 232.237 325.216 231.474 329.084C230.711 332.952 229.13 335.766 223.991 337.431C218.852 339.096 208.507 340.364 206.678 340.513C204.85 340.663 202.714 340.762 200.875 340.121C199.037 339.479 185.326 333.775 185.438 332.42Z" fill="#C2B8B6"/>
</g>
<defs>
<clipPath id="clip0_5_4019">
<rect width="542" height="543" fill="white" transform="matrix(-1 0 0 1 542 0)"/>
</clipPath>
</defs>
</svg>
