<svg width="29" height="29" viewBox="0 0 29 29" fill="none" xmlns="http://www.w3.org/2000/svg">
<path d="M22.5556 0H20.9444C19.9778 0 19.3333 0.644444 19.3333 1.61111C19.3333 2.57778 19.9778 3.22222 20.9444 3.22222H22.5556C24.3278 3.22222 25.7778 4.67222 25.7778 6.44444V8.21667C25.7778 9.18333 26.4222 9.82778 27.3889 9.82778C28.3556 9.82778 29 9.18333 29 8.21667V6.44444C29 2.9 26.1 0 22.5556 0ZM27.3889 19.3333C26.4222 19.3333 25.7778 19.9778 25.7778 20.9444V22.5556C25.7778 24.3278 24.3278 25.7778 22.5556 25.7778H20.9444C19.9778 25.7778 19.3333 26.4222 19.3333 27.3889C19.3333 28.3556 19.9778 29 20.9444 29H22.5556C26.1 29 29 26.1 29 22.5556V20.9444C29 19.9778 28.3556 19.3333 27.3889 19.3333ZM8.05556 25.7778H6.44444C4.67222 25.7778 3.22222 24.3278 3.22222 22.5556V20.9444C3.22222 19.9778 2.57778 19.3333 1.61111 19.3333C0.644444 19.3333 0 19.9778 0 20.9444V22.5556C0 26.1 2.9 29 6.44444 29H8.05556C9.02222 29 9.66667 28.3556 9.66667 27.3889C9.66667 26.4222 9.02222 25.7778 8.05556 25.7778ZM1.61111 9.66667C2.57778 9.66667 3.22222 9.02222 3.22222 8.05556V6.44444C3.22222 4.67222 4.67222 3.22222 6.44444 3.22222H8.05556C9.02222 3.22222 9.66667 2.57778 9.66667 1.61111C9.66667 0.644444 9.02222 0 8.05556 0H6.44444C2.9 0 0 2.9 0 6.44444V8.05556C0 8.86111 0.644444 9.66667 1.61111 9.66667ZM27.3889 12.8889H1.61111C0.644444 12.8889 0 13.5333 0 14.5C0 15.4667 0.644444 16.1111 1.61111 16.1111H27.3889C28.3556 16.1111 29 15.4667 29 14.5C29 13.5333 28.3556 12.8889 27.3889 12.8889Z" fill="black"/>
</svg>
