<svg width="15" height="16" viewBox="0 0 15 16" fill="none" xmlns="http://www.w3.org/2000/svg">
<path d="M8.78935 1.70157L10.0876 4.29811C10.2647 4.65218 10.7368 5.00625 11.1302 5.06527L13.4808 5.45868C14.9856 5.7144 15.3397 6.79629 14.2578 7.87818L12.4284 9.7174C12.1235 10.0223 11.9465 10.6223 12.0449 11.055L12.5661 13.327C12.9792 15.117 12.0252 15.8153 10.4417 14.881L8.23857 13.5729C7.83532 13.3368 7.18619 13.3368 6.78294 13.5729L4.56998 14.8711C2.98648 15.8055 2.03245 15.1072 2.44554 13.3171L2.96681 11.0452C3.06516 10.6223 2.88813 10.0223 2.58323 9.70756L0.763686 7.88802C-0.318205 6.80613 0.0358686 5.7144 1.54068 5.46852L3.89134 5.0751C4.28475 5.00625 4.75685 4.66201 4.93388 4.30794L6.23215 1.7114C6.93047 0.295108 8.09104 0.295108 8.78935 1.70157Z" fill="#ACACAC"/>
</svg>
