<svg width="28" height="28" viewBox="0 0 28 28" fill="none" xmlns="http://www.w3.org/2000/svg">
<path d="M20.9937 4.99595C20.6733 4.99595 20.3601 5.09096 20.0936 5.26897C19.8272 5.44698 19.6196 5.69999 19.497 5.996C19.3744 6.29202 19.3423 6.61775 19.4048 6.932C19.4673 7.24625 19.6216 7.5349 19.8482 7.76146C20.0747 7.98803 20.3634 8.14232 20.6776 8.20482C20.9919 8.26733 21.3176 8.23525 21.6136 8.11264C21.9096 7.99002 22.1626 7.78238 22.3406 7.51598C22.5187 7.24957 22.6137 6.93636 22.6137 6.61595C22.6137 6.1863 22.443 5.77425 22.1392 5.47044C21.8354 5.16663 21.4233 4.99595 20.9937 4.99595ZM27.2037 8.26295C27.1774 7.14285 26.9676 6.03465 26.5827 4.98245C26.2394 4.08218 25.7051 3.26698 25.0167 2.59295C24.3482 1.90098 23.5311 1.37009 22.6272 1.04045C21.5778 0.643768 20.4683 0.429185 19.3467 0.405951C17.9157 0.324951 17.4567 0.324951 13.7847 0.324951C10.1127 0.324951 9.65367 0.324951 8.22267 0.405951C7.10102 0.429185 5.99158 0.643768 4.94217 1.04045C4.03993 1.37343 3.22353 1.90386 2.55267 2.59295C1.86069 3.26144 1.32981 4.07854 1.00017 4.98245C0.603485 6.03186 0.388901 7.14131 0.365668 8.26295C0.284668 9.69395 0.284668 10.153 0.284668 13.825C0.284668 17.497 0.284668 17.956 0.365668 19.387C0.388901 20.5086 0.603485 21.618 1.00017 22.6675C1.32981 23.5714 1.86069 24.3885 2.55267 25.057C3.22353 25.746 4.03993 26.2765 4.94217 26.6095C5.99158 27.0061 7.10102 27.2207 8.22267 27.244C9.65367 27.325 10.1127 27.325 13.7847 27.325C17.4567 27.325 17.9157 27.325 19.3467 27.244C20.4683 27.2207 21.5778 27.0061 22.6272 26.6095C23.5311 26.2798 24.3482 25.7489 25.0167 25.057C25.7082 24.3854 26.2429 23.5695 26.5827 22.6675C26.9676 21.6153 27.1774 20.5071 27.2037 19.387C27.2037 17.956 27.2847 17.497 27.2847 13.825C27.2847 10.153 27.2847 9.69395 27.2037 8.26295ZM24.7737 19.225C24.7638 20.0819 24.6086 20.931 24.3147 21.736C24.0991 22.3235 23.7529 22.8543 23.3022 23.2885C22.8643 23.7346 22.3345 24.0801 21.7497 24.301C20.9447 24.5949 20.0956 24.7501 19.2387 24.76C17.8887 24.8275 17.3892 24.841 13.8387 24.841C10.2882 24.841 9.78867 24.841 8.43867 24.76C7.54887 24.7766 6.66287 24.6396 5.81967 24.355C5.26047 24.1229 4.755 23.7782 4.33467 23.3425C3.88659 22.9088 3.54471 22.3775 3.33567 21.79C3.00607 20.9734 2.82327 20.1051 2.79567 19.225C2.79567 17.875 2.71467 17.3755 2.71467 13.825C2.71467 10.2745 2.71467 9.77495 2.79567 8.42495C2.80172 7.54888 2.96165 6.68068 3.26817 5.85995C3.50583 5.29013 3.87063 4.78219 4.33467 4.37495C4.74482 3.91078 5.25171 3.54213 5.81967 3.29495C6.64256 2.99801 7.50986 2.84281 8.38467 2.83595C9.73467 2.83595 10.2342 2.75495 13.7847 2.75495C17.3352 2.75495 17.8347 2.75495 19.1847 2.83595C20.0416 2.84578 20.8907 3.00098 21.6957 3.29495C22.3091 3.52263 22.8598 3.89279 23.3022 4.37495C23.7446 4.78964 24.0902 5.29664 24.3147 5.85995C24.6147 6.68201 24.77 7.54985 24.7737 8.42495C24.8412 9.77495 24.8547 10.2745 24.8547 13.825C24.8547 17.3755 24.8412 17.875 24.7737 19.225ZM13.7847 6.89945C12.4155 6.90212 11.0779 7.31056 9.94075 8.07317C8.80364 8.83577 7.91808 9.91832 7.39597 11.184C6.87387 12.4497 6.73865 13.8418 7.00739 15.1843C7.27613 16.5268 7.93679 17.7596 8.90587 18.7268C9.87495 19.694 11.109 20.3522 12.452 20.6184C13.7951 20.8845 15.1869 20.7465 16.4516 20.222C17.7162 19.6974 18.7971 18.8097 19.5574 17.6711C20.3178 16.5325 20.7237 15.1941 20.7237 13.825C20.7255 12.9138 20.5471 12.0114 20.1988 11.1694C19.8506 10.3275 19.3393 9.56274 18.6944 8.91912C18.0496 8.2755 17.2838 7.76572 16.4412 7.41911C15.5986 7.07249 14.6958 6.89589 13.7847 6.89945ZM13.7847 18.3205C12.8955 18.3205 12.0264 18.0568 11.2871 17.5628C10.5478 17.0689 9.97162 16.3668 9.63137 15.5453C9.29111 14.7239 9.20209 13.82 9.37555 12.9479C9.54901 12.0759 9.97716 11.2749 10.6059 10.6462C11.2346 10.0174 12.0356 9.58929 12.9076 9.41583C13.7797 9.24237 14.6836 9.3314 15.505 9.67165C16.3265 10.0119 17.0286 10.5881 17.5225 11.3274C18.0165 12.0667 18.2802 12.9358 18.2802 13.825C18.2802 14.4153 18.1639 14.9999 17.938 15.5453C17.712 16.0907 17.3809 16.5863 16.9635 17.0038C16.546 17.4212 16.0504 17.7523 15.505 17.9783C14.9596 18.2042 14.375 18.3205 13.7847 18.3205Z" fill="#8C8C8C"/>
</svg>
