<svg width="28" height="28" viewBox="0 0 28 28" fill="none" xmlns="http://www.w3.org/2000/svg">
<path d="M25.7997 0.324951H1.76967C1.37582 0.324951 0.998106 0.481406 0.719615 0.759898C0.441123 1.03839 0.284668 1.4161 0.284668 1.80995V25.84C0.284668 26.035 0.323079 26.2281 0.397707 26.4082C0.472335 26.5884 0.58172 26.7521 0.719615 26.89C0.85751 27.0279 1.02121 27.1373 1.20138 27.2119C1.38155 27.2865 1.57465 27.325 1.76967 27.325H14.7027V16.8625H11.1927V12.8125H14.7027V9.77495C14.63 9.06182 14.7142 8.34142 14.9493 7.66428C15.1845 6.98713 15.565 6.36964 16.0641 5.85511C16.5632 5.34058 17.1688 4.94147 17.8385 4.68577C18.5082 4.43008 19.2257 4.32399 19.9407 4.37495C20.9914 4.36849 22.0416 4.42257 23.0862 4.53695V8.18195H20.9397C19.2387 8.18195 18.9147 8.99195 18.9147 10.1665V12.772H22.9647L22.4382 16.822H18.9147V27.325H25.7997C25.9947 27.325 26.1878 27.2865 26.368 27.2119C26.5481 27.1373 26.7118 27.0279 26.8497 26.89C26.9876 26.7521 27.097 26.5884 27.1716 26.4082C27.2463 26.2281 27.2847 26.035 27.2847 25.84V1.80995C27.2847 1.61494 27.2463 1.42183 27.1716 1.24167C27.097 1.0615 26.9876 0.897793 26.8497 0.759898C26.7118 0.622003 26.5481 0.512618 26.368 0.43799C26.1878 0.363362 25.9947 0.324951 25.7997 0.324951Z" fill="#8C8C8C"/>
</svg>
