<svg width="16" height="16" viewBox="0 0 16 16" fill="none" xmlns="http://www.w3.org/2000/svg">
<path d="M9.22124 1.91092L10.5195 4.50746C10.6965 4.86153 11.1686 5.2156 11.5621 5.27462L13.9127 5.66803C15.4175 5.92375 15.7716 7.00564 14.6897 8.08753L12.8603 9.92675C12.5554 10.2316 12.3784 10.8316 12.4767 11.2644L12.998 13.5363C13.4111 15.3264 12.4571 16.0247 10.8736 15.0903L8.67045 13.7822C8.2672 13.5462 7.61807 13.5462 7.21482 13.7822L5.00186 15.0805C3.41837 16.0148 2.46433 15.3165 2.87742 13.5265L3.39869 11.2545C3.49705 10.8316 3.32001 10.2316 3.01512 9.91691L1.19557 8.09737C0.11368 7.01548 0.467753 5.92375 1.97257 5.67787L4.32322 5.28445C4.71663 5.2156 5.18873 4.87137 5.36577 4.51729L6.66404 1.92075C7.36235 0.504459 8.52292 0.504459 9.22124 1.91092Z" fill="#ACACAC"/>
</svg>
