<svg width="28" height="28" viewBox="0 0 28 28" fill="none" xmlns="http://www.w3.org/2000/svg">
<path d="M23.5129 27.65H4.77222C0.284668 27.65 0.284668 27.65 0.284668 23.1717V4.47825C0.284668 0 0.284668 0 4.77222 0H23.5129C27.7847 0 27.9998 0 27.9998 4.47825V23.1725C27.9998 27.65 27.9998 27.65 23.5129 27.65ZM21.3704 8.31696C21.0277 7.95005 20.6132 7.65747 20.1527 7.45737C19.6922 7.25728 19.1955 7.15394 18.6934 7.15376C16.6475 7.15376 14.9892 8.8399 14.9892 10.9195C14.9892 11.1913 15.0178 11.456 15.0715 11.7114C12.0133 11.5183 9.33847 9.88364 7.69739 7.46781C7.59486 7.9199 7.54327 8.38205 7.54359 8.84562C7.54359 10.3923 8.11088 11.8051 9.04516 12.8796C8.40287 12.7465 7.7873 12.5072 7.22382 12.1714C7.43129 12.9693 7.79861 13.7168 8.30352 14.3685C8.80843 15.0202 9.4404 15.5626 10.1611 15.9629C9.62081 16.0184 9.07543 15.9999 8.54011 15.9078C9.32338 17.1138 10.513 17.9991 11.8931 18.403C11.1957 19.0141 10.3644 19.4525 9.46626 19.6829C8.56816 19.9133 7.62845 19.9292 6.72305 19.7294C8.36538 20.939 10.352 21.5908 12.3917 21.5893C17.4959 21.5893 21.6794 17.5796 22.0607 12.4897C22.3502 11.8495 22.4566 11.1416 22.3683 10.4445C22.7198 10.3166 23.0352 10.1056 23.2875 9.82944C23.5397 9.55326 23.7214 9.22013 23.817 8.8585C23.3341 9.21619 22.7625 9.4587 22.143 9.54526C22.121 9.48843 22.0976 9.43213 22.0729 9.37643C22.7048 8.90877 23.1749 8.25554 23.4178 7.50787C22.8352 7.98252 22.12 8.26516 21.3704 8.31696Z" fill="#8C8C8C"/>
</svg>
