<svg width="16" height="16" viewBox="0 0 16 16" fill="none" xmlns="http://www.w3.org/2000/svg">
<path d="M9.22126 1.70157L10.5195 4.29811C10.6966 4.65218 11.1687 5.00625 11.5621 5.06527L13.9127 5.45868C15.4175 5.7144 15.7716 6.79629 14.6897 7.87818L12.8603 9.7174C12.5555 10.0223 12.3784 10.6223 12.4768 11.055L12.998 13.327C13.4111 15.117 12.4571 15.8153 10.8736 14.881L8.67048 13.5729C8.26723 13.3368 7.61809 13.3368 7.21484 13.5729L5.00188 14.8711C3.41839 15.8055 2.46436 15.1072 2.87744 13.3171L3.39872 11.0452C3.49707 10.6223 3.32003 10.0223 3.01514 9.70756L1.19559 7.88802C0.113703 6.80613 0.467776 5.7144 1.97259 5.46852L4.32324 5.0751C4.71666 5.00625 5.18876 4.66201 5.36579 4.30794L6.66406 1.7114C7.36237 0.295108 8.52295 0.295108 9.22126 1.70157Z" fill="#ACACAC"/>
</svg>
