<svg width="16" height="16" viewBox="0 0 16 16" fill="none" xmlns="http://www.w3.org/2000/svg">
<path d="M9.22124 1.70157L10.5195 4.29811C10.6965 4.65218 11.1686 5.00625 11.5621 5.06527L13.9127 5.45868C15.4175 5.7144 15.7716 6.79629 14.6897 7.87818L12.8603 9.7174C12.5554 10.0223 12.3784 10.6223 12.4767 11.055L12.998 13.327C13.4111 15.117 12.4571 15.8153 10.8736 14.881L8.67045 13.5729C8.2672 13.3368 7.61807 13.3368 7.21482 13.5729L5.00186 14.8711C3.41837 15.8055 2.46433 15.1072 2.87742 13.3171L3.39869 11.0452C3.49705 10.6223 3.32001 10.0223 3.01512 9.70756L1.19557 7.88802C0.11368 6.80613 0.467753 5.7144 1.97257 5.46852L4.32322 5.0751C4.71663 5.00625 5.18873 4.66201 5.36577 4.30794L6.66404 1.7114C7.36235 0.295108 8.52292 0.295108 9.22124 1.70157Z" fill="#ACACAC"/>
</svg>
