<svg width="28" height="28" viewBox="0 0 28 28" fill="none" xmlns="http://www.w3.org/2000/svg">
<path d="M25.2882 0.32514H2.28115C2.02253 0.32157 1.76573 0.368673 1.52543 0.463761C1.28512 0.558849 1.06602 0.700058 0.88062 0.879323C0.695225 1.05859 0.547173 1.2724 0.444919 1.50855C0.342664 1.74469 0.288211 1.99855 0.284668 2.25561V25.3943C0.288211 25.6514 0.342664 25.9052 0.444919 26.1414C0.547173 26.3775 0.695225 26.5913 0.88062 26.7706C1.06602 26.9498 1.28512 27.0911 1.52543 27.1861C1.76573 27.2812 2.02253 27.3283 2.28115 27.3248H25.2882C25.5468 27.3283 25.8036 27.2812 26.0439 27.1861C26.2842 27.0911 26.5033 26.9498 26.6887 26.7706C26.8741 26.5913 27.0222 26.3775 27.1244 26.1414C27.2267 25.9052 27.2811 25.6514 27.2847 25.3943V2.25561C27.2811 1.99855 27.2267 1.74469 27.1244 1.50855C27.0222 1.2724 26.8741 1.05859 26.6887 0.879323C26.5033 0.700058 26.2842 0.558849 26.0439 0.463761C25.8036 0.368673 25.5468 0.32157 25.2882 0.32514ZM8.47431 22.9238H4.39986V10.774H8.47431V22.9238ZM6.43708 9.07302C5.87516 9.07302 5.33626 8.85114 4.93893 8.45619C4.54159 8.06125 4.31837 7.52558 4.31837 6.96705C4.31837 6.40851 4.54159 5.87285 4.93893 5.4779C5.33626 5.08295 5.87516 4.86108 6.43708 4.86108C6.73546 4.82744 7.03762 4.85683 7.32378 4.94732C7.60994 5.03781 7.87365 5.18735 8.09763 5.38617C8.32162 5.58498 8.50082 5.82858 8.62353 6.10101C8.74623 6.37344 8.80966 6.66856 8.80966 6.96705C8.80966 7.26553 8.74623 7.56065 8.62353 7.83308C8.50082 8.10551 8.32162 8.34911 8.09763 8.54793C7.87365 8.74674 7.60994 8.89629 7.32378 8.98678C7.03762 9.07726 6.73546 9.10665 6.43708 9.07302ZM23.1695 22.9238H19.095V16.4034C19.095 14.7699 18.511 13.7035 17.0306 13.7035C16.5725 13.7068 16.1264 13.8496 15.7524 14.1127C15.3784 14.3758 15.0946 14.7465 14.9391 15.1749C14.8328 15.4922 14.7868 15.8264 14.8033 16.1604V22.9103H10.7288C10.7288 22.9103 10.7288 11.8675 10.7288 10.7605H14.8033V12.475C15.1734 11.8366 15.7118 11.3106 16.3603 10.9538C17.0089 10.597 17.7431 10.4228 18.4839 10.45C21.2002 10.45 23.1695 12.1915 23.1695 15.9309V22.9238Z" fill="#8C8C8C"/>
</svg>
