<svg width="15" height="16" viewBox="0 0 15 16" fill="none" xmlns="http://www.w3.org/2000/svg">
<path d="M8.78935 1.91092L10.0876 4.50746C10.2647 4.86153 10.7368 5.2156 11.1302 5.27462L13.4808 5.66803C14.9856 5.92375 15.3397 7.00564 14.2578 8.08753L12.4284 9.92675C12.1235 10.2316 11.9465 10.8316 12.0449 11.2644L12.5661 13.5363C12.9792 15.3264 12.0252 16.0247 10.4417 15.0903L8.23857 13.7822C7.83532 13.5462 7.18619 13.5462 6.78294 13.7822L4.56998 15.0805C2.98648 16.0148 2.03245 15.3165 2.44554 13.5265L2.96681 11.2545C3.06516 10.8316 2.88813 10.2316 2.58323 9.91691L0.763686 8.09737C-0.318205 7.01548 0.0358686 5.92375 1.54068 5.67787L3.89134 5.28445C4.28475 5.2156 4.75685 4.87137 4.93388 4.51729L6.23215 1.92075C6.93047 0.504459 8.09104 0.504459 8.78935 1.91092Z" fill="#ACACAC"/>
</svg>
