<svg width="15" height="16" viewBox="0 0 15 16" fill="none" xmlns="http://www.w3.org/2000/svg">
<path d="M8.65318 1.91092L9.95145 4.50746C10.1285 4.86153 10.6006 5.2156 10.994 5.27462L13.3447 5.66803C14.8495 5.92375 15.2035 7.00564 14.1216 8.08753L12.2923 9.92675C11.9874 10.2316 11.8103 10.8316 11.9087 11.2644L12.43 13.5363C12.8431 15.3264 11.889 16.0247 10.3055 15.0903L8.1024 13.7822C7.69915 13.5462 7.05002 13.5462 6.64677 13.7822L4.43381 15.0805C2.85031 16.0148 1.89628 15.3165 2.30937 13.5265L2.83064 11.2545C2.92899 10.8316 2.75196 10.2316 2.44706 9.91691L0.627517 8.09737C-0.454374 7.01548 -0.100301 5.92375 1.40451 5.67787L3.75517 5.28445C4.14858 5.2156 4.62068 4.87137 4.79772 4.51729L6.09598 1.92075C6.7943 0.504459 7.95487 0.504459 8.65318 1.91092Z" fill="#ACACAC"/>
</svg>
