<svg width="16" height="16" viewBox="0 0 16 16" fill="none" xmlns="http://www.w3.org/2000/svg">
<path d="M9.35741 1.91092L10.6557 4.50746C10.8327 4.86153 11.3048 5.2156 11.6982 5.27462L14.0489 5.66803C15.5537 5.92375 15.9078 7.00564 14.8259 8.08753L12.9965 9.92675C12.6916 10.2316 12.5146 10.8316 12.6129 11.2644L13.1342 13.5363C13.5473 15.3264 12.5932 16.0247 11.0097 15.0903L8.80662 13.7822C8.40337 13.5462 7.75424 13.5462 7.35099 13.7822L5.13803 15.0805C3.55453 16.0148 2.6005 15.3165 3.01359 13.5265L3.53486 11.2545C3.63322 10.8316 3.45618 10.2316 3.15128 9.91691L1.33174 8.09737C0.249849 7.01548 0.603923 5.92375 2.10873 5.67787L4.45939 5.28445C4.8528 5.2156 5.3249 4.87137 5.50194 4.51729L6.80021 1.92075C7.49852 0.504459 8.65909 0.504459 9.35741 1.91092Z" fill="#ACACAC"/>
</svg>
