<svg width="16" height="16" viewBox="0 0 16 16" fill="none" xmlns="http://www.w3.org/2000/svg">
<path d="M9.22127 1.91092L10.5195 4.50746C10.6966 4.86153 11.1687 5.2156 11.5621 5.27462L13.9127 5.66803C15.4176 5.92375 15.7716 7.00564 14.6897 8.08753L12.8604 9.92675C12.5555 10.2316 12.3784 10.8316 12.4768 11.2644L12.998 13.5363C13.4111 15.3264 12.4571 16.0247 10.8736 15.0903L8.67049 13.7822C8.26723 13.5462 7.6181 13.5462 7.21485 13.7822L5.00189 15.0805C3.4184 16.0148 2.46436 15.3165 2.87745 13.5265L3.39873 11.2545C3.49708 10.8316 3.32004 10.2316 3.01515 9.91691L1.1956 8.09737C0.11371 7.01548 0.467784 5.92375 1.9726 5.67787L4.32325 5.28445C4.71667 5.2156 5.18876 4.87137 5.3658 4.51729L6.66407 1.92075C7.36238 0.504459 8.52295 0.504459 9.22127 1.91092Z" fill="#ACACAC"/>
</svg>
