<svg width="16" height="16" viewBox="0 0 16 16" fill="none" xmlns="http://www.w3.org/2000/svg">
<path d="M9.35742 1.91092L10.6557 4.50746C10.8327 4.86153 11.3048 5.2156 11.6982 5.27462L14.0489 5.66803C15.5537 5.92375 15.9078 7.00564 14.8259 8.08753L12.9965 9.92675C12.6916 10.2316 12.5146 10.8316 12.6129 11.2644L13.1342 13.5363C13.5473 15.3264 12.5933 16.0247 11.0098 15.0903L8.80664 13.7822C8.40339 13.5462 7.75425 13.5462 7.351 13.7822L5.13805 15.0805C3.55455 16.0148 2.60052 15.3165 3.0136 13.5265L3.53488 11.2545C3.63323 10.8316 3.4562 10.2316 3.1513 9.91691L1.33176 8.09737C0.249864 7.01548 0.603938 5.92375 2.10875 5.67787L4.4594 5.28445C4.85282 5.2156 5.32492 4.87137 5.50195 4.51729L6.80022 1.92075C7.49853 0.504459 8.65911 0.504459 9.35742 1.91092Z" fill="#ACACAC"/>
</svg>
