<svg width="16" height="15" viewBox="0 0 16 15" fill="none" xmlns="http://www.w3.org/2000/svg">
<path d="M9.22127 1.05362L10.5195 3.65016C10.6966 4.00423 11.1687 4.3583 11.5621 4.41732L13.9127 4.81073C15.4176 5.06645 15.7716 6.14834 14.6897 7.23023L12.8604 9.06945C12.5555 9.37434 12.3784 9.9743 12.4768 10.4071L12.998 12.679C13.4111 14.4691 12.4571 15.1674 10.8736 14.233L8.67049 12.9249C8.26723 12.6889 7.6181 12.6889 7.21485 12.9249L5.00189 14.2232C3.4184 15.1575 2.46436 14.4592 2.87745 12.6692L3.39873 10.3972C3.49708 9.9743 3.32004 9.37434 3.01515 9.05961L1.1956 7.24007C0.11371 6.15818 0.467784 5.06645 1.9726 4.82057L4.32325 4.42715C4.71667 4.3583 5.18876 4.01407 5.3658 3.65999L6.66407 1.06345C7.36238 -0.352841 8.52295 -0.352841 9.22127 1.05362Z" fill="#ACACAC"/>
</svg>
