<svg width="16" height="16" viewBox="0 0 16 16" fill="none" xmlns="http://www.w3.org/2000/svg">
<path d="M8.92549 1.91092L10.2238 4.50746C10.4008 4.86153 10.8729 5.2156 11.2663 5.27462L13.617 5.66803C15.1218 5.92375 15.4758 7.00564 14.394 8.08753L12.5646 9.92675C12.2597 10.2316 12.0826 10.8316 12.181 11.2644L12.7023 13.5363C13.1154 15.3264 12.1613 16.0247 10.5778 15.0903L8.37471 13.7822C7.97146 13.5462 7.32232 13.5462 6.91907 13.7822L4.70611 15.0805C3.12262 16.0148 2.16859 15.3165 2.58167 13.5265L3.10295 11.2545C3.2013 10.8316 3.02427 10.2316 2.71937 9.91691L0.899825 8.09737C-0.182066 7.01548 0.172007 5.92375 1.67682 5.67787L4.02747 5.28445C4.42089 5.2156 4.89299 4.87137 5.07002 4.51729L6.36829 1.92075C7.0666 0.504459 8.22718 0.504459 8.92549 1.91092Z" fill="#ACACAC"/>
</svg>
