<svg width="29" height="28" viewBox="0 0 29 28" fill="none" xmlns="http://www.w3.org/2000/svg">
<path d="M26.273 10.2393L6.6744 0.439945C5.90095 0.0549854 5.02758 -0.082063 4.17339 0.0474855C3.31919 0.177034 2.52574 0.566875 1.9012 1.16386C1.27667 1.76084 0.851449 2.53591 0.683517 3.38339C0.515584 4.23088 0.613114 5.10953 0.962807 5.89956L4.32257 13.417C4.3988 13.5988 4.43807 13.7939 4.43807 13.991C4.43807 14.1881 4.3988 14.3832 4.32257 14.5649L0.962807 22.0824C0.678207 22.7218 0.557894 23.4221 0.6128 24.1198C0.667706 24.8175 0.896091 25.4904 1.2772 26.0773C1.65831 26.6643 2.18006 27.1467 2.79503 27.4807C3.41 27.8148 4.0987 27.9898 4.79854 27.99C5.45401 27.9835 6.09973 27.8304 6.6884 27.542L26.287 17.7427C26.9822 17.393 27.5665 16.857 27.9749 16.1945C28.3832 15.5321 28.5994 14.7692 28.5994 13.991C28.5994 13.2128 28.3832 12.4499 27.9749 11.7874C27.5665 11.125 26.9822 10.589 26.287 10.2393H26.273ZM25.0271 15.2369L5.42849 25.0362C5.17114 25.1598 4.88215 25.2017 4.60029 25.1564C4.31843 25.1111 4.05716 24.9806 3.85152 24.7826C3.64588 24.5846 3.5057 24.3284 3.44977 24.0485C3.39385 23.7685 3.42485 23.4782 3.53862 23.2163L6.88439 15.6989C6.9277 15.5985 6.96509 15.4956 6.99638 15.3909H16.6417C17.013 15.3909 17.369 15.2434 17.6316 14.9809C17.8941 14.7183 18.0416 14.3623 18.0416 13.991C18.0416 13.6197 17.8941 13.2636 17.6316 13.0011C17.369 12.7386 17.013 12.5911 16.6417 12.5911H6.99638C6.96509 12.4863 6.9277 12.3835 6.88439 12.2831L3.53862 4.76564C3.42485 4.50381 3.39385 4.21345 3.44977 3.9335C3.5057 3.65354 3.64588 3.39738 3.85152 3.19936C4.05716 3.00133 4.31843 2.87092 4.60029 2.82559C4.88215 2.78026 5.17114 2.8222 5.42849 2.94577L25.0271 12.7451C25.2564 12.8626 25.4488 13.041 25.5832 13.2609C25.7176 13.4807 25.7887 13.7333 25.7887 13.991C25.7887 14.2486 25.7176 14.5013 25.5832 14.7211C25.4488 14.9409 25.2564 15.1194 25.0271 15.2369Z" fill="black"/>
</svg>
