<svg width="16" height="16" viewBox="0 0 16 16" fill="none" xmlns="http://www.w3.org/2000/svg">
<path d="M9.35741 1.70157L10.6557 4.29811C10.8327 4.65218 11.3048 5.00625 11.6982 5.06527L14.0489 5.45868C15.5537 5.7144 15.9078 6.79629 14.8259 7.87818L12.9965 9.7174C12.6916 10.0223 12.5146 10.6223 12.6129 11.055L13.1342 13.327C13.5473 15.117 12.5932 15.8153 11.0097 14.881L8.80662 13.5729C8.40337 13.3368 7.75424 13.3368 7.35099 13.5729L5.13803 14.8711C3.55453 15.8055 2.6005 15.1072 3.01359 13.3171L3.53486 11.0452C3.63322 10.6223 3.45618 10.0223 3.15128 9.70756L1.33174 7.88802C0.249849 6.80613 0.603923 5.7144 2.10873 5.46852L4.45939 5.0751C4.8528 5.00625 5.3249 4.66201 5.50194 4.30794L6.80021 1.7114C7.49852 0.295108 8.65909 0.295108 9.35741 1.70157Z" fill="#ACACAC"/>
</svg>
