<svg width="14" height="14" viewBox="0 0 14 14" fill="none" xmlns="http://www.w3.org/2000/svg">
<path d="M11.5264 5.49131H8.50872V2.47367C8.50872 2.0735 8.34975 1.68973 8.06679 1.40677C7.78383 1.12381 7.40006 0.964844 6.99989 0.964844C6.59973 0.964844 6.21595 1.12381 5.93299 1.40677C5.65003 1.68973 5.49107 2.0735 5.49107 2.47367L5.54463 5.49131H2.47342C2.07326 5.49131 1.68948 5.65028 1.40652 5.93324C1.12356 6.2162 0.9646 6.59997 0.9646 7.00014C0.9646 7.4003 1.12356 7.78408 1.40652 8.06704C1.68948 8.35 2.07326 8.50896 2.47342 8.50896L5.54463 8.4554L5.49107 11.5266C5.49107 11.9268 5.65003 12.3105 5.93299 12.5935C6.21595 12.8765 6.59973 13.0354 6.99989 13.0354C7.40006 13.0354 7.78383 12.8765 8.06679 12.5935C8.34975 12.3105 8.50872 11.9268 8.50872 11.5266V8.4554L11.5264 8.50896C11.9265 8.50896 12.3103 8.35 12.5933 8.06704C12.8762 7.78408 13.0352 7.4003 13.0352 7.00014C13.0352 6.59997 12.8762 6.2162 12.5933 5.93324C12.3103 5.65028 11.9265 5.49131 11.5264 5.49131Z" fill="white"/>
</svg>
