<svg width="16" height="15" viewBox="0 0 16 15" fill="none" xmlns="http://www.w3.org/2000/svg">
<path d="M9.35742 1.05362L10.6557 3.65016C10.8327 4.00423 11.3048 4.3583 11.6982 4.41732L14.0489 4.81073C15.5537 5.06645 15.9078 6.14834 14.8259 7.23023L12.9965 9.06945C12.6916 9.37434 12.5146 9.9743 12.6129 10.4071L13.1342 12.679C13.5473 14.4691 12.5933 15.1674 11.0098 14.233L8.80664 12.9249C8.40339 12.6889 7.75425 12.6889 7.351 12.9249L5.13805 14.2232C3.55455 15.1575 2.60052 14.4592 3.0136 12.6692L3.53488 10.3972C3.63323 9.9743 3.4562 9.37434 3.1513 9.05961L1.33176 7.24007C0.249864 6.15818 0.603938 5.06645 2.10875 4.82057L4.4594 4.42715C4.85282 4.3583 5.32492 4.01407 5.50195 3.65999L6.80022 1.06345C7.49853 -0.352841 8.65911 -0.352841 9.35742 1.05362Z" fill="#ACACAC"/>
</svg>
