<svg width="14" height="14" viewBox="0 0 14 14" fill="none" xmlns="http://www.w3.org/2000/svg">
<path d="M11.5266 5.49131H8.50896V2.47367C8.50896 2.0735 8.35 1.68973 8.06704 1.40677C7.78408 1.12381 7.4003 0.964844 7.00014 0.964844C6.59997 0.964844 6.2162 1.12381 5.93324 1.40677C5.65028 1.68973 5.49131 2.0735 5.49131 2.47367L5.54488 5.49131H2.47367C2.0735 5.49131 1.68973 5.65028 1.40677 5.93324C1.12381 6.2162 0.964844 6.59997 0.964844 7.00014C0.964844 7.4003 1.12381 7.78408 1.40677 8.06704C1.68973 8.35 2.0735 8.50896 2.47367 8.50896L5.54488 8.4554L5.49131 11.5266C5.49131 11.9268 5.65028 12.3105 5.93324 12.5935C6.2162 12.8765 6.59997 13.0354 7.00014 13.0354C7.4003 13.0354 7.78408 12.8765 8.06704 12.5935C8.35 12.3105 8.50896 11.9268 8.50896 11.5266V8.4554L11.5266 8.50896C11.9268 8.50896 12.3105 8.35 12.5935 8.06704C12.8765 7.78408 13.0354 7.4003 13.0354 7.00014C13.0354 6.59997 12.8765 6.2162 12.5935 5.93324C12.3105 5.65028 11.9268 5.49131 11.5266 5.49131Z" fill="white"/>
</svg>
