<svg width="15" height="16" viewBox="0 0 15 16" fill="none" xmlns="http://www.w3.org/2000/svg">
<path d="M8.78934 1.91092L10.0876 4.50746C10.2646 4.86153 10.7367 5.2156 11.1302 5.27462L13.4808 5.66803C14.9856 5.92375 15.3397 7.00564 14.2578 8.08753L12.4284 9.92675C12.1235 10.2316 11.9465 10.8316 12.0448 11.2644L12.5661 13.5363C12.9792 15.3264 12.0252 16.0247 10.4417 15.0903L8.23855 13.7822C7.8353 13.5462 7.18617 13.5462 6.78292 13.7822L4.56996 15.0805C2.98647 16.0148 2.03243 15.3165 2.44552 13.5265L2.96679 11.2545C3.06515 10.8316 2.88811 10.2316 2.58321 9.91691L0.763671 8.09737C-0.31822 7.01548 0.0358533 5.92375 1.54067 5.67787L3.89132 5.28445C4.28473 5.2156 4.75683 4.87137 4.93387 4.51729L6.23214 1.92075C6.93045 0.504459 8.09102 0.504459 8.78934 1.91092Z" fill="#ACACAC"/>
</svg>
